<svg xmlns="http://www.w3.org/2000/svg" viewBox="0 0 257.75 215.54"><defs><style>.cls-1{fill:#f68c2d;}.cls-1,.cls-10,.cls-15,.cls-17,.cls-18,.cls-19,.cls-2,.cls-20,.cls-3,.cls-5,.cls-6,.cls-7,.cls-8,.cls-9{stroke:#2f2b2b;}.cls-1,.cls-10,.cls-15,.cls-16,.cls-17,.cls-18,.cls-19,.cls-2,.cls-20,.cls-23,.cls-3,.cls-5,.cls-6,.cls-7,.cls-8,.cls-9{stroke-linecap:round;stroke-miterlimit:10;}.cls-1,.cls-10,.cls-16,.cls-23,.cls-3,.cls-5,.cls-6,.cls-7,.cls-8,.cls-9{stroke-width:4px;}.cls-2,.cls-7{fill:#5ba36c;}.cls-19,.cls-2,.cls-20{stroke-width:2px;}.cls-3{fill:#c49576;}.cls-4{fill:#dcbc9b;}.cls-5{fill:#fe564a;}.cls-6{fill:#fee330;}.cls-8{fill:#ff6843;}.cls-9{fill:#ffa100;}.cls-10,.cls-16,.cls-18,.cls-19,.cls-23{fill:none;}.cls-11,.cls-17{fill:#54a758;}.cls-12{fill:#7bd88c;}.cls-13{fill:#8eec97;}.cls-14{fill:#2f2b2b;}.cls-15{fill:#1bf6af;stroke-width:4.16px;}.cls-16{stroke:#000;}.cls-17,.cls-18{stroke-width:4.16px;}.cls-20{fill:#826e6a;}.cls-21{fill:#fe3e27;}.cls-22{fill:#6cd8a9;}.cls-23{stroke:#f8a495;}.cls-24{fill:#fbb74c;}</style></defs><title>Fruits</title><g id="Layer_2" data-name="Layer 2"><g id="Fruits_And_Vegetables" data-name="Fruits And Vegetables"><path class="cls-1" d="M255.75,68.34a11.16,11.16,0,0,1-1.83,6.14l-1.3,1.63-19.7,24.73H207.11l9-12.43,14.32-19.69.23-.32.14-.2L231,68l3.53-4.84a5.53,5.53,0,0,1,.3-.53c.52-.72,1-1.34,1.29-1.73l.13-.15.21-.24v0a11.19,11.19,0,0,1,8-3.38,11,11,0,0,1,2.52.29A11.25,11.25,0,0,1,255.75,68.34Z"/><path class="cls-2" d="M244.95,65a6.64,6.64,0,0,0,3.52,2.19c2.46.71,3.43-.48,2.25-2.75a5.56,5.56,0,0,0-3.35-2.83C243.88,60.41,242.68,62.08,244.95,65Z"/><path class="cls-1" d="M247,57.38a11,11,0,0,0-2.52-.29,11.19,11.19,0,0,0-8,3.38v0l-.21.24-.13.15a9.85,9.85,0,0,0-1.29,1.73c-1.3,1.76-3,4.17-3.83,5.37l-.16.22-.14.2-.23.32L216.15,88.41l1.31-4.72,7.24-26.12.93-3.37A11.25,11.25,0,0,1,247,57.38Z"/><path class="cls-3" d="M234.25,100.84,209.5,188.92A33.75,33.75,0,0,1,177,213.54H70A33.74,33.74,0,0,1,37.5,189.08L12.25,100.84Z"/><path class="cls-4" d="M204.64,100.84l-24.75,88.08c-4.09,14.56-17.6,22.84-32.72,22.84H71.61c-15.07,0-28.08-8.2-32.22-22.68L14.14,100.84Z"/><path class="cls-5" d="M127.25,49.59c0,1.1,0,2.2-.15,3.27A32.25,32.25,0,0,0,98,74,29,29,0,0,0,59.4,64.25a35.16,35.16,0,0,1-3-11.41c-.1-1.07-.15-2.16-.15-3.25a35.5,35.5,0,1,1,71,0Z"/><path class="cls-6" d="M46.76,100.84H14.25s-6.84-29.77-11.17-39C-.86,53.43,6.08,36,21.71,44q.84.42,1.71,1c15,9.16,22,37.13,22,37.13a29.12,29.12,0,0,0,1.29,18.7Z"/><path class="cls-6" d="M59.4,64.25A29,29,0,0,0,45.47,82.14s-7-28-22-37.13q-.87-.54-1.71-1s9-10.54,18.54-5.38S56.4,52.84,56.4,52.84A35.16,35.16,0,0,0,59.4,64.25Z"/><path class="cls-7" d="M142.75,40.34c1.75,5.28,6.28,6.72,10.23,6.89-.28,6.87-8.72,9.86-8.72,9.86a32.16,32.16,0,0,0-16-4.25l-1.15,0c.1-1.07.15-2.17.15-3.27A35.38,35.38,0,0,0,115.33,23s4.75-10.38,19.59-9c0,0,6.16-3.25,12.25-2.75,0,0,8.34-2.92,12.5,1.37a2.7,2.7,0,0,1-.8.21,26.15,26.15,0,0,0-6.62,1.8c-3.9,1.55-5.24,7.64-5.67,10.81A4.15,4.15,0,0,1,145,28.28C143.17,29.7,140.36,33.17,142.75,40.34Z"/><path class="cls-8" d="M102.5,89.59a28.83,28.83,0,0,1-2.27,11.25H46.76A29,29,0,0,1,98,74a29,29,0,0,1,4.54,15.58Z"/><path class="cls-9" d="M160.5,85.09a32.1,32.1,0,0,1-4.1,15.75H100.23A29,29,0,0,0,98,74,32.25,32.25,0,0,1,127.1,52.86l1.15,0A32.24,32.24,0,0,1,160.5,85.09Z"/><path class="cls-10" d="M217.46,83.69l-1.31,4.72-9,12.43H156.4a32.32,32.32,0,0,0,3.09-23.77l12.18-21.55.75-1.32h32.83l3.16,7.63Z"/><path class="cls-11" d="M220.34,40.39a4.42,4.42,0,0,0-.46,2.87c.66,3.49,1.5,11.42-4,13.83,0,0-.62,3.74-7.46,4.74l-3.16-7.63h.92a2.36,2.36,0,0,0,2.36-2.36V48.7a2.36,2.36,0,0,0-2.36-2.36H203a5.57,5.57,0,0,0,5.57-5.57V36.49A5.57,5.57,0,0,0,203,30.92H175.57A5.57,5.57,0,0,0,170,36.49v4.28a5.57,5.57,0,0,0,5.57,5.57h-3.21a2.47,2.47,0,0,0-.94.19L170,46.34a7.72,7.72,0,0,1-8.92,1,4.79,4.79,0,0,0-3.09-.48,23.15,23.15,0,0,1-5,.37c-4-.17-8.48-1.61-10.23-6.89-2.39-7.17.42-10.64,2.27-12.06a4.15,4.15,0,0,0,1.56-2.75c.43-3.17,1.77-9.26,5.67-10.81a26.15,26.15,0,0,1,6.62-1.8,2.7,2.7,0,0,0,.8-.21,2.91,2.91,0,0,0,1.51-1.28c1.13-2,3.75-5.36,8.32-4.58a4,4,0,0,0,3.54-1c1.93-1.92,5.64-4.58,10-2.48a1.93,1.93,0,0,0,1.49.05c2.21-.84,8.65-2.78,14,.7,3.77,2.47,5.27,4.39,5.86,5.48A3.2,3.2,0,0,0,206,11c2.46,1,8,3.59,10.26,8.52a4.63,4.63,0,0,0,1.16,1.51c1.65,1.42,5.29,5.4,4.6,12.53A19,19,0,0,1,220.34,40.39Z"/><path class="cls-12" d="M201.62,42.4s11.76-26.67,14.32-23.46S202.74,9,202.74,9l-10.5-6.5L181.49,4.07l-4.75-.42-7.59,5.24-1.08,8,3.42,21.17Z"/><path class="cls-13" d="M168.49,6.82s7.56,7.85,7.5,15.83a59.4,59.4,0,0,0,2.44,15.93s-2.62,11.72-10.94,10.92a108.71,108.71,0,0,1-16.62-3.16l-7.19-4.21s-2.06-8.56-.37-10.44,4.69-9.87,4.75-10.06a15.58,15.58,0,0,1,1.31-1.84c.31-.35,1.94-3.41,1.94-3.41l5.81-4.06,3.94-1.56Z"/><path class="cls-14" d="M207.11,64.12l-5-12h4a.29.29,0,0,0,.28-.28V48.7a.29.29,0,0,0-.28-.28H203V44.26a3.5,3.5,0,0,0,3.49-3.49V36.49A3.5,3.5,0,0,0,203,33H175.57a3.5,3.5,0,0,0-3.49,3.49v4.28a3.5,3.5,0,0,0,3.49,3.49v4.16h-3.21l-.15,0-.52.21-1.13-.15a9.75,9.75,0,0,1-10.45.67,2.73,2.73,0,0,0-1.76-.27,25.09,25.09,0,0,1-5.46.4c-6.13-.26-10.43-3.22-12.12-8.31-2.89-8.68,1.12-12.94,3-14.36a2.09,2.09,0,0,0,.77-1.39c.52-3.82,2.11-10.53,7-12.46a28.26,28.26,0,0,1,7.15-1.93.69.69,0,0,0,.2,0l.1,0a.85.85,0,0,0,.44-.37c2.41-4.28,6.22-6.33,10.48-5.6a1.91,1.91,0,0,0,1.71-.44c3.79-3.77,8.26-4.83,12.3-2.93,2.78-1,9.78-3,15.78.93,4.07,2.67,5.81,4.86,6.55,6.23a1.13,1.13,0,0,0,.56.52c2.53,1,8.74,3.91,11.37,9.57a2.53,2.53,0,0,0,.63.81,16.31,16.31,0,0,1,5.32,14.31,21.26,21.26,0,0,1-1.88,7.55h0a2.38,2.38,0,0,0-.27,1.52c1.44,7.64-.15,13.28-4.37,15.7-.73,1.63-2.85,4.44-8.84,5.32Zm1.05-8.32,1.52,3.66c3.62-.92,4.13-2.71,4.16-2.8l.1-1.24,1.1-.24c4.15-1.82,3.34-8.68,2.8-11.54a6.45,6.45,0,0,1,.66-4.21h0a17,17,0,0,0,1.44-6c.6-6.17-2.52-9.58-3.89-10.75a6.69,6.69,0,0,1-1.68-2.18c-2-4.32-7.06-6.68-9.14-7.49a5.32,5.32,0,0,1-2.69-2.4c-.34-.63-1.52-2.35-5.17-4.74-4.56-3-10.4-1.13-12.08-.5a4,4,0,0,1-3.13-.12c-3.1-1.49-5.87.31-7.65,2.08a6.07,6.07,0,0,1-5.35,1.6c-3.13-.54-5.08,1.63-6.16,3.55a5,5,0,0,1-2.53,2.19,4.81,4.81,0,0,1-1.37.35A24.13,24.13,0,0,0,153,16.65c-2.08.83-3.72,4.25-4.38,9.16a6.26,6.26,0,0,1-2.36,4.13c-1.74,1.34-3.43,4.12-1.55,9.75,1.16,3.49,3.89,5.28,8.35,5.47a20.72,20.72,0,0,0,4.54-.34,6.89,6.89,0,0,1,4.44.69,5.63,5.63,0,0,0,6.63-.78l.23-.19a7.6,7.6,0,0,1-1-3.77V36.49a7.66,7.66,0,0,1,7.65-7.65H203a7.66,7.66,0,0,1,7.65,7.65v4.28a7.61,7.61,0,0,1-1.53,4.58,4.43,4.43,0,0,1,1.53,3.35v3.14A4.44,4.44,0,0,1,208.17,55.8Z"/><rect class="cls-15" x="170" y="30.92" width="38.53" height="15.42" rx="5.57" ry="5.57"/><line class="cls-16" x1="152.98" y1="47.23" x2="152.98" y2="47.22"/><path class="cls-17" d="M172.42,54.2l-.75,1.32L159.49,77.07a32.32,32.32,0,0,0-15.23-20s8.44-3,8.72-9.86a23.15,23.15,0,0,0,5-.37,4.79,4.79,0,0,1,3.09.48,7.72,7.72,0,0,0,8.92-1l1.42.19A2.38,2.38,0,0,0,170,48.7v3.14A2.38,2.38,0,0,0,171.42,54a2.47,2.47,0,0,0,.94.19Z"/><path class="cls-18" d="M208.53,48.7v3.14a2.36,2.36,0,0,1-2.36,2.36H172.36a2.47,2.47,0,0,1-.94-.19A2.38,2.38,0,0,1,170,51.84V48.7a2.38,2.38,0,0,1,1.42-2.17,2.47,2.47,0,0,1,.94-.19h33.81A2.36,2.36,0,0,1,208.53,48.7Z"/><line class="cls-19" x1="233.17" y1="64.91" x2="239.38" y2="70.4"/><line class="cls-19" x1="231.15" y1="69.22" x2="237.36" y2="74.71"/><line class="cls-19" x1="234.25" y1="85.66" x2="240.47" y2="91.15"/><line class="cls-19" x1="231.15" y1="88.98" x2="237.36" y2="94.47"/><path class="cls-20" d="M93,25.23s3.92-14.71,6.55-14.86S106,8.41,98,25.43"/><path class="cls-21" d="M103.49,18.07s13.56,21.66,2.44,41c0,0,6.84-7,19.28-8.06C125.21,51,127.87,29,103.49,18.07Z"/><path d="M94.36,83.46c-1.64-1.84-6.38-1-8.69-.46.91-3.35,2.21-9.34.4-10.83a2,2,0,0,0-2.32,0c-4.08,2.08-3.87,6.89-3.43,9.45C77,79.62,70,77.2,67.94,78.88c-.52.42-1.2,1.39,0,3.35a10.33,10.33,0,0,0,7.41,4.61c-2.52,1.28-5,3.16-5.18,4.92-.1.71.07,2,2.23,2.81a6.26,6.26,0,0,0,2.13.39c3.14,0,5.48-2.59,6.8-4.55.2,1.78.74,4.1,2.16,5.48a4.28,4.28,0,0,0,3.06,1.21l.45,0c1.63-.14,2.25-.91,2.47-1.53.75-2-1.82-5.39-3.52-7.3a24.49,24.49,0,0,0,3.68.32c2.19,0,4.35-.43,5-2A2.78,2.78,0,0,0,94.36,83.46ZM84.51,73.6a1.17,1.17,0,0,1,.46-.16h0c.62.38.34,4.22-.87,8.87a3.43,3.43,0,0,0-1.59-.39,2,2,0,0,0-.43,0C81.7,80.11,81.05,75.38,84.51,73.6ZM69.36,81.37c-.39-.65-.48-1.1-.38-1.19,1.15-.9,8.07,1.13,10.89,3a3.44,3.44,0,0,0-.8,2.14C77.08,85.47,71.81,85.38,69.36,81.37ZM73,93c-.82-.29-1.2-.64-1.15-1,.21-1.64,4.89-4.4,7.66-4.94a3.75,3.75,0,0,0,1.18,1.29C79.65,90.1,76.77,94.39,73,93Zm9.32-5.8-.13,0a1.82,1.82,0,0,1-.62-3.27l.15-.09a.08.08,0,0,0,0,0h0a.3.3,0,0,0,.08,0h0a1.65,1.65,0,0,1,.66-.13,1.8,1.8,0,0,1,1.38.64l0,0,.1.11,0,0a.34.34,0,0,0,.06.12,1.7,1.7,0,0,1,.22.86,1.82,1.82,0,0,1-.43,1.18,1,1,0,0,0-.12.16l-.14.08-.11.08a1.8,1.8,0,0,1-1,.31ZM87.9,95c-.11.31-.63.41-1,.45a2.69,2.69,0,0,1-2.21-.73c-1.36-1.32-1.71-4.15-1.75-5.82A3.6,3.6,0,0,0,84,88.58C86.24,91,88.27,94,87.9,95Zm5.17-9c-.5,1.22-4.27,1.1-7.24.6A3.52,3.52,0,0,0,86,85.41a3.08,3.08,0,0,0-.09-.75c2.69-.64,6.34-1,7.19-.09C93.34,84.83,93.32,85.29,93.07,85.94Z"/><path class="cls-22" d="M84.35,85.41a1.82,1.82,0,0,1-.43,1.18,1,1,0,0,0-.12.16l-.14.08-.11.08a1.8,1.8,0,0,1-1,.31l-.26,0-.13,0a1.82,1.82,0,0,1-.62-3.27l.15-.09a.08.08,0,0,0,0,0h0a.3.3,0,0,0,.08,0h0a1.65,1.65,0,0,1,.66-.13,1.8,1.8,0,0,1,1.38.64l0,0,.1.11,0,0a.34.34,0,0,0,.06.12A1.7,1.7,0,0,1,84.35,85.41Z"/><path class="cls-22" d="M80.65,88.33c-1,1.77-3.88,6.06-7.69,4.67-.82-.29-1.2-.64-1.15-1,.21-1.64,4.89-4.4,7.66-4.94A3.75,3.75,0,0,0,80.65,88.33Z"/><path class="cls-22" d="M87.9,95c-.11.31-.63.41-1,.45a2.69,2.69,0,0,1-2.21-.73c-1.36-1.32-1.71-4.15-1.75-5.82A3.6,3.6,0,0,0,84,88.58C86.24,91,88.27,94,87.9,95Z"/><path class="cls-22" d="M93.07,85.94c-.5,1.22-4.27,1.1-7.24.6A3.52,3.52,0,0,0,86,85.41a3.08,3.08,0,0,0-.09-.75c2.69-.64,6.34-1,7.19-.09C93.34,84.83,93.32,85.29,93.07,85.94Z"/><path class="cls-22" d="M84.13,82.32a3.43,3.43,0,0,0-1.59-.39,2,2,0,0,0-.43,0c-.41-1.86-1.06-6.59,2.4-8.37a1.17,1.17,0,0,1,.46-.16h0C85.62,73.83,85.34,77.67,84.13,82.32Z"/><path class="cls-22" d="M79.87,83.21a3.44,3.44,0,0,0-.8,2.14c-2,.12-7.26,0-9.71-4-.39-.65-.48-1.1-.38-1.19C70.13,79.28,77.05,81.31,79.87,83.21Z"/><path class="cls-19" d="M85,21.59s6.92,7.33,21.25,1.92"/><path class="cls-23" d="M66.73,40.4s3.52-9.58,7.43-12.33"/><line class="cls-23" x1="64.91" y1="45.65" x2="63.91" y2="48.07"/><path class="cls-19" d="M126.66,22.65s7.75-3.17,12.58,0"/><path class="cls-23" d="M52.49,89.57S51.43,78.75,60.74,74"/><ellipse class="cls-24" cx="116.93" cy="70.4" rx="9.17" ry="6.06" transform="translate(-15.53 103.3) rotate(-45)"/><path class="cls-19" d="M138.66,54.56s1.54-1.49,0-10.11"/><path class="cls-19" d="M158.34,28.07s1.9-8.62,7-9.12"/><path class="cls-19" d="M179.74,13.44s6.13,1.73,6.63,7.8"/><path class="cls-19" d="M205.62,25.5s4.88-6.64-4-11.41"/><line class="cls-19" x1="16.31" y1="51.84" x2="17.87" y2="53.38"/><line class="cls-19" x1="28.32" y1="66.63" x2="29" y2="68.71"/><line class="cls-19" x1="19.11" y1="94.45" x2="19.78" y2="96.53"/><line class="cls-19" x1="40.14" y1="45.88" x2="41.65" y2="47.46"/><line class="cls-19" x1="49.21" y1="64.2" x2="49.89" y2="66.28"/></g></g></svg>