<svg xmlns="http://www.w3.org/2000/svg" viewBox="0 0 326.6 167.07"><defs><style>.cls-1{fill:#2f2b2b;}.cls-2{fill:#a12d2d;}.cls-3{fill:#d30013;}.cls-4{fill:#fff;}.cls-5{fill:#aaa;}.cls-6{fill:#dcbc9b;}</style></defs><title>Package_1</title><g id="Layer_2" data-name="Layer 2"><g id="Delivery"><path class="cls-1" d="M286.51,167c.59,0,1.19.06,1.79.06s1.2,0,1.79-.06Zm-24.94-49.47h0c.84-.39,1.66-.77,2.49-1.14C263.23,116.78,262.39,117.16,261.57,117.55Z"/><path class="cls-2" d="M321.26,107.56a106.49,106.49,0,0,0-13-.81c-.8,0-1.6,0-2.39,0s-1.65,0-2.46.09c-2.55.11-5.07.32-7.57.63h-.12l-1.32.18c-.63.08-1.27.17-1.9.28-.86.12-1.71.27-2.57.42l-2.16.41-1,.2-1.61.36-1.18.28-2,.49q-1.1.28-2.2.6-.4.1-.8.23c-.72.2-1.46.42-2.18.66s-1.66.52-2.48.81l-.39.12c-.76.26-1.5.52-2.26.8s-1.6.59-2.4.91-1.78.69-2.66,1.07-1.51.63-2.27,1l-.24.11c-.84.37-1.66.75-2.49,1.14-.68.3-1.35.62-2,1s-1.35.66-2,1-1.26.63-1.88,1l-.17.09-1.94,1-1.65.91-.73.41c-1.18.68-2.37,1.38-3.55,2.09l-2,1.21c.82-17.08,16-34,32.24-36.82C293.54,86.73,316.32,96,321.26,107.56Z"/><path d="M34,119.48c-3.13,0-6.26-.12-9.37.09-.75,0-1.42,1.17-2.13,1.8.69.51,1.38,1.44,2.08,1.45,6.25.12,12.51.13,18.76,0,.72,0,1.42-1.18,2.12-1.81-.69-.51-1.36-1.41-2.08-1.45C40.26,119.38,37.13,119.48,34,119.48Z"/><path d="M24.21,93.42c2.85,0,5.71.14,8.54-.08,1-.07,1.86-1,2.79-1.58C34.69,91.15,33.85,90,33,90q-8.75-.23-17.5,0c-.88,0-1.74,1.13-2.6,1.74.93.56,1.83,1.52,2.8,1.59C18.5,93.56,21.36,93.42,24.21,93.42Z"/><path d="M46,93.42a4.21,4.21,0,0,0,1.6,0c1.18-.52,2.28-1.21,3.41-1.83A12.88,12.88,0,0,0,47.8,90a12.08,12.08,0,0,0-4.42,0,10.32,10.32,0,0,0-2.83,1.55,19.82,19.82,0,0,0,3,1.83A7,7,0,0,0,46,93.42Z"/><path d="M49.45,62.36c2.22.8,3.24,1.5,4.2,1.42s1.56-1,2.34-1.59c-1-.63-1.92-1.58-3-1.79C52.29,60.27,51.39,61.23,49.45,62.36Z"/><path class="cls-3" d="M266.14,89.64c-9,4.73-16,11.71-19.61,21.1-2.84,7.38-7.63,13-12.44,18.91a11.92,11.92,0,0,1-9.94,4.59c-25.73-.06-51.46,0-77.19,0a28,28,0,0,1-3-.32c2.63-3.25,5.19-6.07,7.35-9.17,10.13-14.56,8.26-38.47-15-46.54-2-.71-4.14-1.36-6.25-1.89-14.57-3.72-29.39-3.4-44.25-2.72-2.33.1-4.67,0-7.89,0,6.48-5.82,12.36-10,20.82-9.76,13.59.4,27.22.11,40.84.1,1.35,0,2.86.21,4-.29,9.37-4,19.24-2.84,29-3,2.92,0,5.85,0,8.56,0,1.22,5.39,0,9-3.84,12.24a29.79,29.79,0,0,0-9.6,15.34c-4.82,17.6,4.45,30.87,22.6,31.94,6.5.39,13.06,0,19.6.17,24.57.5,36.1-18.13,39.66-34.66,2.29-10.64-.28-20.9-4.64-30.58S235.66,36.27,231,26.88c-3.31-6.72-3.27-6.74-10.52-5.63,1-.62,1.95-1.27,3-1.86,4.8-2.77,9.69-5.26,13.28-9.84A14.76,14.76,0,0,1,249,4.09c1.19,0,3,.48,3.45,1.32A13.24,13.24,0,0,1,253,17.56c-1.54,3.7-4.43,3.4-7.44,3.33a10.22,10.22,0,0,0-2,.11c-4.58.78-5.69,3.11-3.35,7.16,3.53,6.12,7.11,12.23,10.68,18.34q9.22,15.88,18.44,31.76C272.55,83.88,271.7,86.73,266.14,89.64Z"/><path class="cls-4" d="M253.93,20.8c-16.21-11.33.94-16.21.94-16.21Z"/><path class="cls-5" d="M153.22,109.36c-.95,9.39-6,16.52-13.1,22.25a12.11,12.11,0,0,1-7,2.49c-23.15.18-46.28.11-69.43.1-1.32,0-2.66-.1-4.22-.18-1.89-16.38,4.36-41,13.68-54.12a5.25,5.25,0,0,1,3.47-2.16c12.78-.28,25.6-1,38.33-.22a78.73,78.73,0,0,1,22.15,5C148.88,86.86,154.49,96.89,153.22,109.36Z"/><rect class="cls-6" x="75.39" y="10.05" width="56.76" height="49.97"/><path class="cls-1" d="M128.94,137.7c-1.09,15-13.93,26.41-28.19,25.81S73.86,150.89,74.22,137.7c3.48,0,7-.13,10.49.09a3.55,3.55,0,0,1,2.35,2.06c2.49,6.71,7.16,10.51,14.36,10.72,6.56.2,11.41-3.55,14.45-10.58.4-.91,1.46-2.14,2.27-2.19C121.64,137.56,125.16,137.7,128.94,137.7Z"/><path class="cls-4" d="M181.8,57c-1.22,0-2.45,0-3.67,0-11.19.47-22.25.39-32.33-5.72-2-1.2-3.76-2.23-2.74-4.48.52-1.12,2.57-2.13,4-2.18,6.51-.22,13-.1,19.57-.09,6.94,0,13.87.06,20.81,0,2.44,0,3.3.79,3.37,3.3C191.07,56.93,191.09,57,181.8,57Z"/><path class="cls-4" d="M112.2,137.69c-1.09,5.71-5.32,9.31-10.52,9.37a10.82,10.82,0,0,1-10.87-9.37Z"/><path class="cls-1" d="M321.88,163.62c-5.78-.21-11.58-.09-17.73-.09l1.47-1.56a32,32,0,0,0,3.43-51.22c4.28,0,8.44.11,12.6-.06,1.59-.07,3.16-.87,4.73-1.34-.52-1.56-.63-3.5-1.64-4.63C312.16,90.37,296.57,83.38,277.24,86c-.66.08-1.32.1-2.3.18.14-9.2-6.18-15.45-10.14-22.71-6.45-11.81-13.47-23.31-20.23-35-.59-1-1-2.12-1.81-3.66,1.8-.11,3.11-.23,4.4-.24,5.68,0,7.77-1.41,9.63-6.84,1.91-5.63,1.9-11.65-2.43-15.7-4.11-3.84-9.55-1.39-14.17.56a13.9,13.9,0,0,0-5.6,4c-3.61,4.73-8.67,7.3-13.64,10.09-2.72,1.53-5.59,3-3.77,6.83s4.65,2.24,7.35,1.24a4.67,4.67,0,0,1,1-.08,15.45,15.45,0,0,1,1.26,1.86c4.69,9.36,9.56,18.64,14,28.14,4.78,10.29,7.57,21.05,4.82,32.48-4.61,19.11-17.68,29.43-37.19,29.56-5.71,0-11.45.13-17.15-.11-17.78-.75-26.49-15.79-18.44-31.85a35.37,35.37,0,0,1,5-7.38c6.38-7.23,6.46-7.17,7.53-16.09,8.14-2,11.82-9.14,8.37-17.1a6.24,6.24,0,0,0-4.7-2.94c-14.7-.22-29.4-.14-44.1-.11-3,0-5.13,1.48-5.5,4.41-.39,3.13-1.18,6.68,3.1,8.26,2.54.94,5,2.14,7.46,3.23,0,.4.1.8.14,1.21L136,60.84V55.37q0-21.44,0-42.89c0-5-1.29-6.3-6.27-6.3q-25.94-.05-51.86,0c-4.9,0-6.29,1.43-6.3,6.32,0,14.3,0,28.59,0,42.89v4.85a36.65,36.65,0,0,0-6,.08,19.19,19.19,0,0,0-4.22,1.89c1.36.56,2.69,1.55,4.06,1.59,5.8.18,11.61.07,15.42.07-2.19,2.81-5,6.62-8.08,10.13-.78.88-2.71,1-4.1,1-10.76.08-21.51,0-32.27.12-1.31,0-2.62,1.12-3.92,1.71,1.3.6,2.62,1.69,3.93,1.71,10.74.13,21.5.08,32.74.08-.58,1.28-1,2.19-1.39,3.13-2.77,6.49-5.76,12.9-8.17,19.53-.9,2.49-1.8,3.4-4.48,3.38-16.61-.11-33.21,0-49.82,0a5.86,5.86,0,0,0-2,0A29.77,29.77,0,0,0,0,106.37c1,.59,2,1.56,3.07,1.69a52.9,52.9,0,0,0,6.51.09H57.33c-.75,8.75-1.46,17.09-2.23,26.05-7.31,0-14.74-.11-22.17.07-1.93,0-3.82,1-5.73,1.5,1.08,3.28,3.86,1.79,5.83,1.83,11.16.16,22.32.07,33.49.08,1.69,0,3.61-.47,4,2.23,1.29,9.94,6.65,17.31,14.75,23.63-5.59,0-11.18-.14-16.77.08-1.84.08-3.64,1.14-5.47,1.74,1.88.56,3.76,1.59,5.64,1.59q108.92.1,217.87.07H320.2a5.66,5.66,0,0,0,1.63,0c1.6-.51,3.18-1.12,4.78-1.7C325,164.71,323.47,163.68,321.88,163.62ZM145.8,51.27c-2-1.2-3.76-2.23-2.74-4.48.52-1.12,2.57-2.13,4-2.18,6.51-.22,13-.1,19.57-.09,6.94,0,13.87.06,20.81,0,2.44,0,3.3.79,3.37,3.3.28,9.15.3,9.21-9,9.21-1.22,0-2.45,0-3.67,0C166.94,57.46,155.88,57.38,145.8,51.27ZM75.39,60v-50h56.76V60Zm23.3,3.77c13.59.4,27.22.11,40.84.1,1.35,0,2.86.21,4-.29,9.37-4,19.24-2.84,29-3,2.92,0,5.85,0,8.56,0,1.22,5.39,0,9-3.84,12.24a29.79,29.79,0,0,0-9.6,15.34c-4.82,17.6,4.45,30.87,22.6,31.94,6.5.39,13.06,0,19.6.17,24.57.5,36.1-18.13,39.66-34.66,2.29-10.64-.28-20.9-4.64-30.58S235.66,36.27,231,26.88c-3.31-6.72-3.27-6.74-10.52-5.63,1-.62,1.95-1.27,3-1.86,4.8-2.77,9.69-5.26,13.28-9.84A14.76,14.76,0,0,1,249,4.09c1.19,0,3,.48,3.45,1.32A13.24,13.24,0,0,1,253,17.56c-1.54,3.7-4.43,3.4-7.44,3.33a10.22,10.22,0,0,0-2,.11c-4.58.78-5.69,3.11-3.35,7.16,3.53,6.12,7.11,12.23,10.68,18.34q9.22,15.88,18.44,31.76c3.24,5.62,2.39,8.47-3.16,11.38-9,4.73-16,11.71-19.61,21.1-2.84,7.38-7.63,13-12.44,18.91a11.92,11.92,0,0,1-9.94,4.59c-25.73-.06-51.46,0-77.19,0a28,28,0,0,1-3-.32c2.63-3.25,5.19-6.07,7.35-9.17,10.13-14.56,8.26-38.47-15-46.54-2-.71-4.14-1.36-6.25-1.89-14.57-3.72-29.39-3.4-44.25-2.72-2.33.1-4.67,0-7.89,0C84.35,67.74,90.23,63.54,98.69,63.8Zm-35,70.4c-1.32,0-2.66-.1-4.22-.18-1.89-16.38,4.36-41,13.68-54.12a5.25,5.25,0,0,1,3.47-2.16c12.78-.28,25.6-1,38.33-.22a78.73,78.73,0,0,1,22.15,5c11.75,4.31,17.36,14.34,16.09,26.81-.95,9.39-6,16.52-13.1,22.25a12.11,12.11,0,0,1-7,2.49C110,134.27,86.87,134.21,63.72,134.2Zm48.48,3.5c-1.09,5.71-5.32,9.31-10.52,9.37a10.82,10.82,0,0,1-10.87-9.37Zm-11.45,25.82c-14.28-.6-26.89-12.63-26.53-25.81,3.48,0,7-.13,10.49.09a3.55,3.55,0,0,1,2.35,2.06c2.49,6.71,7.16,10.51,14.36,10.72,6.56.2,11.41-3.55,14.45-10.58.4-.91,1.46-2.14,2.27-2.19,3.5-.24,7-.1,10.8-.1C127.85,152.67,115,164.11,100.75,163.51Zm16.1-.23c9.66-6.39,14.89-14.59,16.09-25.59h5c26.82,0,53.64-.29,80.44.17,9.15.16,16.67-1.47,21.72-9.65.12-.19.47-.22.85-.39,1.66,3.18,3.92,2.92,6.67,1.29,3.47-2.06,7.09-3.87,11.06-6a31.61,31.61,0,0,0-2.34,12,31.94,31.94,0,0,0,14,26.43c.55.57,1.12,1.15,1.73,1.75ZM288.08,147a11.52,11.52,0,0,1-11.28-11.59,11.39,11.39,0,0,1,11.68-11.13,11.36,11.36,0,0,1-.4,22.72Zm7.7-39.54h-.12l-1.32.18c-.63.08-1.27.17-1.9.28-.86.12-1.71.27-2.57.42l-2.16.41-1,.2-1.61.36-1.18.28-2,.49q-1.1.28-2.2.6-.4.1-.8.23c-.72.2-1.46.42-2.18.66s-1.66.52-2.48.81l-.39.12c-.76.26-1.5.52-2.26.8s-1.6.59-2.4.91-1.78.69-2.66,1.07-1.51.63-2.27,1l-.24.11c-.84.37-1.66.75-2.49,1.14-.68.3-1.35.62-2,1s-1.35.66-2,1-1.26.63-1.88,1l-.17.09-1.94,1-1.65.91-.73.41c-1.18.68-2.37,1.38-3.55,2.09l-2,1.21c.82-17.08,16-34,32.24-36.82,15.65-2.71,38.43,6.56,43.37,18.13a106.49,106.49,0,0,0-13-.81c-.8,0-1.6,0-2.39,0s-1.65,0-2.46.09C300.8,107,298.29,107.2,295.78,107.51Z"/></g></g></svg>