<svg xmlns="http://www.w3.org/2000/svg" viewBox="0 0 960 540"><defs><style>.cls-1{isolation:isolate;}.cls-2{fill:#fff;}.cls-3{fill:#ffcdb2;}.cls-4{fill:#fff8f0;}.cls-4,.cls-40,.cls-5,.cls-6{fill-rule:evenodd;}.cls-5,.cls-9{fill:#e5989b;}.cls-6{fill:#6d6875;}.cls-7{fill:none;}.cls-10,.cls-8{fill:#b5838d;}.cls-9{fill-opacity:0.54;}.cls-10{fill-opacity:0.48;}.cls-11{fill:#333b52;}.cls-12{fill:#c0c2c9;}.cls-12,.cls-15,.cls-16,.cls-18,.cls-20,.cls-21,.cls-22,.cls-24,.cls-28,.cls-31,.cls-32,.cls-35,.cls-39{mix-blend-mode:multiply;}.cls-13{fill:#c23846;}.cls-14{fill:#f7a374;}.cls-15{fill:#dadce0;}.cls-17{fill:#c2c4cb;}.cls-18{fill:#b7bac2;}.cls-19{fill:#c84c58;}.cls-20{fill:#d2d4d9;}.cls-21{fill:#ccced4;}.cls-22{fill:#ebebee;}.cls-23{fill:#117d5d;}.cls-24{fill:#b5b9c1;}.cls-25{fill:#f1cd89;}.cls-26{fill:#fbf1df;}.cls-27{fill:#f5dd7e;}.cls-28{fill:#f6e0b7;}.cls-29{fill:#fcf4e5;}.cls-30{fill:#a5d563;}.cls-31{fill:#d6d8dc;}.cls-32{fill:#f0c87d;}.cls-33{fill:#ecbb5f;}.cls-34{fill:#f5dbaa;}.cls-35{fill:#e0e2e5;}.cls-36{opacity:0.65;}.cls-37{fill:#da8890;}.cls-38{fill:#4b76c2;}.cls-39{fill:#afb3bb;}.cls-40{fill:#b9cae7;}.cls-41{fill:#edbf69;}.cls-42{fill:#2f2f2b;}.cls-43{fill:#ad323f;}</style></defs><g class="cls-1"><g id="BACKGROUND"><rect class="cls-2" width="960" height="540"/></g><g id="OBJECTS"><rect class="cls-3" width="960" height="540"/><path class="cls-4" d="M872.26,540c24-5.4,43.42-30.27,53.07-52.88s10.4-48.21,6.44-72.47c-3.33-20.4-10.11-40.66-22.88-56.92-17.25-22-45.7-37.79-50.24-65.35-3.85-23.34,11.6-47.55,4.6-70.15-6.23-20.12-27.77-31-47.89-37.17a269,269,0,0,0-52.62-10.61l-25.46-2.52c-80.23-6.16-141.68,4.84-201.25,31.81A170.52,170.52,0,0,0,489,236c-13.38,13-23,30.61-23.36,49.26-.3,17.71,7.78,34.73,19,48.46,10.31,12.67,23.89,24.16,26.9,40.22,3.65,19.49-9.66,37.82-23.11,52.39s-28.72,30-30.27,49.8c-1.41,17.89,9.48,35.08,24.1,45.49s32.49,15.11,50.14,18.37Z"/><path class="cls-5" d="M931.77,414.65q-.81-4.95-1.9-9.86v-.06c-.22-1-.45-2-.69-3l0-.09q-.72-3-1.56-5.87l0-.11c-.27-.94-.55-1.87-.84-2.8a2.76,2.76,0,0,0-.08-.27c-.29-.93-.59-1.85-.89-2.77,0,0,0-.08,0-.13-.33-1-.67-2-1-3h0c-.34-.92-.69-1.85-1-2.76H895.88V343.57c-11.18-10.95-23.32-21.28-30.76-33.88H853v39.93h-12.7v-18H799.55V305.7H788.42V290.9H777.57v14.8H766.44v37.93h13.75v25.89H727.45V331.58h-99V271H615V257.67h-4v-8.88h-3.12v-12.2h-2.22v12.2H602.6v8.88h-4V271H584.1v80.81H568.92V327.59H521.14V278.17H491.19v35.28H471.91a93.18,93.18,0,0,0,12.72,20.28c10.31,12.67,23.89,24.16,26.9,40.22a37.11,37.11,0,0,1,.09,12.87c-.07.41-.14.83-.22,1.24v0c-.09.45-.18.89-.28,1.34l0,.09c-.09.39-.18.78-.29,1.17l-.06.26-.3,1.07-.06.22c-.26.85-.54,1.7-.84,2.54,0,.07,0,.14-.07.21l-.39,1c0,.09-.07.19-.11.28l-.42,1.06-.08.18c-.35.82-.71,1.65-1.1,2.47l-.13.27c-.15.32-.31.64-.47.95l-.15.3c-.18.36-.36.72-.55,1.07l-.06.12c-.22.4-.43.81-.66,1.21a2.12,2.12,0,0,0-.11.21l-.55,1-.2.33c-.17.29-.34.59-.52.88l-.18.3a127.29,127.29,0,0,1-15.36,19.72c-13.45,14.56-28.72,30-30.27,49.8-1.41,17.89,9.48,35.08,24.1,45.49s32.49,15.11,50.14,18.37H872.26c24-5.4,43.42-30.27,53.07-52.88S935.73,438.91,931.77,414.65Z"/><path class="cls-6" d="M725.76,477.94q-133.86,0-267.71-.08c-.6,17.27,10.05,33.69,24.2,43.77C496.87,532,514.74,536.74,532.39,540H872.26c24-5.4,43.42-30.27,53.07-52.88q1.92-4.51,3.38-9.17Z"/><path class="cls-7" d="M930.51,407.79H503.06a131.75,131.75,0,0,1-14.64,18.55c-13.45,14.56-28.72,30-30.27,49.8-1.41,17.89,9.48,35.08,24.1,45.49s32.49,15.11,50.14,18.37H872.26c24-5.4,43.42-30.27,53.07-52.88s10.4-48.21,6.44-72.47Q931.21,411.22,930.51,407.79Z"/><path class="cls-7" d="M491.19,278.17h13.35V257.78H526V306.2h7.85V266.76h30.36v25.46h7.33V221.34h25.12V271h1.94V257.67h4v-8.88h3.11v-12.2h2.22v12.2h3.12v8.88h.81V242.31h44v34.44h31.4v35.44h24.61v-59.4h41.87v30.45h26.7V229.83h28.78v91.34H822.8V272.25h36.3c2.69-16.89,9.16-33.87,4.15-50-6.23-20.12-27.77-31-47.89-37.17a269,269,0,0,0-52.62-10.61l-25.46-2.52c-80.23-6.16-141.68,4.84-201.25,31.81A170.52,170.52,0,0,0,489,236c-13.38,13-23,30.61-23.36,49.26a65.76,65.76,0,0,0,6.24,28.18h19.28Z"/><polygon class="cls-8" points="571.55 221.34 571.55 292.22 564.23 292.22 564.23 266.76 533.87 266.76 533.87 306.2 526.02 306.2 526.02 257.78 504.54 257.78 504.54 278.18 521.14 278.18 521.14 327.59 568.92 327.59 568.92 351.83 584.1 351.83 584.1 271.02 596.68 271.02 596.68 221.34 571.55 221.34"/><path class="cls-8" d="M822.8,321.17H809.19V229.83H780.41v53.41h-26.7V252.79H711.84v59.4H687.23V276.75h-31.4V242.31h-44v15.36H615V271h13.44v60.56h99v37.94h52.74V343.63H766.44V305.7h11.13V290.9h10.85v14.8h11.13v25.88h40.71v18H853V309.69h12.16a49.61,49.61,0,0,1-6.47-17.31c-1.1-6.66-.62-13.38.45-20.13H822.8Z"/><path class="cls-8" d="M923.62,384a102.44,102.44,0,0,0-14.73-26.28,150,150,0,0,0-13-14.16V384Z"/><path class="cls-9" d="M901.12,231.85a20.94,20.94,0,0,0-7.37-1.35c-2.51-3.53-8.34-5.89-15-5.89A23.74,23.74,0,0,0,868.1,227c-3.24-4.39-10.68-7.46-19.11-7.46a29.55,29.55,0,0,0-14.69,3.59c-.56-.05-1.12-.08-1.68-.08-6,0-11,2.91-11,6.49a4.29,4.29,0,0,0,.73,2.32Z"/><path class="cls-10" d="M526.42,245.45a19.12,19.12,0,0,0-6.73-1.23c-2.29-3.23-7.62-5.38-13.69-5.38a21.69,21.69,0,0,0-9.75,2.17c-3-4-9.76-6.82-17.46-6.82a27,27,0,0,0-13.42,3.28c-.51,0-1-.07-1.54-.07-5.51,0-10,2.66-10,5.93a3.84,3.84,0,0,0,.67,2.12Z"/><path class="cls-11" d="M627.77,540h67.71c.37-11.16,2.18-60,6.1-61.95,3.71-1.85,16.88,46.15,21.1,61.95h62.38c-.61-18-3.77-107.2-7-118.34-3.53-12.38-149.05,11.5-149.05,11.5s-1.77,42-1.33,66.35C628.07,518.91,627.87,534.31,627.77,540Z"/><path class="cls-12" d="M780.55,443.85c-.78-11-1.61-19.28-2.45-22.19-3.53-12.38-149.05,11.5-149.05,11.5s-.31,7.31-.64,17.6c9,1.27,31.13,3.68,67.87,3.38C741.82,453.78,770.74,446.69,780.55,443.85Z"/><path class="cls-13" d="M609.59,245.18s6.29-30.64,21.94-42.74,42.63-16.09,53.25-17.86,51.75,3.54,61,6.64S771,296.49,774.57,327.45,784.3,433.6,784.3,433.6s-31,10.62-88,11.06c-49.55.38-72.54-4-72.54-4Z"/><path class="cls-14" d="M721.49,165.12s1.77,16.81,1.77,19,7.07,4,7.07,4-8.46,31.09-38.48,27.43S677.34,183.67,675.93,189l-.88-23.45Z"/><path class="cls-15" d="M683.06,189a36.64,36.64,0,0,0,7.69.46c2.62,0,5.24-.2,7.84-.48a66.44,66.44,0,0,0,7.8-1.3,31.22,31.22,0,0,0,6.2-2.23,47.08,47.08,0,0,0,10.27-6.57c-.52-5.69-1.37-13.8-1.37-13.8l-46.44.44.8,21.39A50.35,50.35,0,0,0,683.06,189Z"/><path class="cls-14" d="M662.4,81.28s-9.87,17.55-11,37.83,2.19,36.18,17,46.05,43.86,7.67,52.08,3.29,19.74-35.09,23-48.24-6-37.83-19.18-47.7S671.17,62.64,662.4,81.28Z"/><path class="cls-11" d="M651.31,122.21c1.61-2.41,5.13-8,6.68-13,2.31-7.53,1.19-15.48.39-19.29-2.86,7-6.32,17.68-6.94,29.21C651.38,120.15,651.34,121.18,651.31,122.21Z"/><path class="cls-14" d="M658,128.53s-5.32-14.48-12.72-10-3.14,17.54,3,23.29,14.21,6.4,16.27.65S658,128.53,658,128.53Z"/><g class="cls-16"><path class="cls-17" d="M686.92,122.16a23.84,23.84,0,0,0-.22,5.21,37.63,37.63,0,0,1-.46,5,36.62,36.62,0,0,1-1.11,4.85c-.48,1.62-1.23,3.27-1.08,5,0,.33.42.68.75.43a8.45,8.45,0,0,0,2.55-4.43,39.35,39.35,0,0,0,1.3-5.35,41.42,41.42,0,0,0,.56-5.45,11.89,11.89,0,0,0-.65-5.43.91.91,0,0,0-1.64.22Z"/></g><path class="cls-11" d="M705.4,111.67a24.2,24.2,0,0,1,5.77.06,10.3,10.3,0,0,1,1.22.29l.51.17.33.13.09,0c.54.26.73.34,1.36.61a5.06,5.06,0,0,0,1.3.38l-.67-.18a3.12,3.12,0,0,0,1.42.45.87.87,0,0,0,.86-.85,2.51,2.51,0,0,0-.46-1.4,4.28,4.28,0,0,0-1.34-1.47,8.35,8.35,0,0,0-3.14-1.21,12.43,12.43,0,0,0-3.7-.22,32,32,0,0,0-3.89.7,1.28,1.28,0,0,0,.34,2.5Z"/><path class="cls-11" d="M674.62,107.72a15.6,15.6,0,0,0-6,.59,14.46,14.46,0,0,0-2.88,1.26,7.6,7.6,0,0,0-1.27,1,2.84,2.84,0,0,0-.64.7,3.09,3.09,0,0,0-.28.77,1,1,0,0,0,1,1.28,5.48,5.48,0,0,0,.57,0,3,3,0,0,0,.85-.24c.31-.11.58-.16.89-.3l.39-.17c.46-.19.93-.35,1.38-.56.2-.09.22-.09.06,0l.32-.13.65-.24a25.48,25.48,0,0,1,5-1.33,1.36,1.36,0,0,0,1.32-1.32,1.35,1.35,0,0,0-1.32-1.32Z"/><path class="cls-11" d="M735.38,131.52a40.15,40.15,0,0,1,6.81-5c1-.64,2.34-.86,3.18-1.72,4.61-4.76,8-18.09,5.86-26-2-7.31-8.84-16-17.33-12a1.51,1.51,0,0,0-.72,1.93.76.76,0,0,0-.18.21c-7.51,12.3-6.27,28.93,1.36,40.93A15,15,0,0,0,735.38,131.52Z"/><path class="cls-18" d="M751.23,98.87c-2-7.31-8.84-16-17.33-12a1.51,1.51,0,0,0-.72,1.93.76.76,0,0,0-.18.21,34.74,34.74,0,0,0-4.75,14.14c.87.43,1.74.87,2.6,1.33a27.39,27.39,0,0,1,9,7,19.49,19.49,0,0,1,4.07,11.32,25.71,25.71,0,0,1-.08,2.91,4.58,4.58,0,0,0,1.54-1C750,120.07,753.32,106.74,751.23,98.87Z"/><path class="cls-19" d="M751.07,114.18S761.15,79,732.3,58.81c-29-20.33-57.84-2.47-66.34,6.3s-12.33,22.2-12.33,22.2,30.7-4.38,52.63,1.1S751.07,114.18,751.07,114.18Z"/><path class="cls-20" d="M732.3,58.81a57.43,57.43,0,0,0-5.17-3.22,55.8,55.8,0,0,1,1.79,11.35c.34,5.77-.11,11.94-3.5,16.61-2.82,3.91-7.34,6.18-12,7.15,19.47,7.39,37.63,23.48,37.63,23.48S761.15,79,732.3,58.81Z"/><path class="cls-13" d="M735.59,99.65s-26.32-18.91-59.48-18.37S630,92.8,628.36,98.83s7.61,9.9,31.46,11.27,43.15.79,53.29-1.68S735.59,99.65,735.59,99.65Z"/><path class="cls-21" d="M720,99.58c-13.15,4.72-26.32,6.07-40.29,6-15-.11-27.68.06-42-4.52-5.12-1.64-7-3.56-7.45-5.33a8.3,8.3,0,0,0-1.94,3.14c-1.65,6,7.61,9.9,31.46,11.27s43.15.79,53.29-1.68,22.48-8.77,22.48-8.77-2.26-1.62-6.26-3.89C726.73,97.45,722.9,98.55,720,99.58Z"/><path class="cls-2" d="M731.23,152.37c-1.6-4.6-3.37-10.2-6.88-13.6-4.94-4.77-15.1-2-21.29-1.42-8.33.8-16.89.19-25.17-.77A69,69,0,0,1,659.25,132c-1.53-.12-3.1.1-4,1.19-2.68,3.27-2.37,9.31-2,13.17,1,10,4.61,18.26,12.48,24.62a48.27,48.27,0,0,0,25.67,10.25,58.56,58.56,0,0,0,9.91.11c9.23-.65,20.4-4.44,26.23-12.65C731.07,163.72,733.11,157.78,731.23,152.37Z"/><path class="cls-2" d="M718.88,138.46c.63-.28,1.25-.5,1.87-.81s1.19-.64,1.78-1c1.09-.61,2.15-1.29,3.21-1.94,2.19-1.33,4.34-2.7,6.49-4.07,1.1-.7,2.2-1.4,3.29-2.12a16.11,16.11,0,0,1,2.81-1.64,4.87,4.87,0,0,1,2.39-.38c.75,0,1.62.72,2.52.73a1.24,1.24,0,0,0,1.22-1.22c.07-1.4-1.35-2.23-2.49-2.66a6.24,6.24,0,0,0-3.58-.13c-2.51.58-4.7,2.34-6.77,3.78-2.3,1.61-4.62,3.19-6.89,4.84-1.18.86-2.4,1.69-3.55,2.59-.53.41-1,.83-1.56,1.25s-1.1,1-1.65,1.57.17,1.5.91,1.18Z"/><path class="cls-2" d="M725.18,159.32a19,19,0,0,0,7.18-1.57A25.55,25.55,0,0,0,739,154a18.51,18.51,0,0,0,4.3-4.74c1.15-1.83,2.35-4.4,1.5-6.53a1.3,1.3,0,0,0-2-.32,9.25,9.25,0,0,0-1.41,2.74,18.18,18.18,0,0,1-1.22,2.29,17.06,17.06,0,0,1-3.65,4.08,26.65,26.65,0,0,1-5.53,3.35c-1,.51-2.07,1-3.11,1.45a21,21,0,0,0-3,1.51.8.8,0,0,0,.35,1.48Z"/><path class="cls-14" d="M749.73,126.37c-7.4-4.52-15.63,7.4-15.63,7.4a33,33,0,0,0-5,6.36c.23.47.46.94.67,1.41,1.23,2.73.22,4,.7,7,0,0,0,.12,0,.24.19.3.38.59.55.9a5.07,5.07,0,0,1,.34.75,1.78,1.78,0,0,1,.1.44c5.29-.16,14-3.18,17.89-6.82C755.48,138.29,757.13,130.89,749.73,126.37Z"/><path class="cls-2" d="M649.77,118.08a23.39,23.39,0,0,1,4.38,7.7,35,35,0,0,1,1.25,4.94,21.47,21.47,0,0,0,.57,2.62,3.79,3.79,0,0,0,1.17,2.22.77.77,0,0,0,.93-.05,3.63,3.63,0,0,0,.77-2.47,12.72,12.72,0,0,0-.22-2.95,25.88,25.88,0,0,0-1.54-5.54,15.06,15.06,0,0,0-6.28-7.62c-.73-.42-1.65.45-1,1.15Z"/><path class="cls-2" d="M658.94,143.62c-1.39.17-2.75.47-4.16.52a14.82,14.82,0,0,1-3.87-.31c-.53-.12-1-.27-1.58-.43h0a2,2,0,0,0-.3.71,2.92,2.92,0,0,0,.23,1.74c.37.12.75.22,1.13.31a15.56,15.56,0,0,0,4.51.42,6.88,6.88,0,0,0,4.59-1.61C659.92,144.53,659.65,143.54,658.94,143.62Z"/><path class="cls-22" d="M731.23,152.37c-1.6-4.6-3.37-10.2-6.88-13.6a8.06,8.06,0,0,0-1.92-1.36,28.28,28.28,0,0,1,.21,5,27.55,27.55,0,0,1-1.1,6.3c-1.89,6.59-5.09,12.92-10.37,17.43-5.09,4.36-11.53,6.56-18.08,7.55a58.3,58.3,0,0,1-20.45-.4,39.8,39.8,0,0,1-6.07-1.72,48.46,48.46,0,0,0,24.84,9.61,58.56,58.56,0,0,0,9.91.11c9.23-.65,20.4-4.44,26.23-12.65C731.07,163.72,733.11,157.78,731.23,152.37Z"/><path class="cls-11" d="M708.35,122.23a5.6,5.6,0,0,1,3.14,5.32c-.07,1.09-.38,2.57.28,3.54a1.29,1.29,0,0,0,1.34.56,2.06,2.06,0,0,0,1-1.16,10.3,10.3,0,0,0,.33-3.83,10.93,10.93,0,0,0-.54-2.89c-1.14-3.09-3.86-4.61-7-4.8a6.53,6.53,0,0,0-5.77,2.84,11.61,11.61,0,0,0-1.66,3.25,18.16,18.16,0,0,0-.66,4.53.93.93,0,0,0,1.81.25,24.59,24.59,0,0,1,1.16-3.93c.77-1.91,2.33-3.77,4.51-4A4.18,4.18,0,0,1,708.35,122.23Z"/><path class="cls-11" d="M673.46,119.55a5.72,5.72,0,0,1,2.78,5.32c-.06,1.1-.33,2.57.25,3.54a1.09,1.09,0,0,0,1.19.56,2,2,0,0,0,.88-1.16,11.45,11.45,0,0,0,.28-3.83,11.71,11.71,0,0,0-.47-2.89,6.68,6.68,0,0,0-6.24-4.79,5.56,5.56,0,0,0-5.11,2.83,12,12,0,0,0-1.47,3.25,20.23,20.23,0,0,0-.59,4.53.81.81,0,0,0,1.6.25,28.57,28.57,0,0,1,1-3.92c.68-1.92,2.07-3.77,4-4A3.32,3.32,0,0,1,673.46,119.55Z"/><path class="cls-23" d="M666.2,242.08s12-29,18.36-37.37c6.19-8.18,13.49-8.4,14.37-1.77s-9.73,36.49-12.6,41.8-9.07,10.39-14.16,9.73S666.2,242.08,666.2,242.08Z"/><path class="cls-24" d="M677,230.14c.15-5,5.84-19.23,9.38-27.63a26.48,26.48,0,0,0-1.86,2.2c-6.34,8.38-18.36,37.37-18.36,37.37s.89,11.72,6,12.39,11.28-4.42,14.16-9.73c.54-1,1.36-2.89,2.33-5.32C684.69,239.38,676.86,236,677,230.14Z"/><path class="cls-25" d="M675.05,245.77s15.26-7.22,15.7-8.11-.22-3.54-.22-3.54,5.75,2.88,7.52,12.17,0,45.77-.67,56.17-.44,60.37.89,69.44.88,24.77.66,29-15.48,16.15-23,15.92-8.62-55.5-8-66.56-1.55-29.86-2.65-36.27S675.05,245.77,675.05,245.77Z"/><path class="cls-26" d="M675.05,245.77s-.16.9-.43,2.48a29.3,29.3,0,0,0,4.2-1.14A33.72,33.72,0,0,0,689,241.59a15.9,15.9,0,0,0,3.55-3.86,8.46,8.46,0,0,0,.71-1.41,11.1,11.1,0,0,0-2.72-2.2s.66,2.66.22,3.54S675.05,245.77,675.05,245.77Z"/><path class="cls-15" d="M675.05,245.77s15.26-7.22,15.7-8.11-.22-3.54-.22-3.54,5.75,2.88,7.52,12.17,0,45.77-.67,56.17-.44,60.37.89,69.44.88,24.77.66,29-15.48,16.15-23,15.92-8.62-55.5-8-66.56-1.55-29.86-2.65-36.27S675.05,245.77,675.05,245.77Z"/><path class="cls-27" d="M636,248.92s2.46-59.84,4.51-61.45,30-1.71,31.88,0-3.59,60.15-5.84,61.19S636,248.92,636,248.92Z"/><path class="cls-28" d="M642.42,242.06c-3.47-2.11.6-37.6,1.4-48.2.28-3.63,1.34-5.9,2.61-7.33-3.12.21-5.4.53-5.93.94-2,1.61-4.51,61.45-4.51,61.45s28.3.77,30.55-.27c.37-.18.83-1.92,1.33-4.72C660.5,243.91,645.05,243.65,642.42,242.06Z"/><path class="cls-29" d="M665.65,190.93c-.07,1.06-.19,2.11-.28,3.17s-.06,2.12-.08,3.17c0,2.16,0,4.32-.1,6.48s-.15,4.23-.26,6.35a31.42,31.42,0,0,0,0,3.22,16.46,16.46,0,0,0,.66,3.1.46.46,0,0,0,.84.11,14.79,14.79,0,0,0,1.17-2.9,23,23,0,0,0,.48-3.4c.14-2.15.18-4.32.2-6.48s0-4.32-.14-6.48c-.07-1.08-.13-2.18-.29-3.25s-.43-2.21-.64-3.31c-.18-.94-1.53-.64-1.59.22Z"/><path class="cls-29" d="M664.16,220.71c0,.78-.07,1.56-.08,2.34,0,.18,0,.37,0,.56a2.89,2.89,0,0,0,0,.29c0,.1,0,.11,0,0a2.6,2.6,0,0,1,0,.26,4.77,4.77,0,0,0,.15.54s0,0,0,0l0,.17a1.59,1.59,0,0,0,.33.58.47.47,0,0,0,.66,0,1.46,1.46,0,0,0,.33-.58s0-.24,0-.14l.12-.26a1.06,1.06,0,0,0,.05-.31l0-.26c0,.1,0,.09,0,0l0-.25c0-.19,0-.4,0-.6,0-.78-.05-1.56-.08-2.34a.86.86,0,0,0-1.72,0Z"/><path class="cls-30" d="M602.51,214.22c-.44,0-9.73-5.9-12.83-14-2.54-6.65-2.36-12.82,2.66-14.45s8.4-3.09,6-7.52S587.32,167,592,160.4s17.69-7.66,21.67.89,4.13,10,7.08,9.44,9.58-6,14.6-.15,2.36,15.48.29,18.87-4.13,6-2.36,9,4.57,5.16,2.95,11.36-6.63,12.53-10.32,13.71S602.51,214.22,602.51,214.22Z"/><path class="cls-23" d="M605.55,172.46c3,5.65,3.46,12.2,4.23,18.42.82,6.72,1.83,13.42,2.49,20.15.19,1.92.36,3.85.52,5.77l.21,2.89a17.51,17.51,0,0,0,.26,2.71c.07.35.55.24.59-.08a29.93,29.93,0,0,0-.28-5.26c-.13-1.7-.28-3.41-.44-5.11-.33-3.45-.63-6.91-1-10.35s-.79-6.71-1.26-10.06c-.44-3.2-.83-6.42-1.48-9.59A35.39,35.39,0,0,0,606,172.2c-.16-.3-.61,0-.46.26Z"/><path class="cls-23" d="M614.34,218c2.3-10.63,4.43-21.48,9.94-31q1.14-1.95,2.37-3.86a40.4,40.4,0,0,0,2.49-4.08c.12-.26-.21-.57-.43-.33a42.07,42.07,0,0,0-4.48,6.93,72.23,72.23,0,0,0-3.73,7.47,96.89,96.89,0,0,0-4.93,15.52c-.72,3-1.31,6.11-1.9,9.17-.09.44.58.63.67.19Z"/><path class="cls-23" d="M608.73,211.31a25.14,25.14,0,0,1-1.48-5,19.31,19.31,0,0,0-1.49-4.12c-1.29-2.57-3-5.37-5.54-6.83a.3.3,0,0,0-.4.41c.77,1.16,1.67,2.18,2.54,3.27a25.08,25.08,0,0,1,2.47,3.81,32.76,32.76,0,0,1,1.87,4.09,39.82,39.82,0,0,0,1.68,4.62c.12.24.47,0,.35-.21Z"/><path class="cls-23" d="M619.82,218a61.58,61.58,0,0,1,5.69-8c1-1.22,2.07-2.39,3.17-3.53l1.71-1.74a8.79,8.79,0,0,0,1.57-1.82c.17-.29-.16-.54-.43-.42a7.54,7.54,0,0,0-1.95,1.43c-.6.54-1.18,1.12-1.74,1.7-1.15,1.21-2.24,2.47-3.28,3.76a59.11,59.11,0,0,0-5.46,8.21.42.42,0,0,0,.72.43Z"/><path class="cls-31" d="M602.51,214.22c-.44,0-9.73-5.9-12.83-14-2.54-6.65-2.36-12.82,2.66-14.45s8.4-3.09,6-7.52S587.32,167,592,160.4s17.69-7.66,21.67.89,4.13,10,7.08,9.44,9.58-6,14.6-.15,2.36,15.48.29,18.87-4.13,6-2.36,9,4.57,5.16,2.95,11.36-6.63,12.53-10.32,13.71S602.51,214.22,602.51,214.22Z"/><path class="cls-31" d="M592,160.4c-4.72,6.64,4,13.42,6.34,17.84,1.38,2.59.79,4.17-.94,5.36a6.19,6.19,0,0,0,1.61-.85,5.65,5.65,0,0,0,1.67-5.69,13.68,13.68,0,0,0-3-5.4,29.6,29.6,0,0,1-3.7-5,10.24,10.24,0,0,1-.78-7.59A11.52,11.52,0,0,0,592,160.4Z"/><path class="cls-31" d="M598.55,206.08c-4.41-4.78-8-10.92-7.52-17.41a5.1,5.1,0,0,1,.57-2.28,4,4,0,0,1,.34-.47c-4.61,1.83-4.73,7.83-2.26,14.29,3.1,8.11,12.39,14,12.83,14,0,0,4.54,2.4,9.67,4.78C607.9,214.43,602.8,210.68,598.55,206.08Z"/><path class="cls-31" d="M634.65,204.5a9.3,9.3,0,0,1,2,3.17c.53-4.63-1.81-6.64-3.36-9.23-1.77-2.95.3-5.6,2.36-9a20.68,20.68,0,0,0,2.41-7.58,14.87,14.87,0,0,1-2.58,4.8c-1.45,1.78-3.31,3.22-4.55,5.15-1.79,2.79-2,6.72,0,9.33A48.46,48.46,0,0,0,634.65,204.5Z"/><path class="cls-31" d="M620.79,170.73c-2.95.58-3.1-.89-7.08-9.44a10,10,0,0,0-2.68-3.5,10.28,10.28,0,0,1,.55,1.28c1.22,3.42,1,7.19,2.17,10.64.67,2.07,2.17,4.21,4.34,4.31s4-2.06,5.57-3.72a13.13,13.13,0,0,1,1.58-1.38A37.6,37.6,0,0,1,620.79,170.73Z"/><path class="cls-14" d="M578,245.47s2.44-32.5,25.14-39,28.83,9.21,30.89,18.06,1.77,25.06,1.77,25.06Z"/><path class="cls-32" d="M614.75,238.55c-2.22-4.43-2.22-14.6-8-20.79s-10.46-3.69-11.5-4.57c-.46-.4-.12-1.81.4-3.24C579.91,220.48,578,245.47,578,245.47l57.8,4.13s0-2.63,0-6.36C632.17,243.14,616.7,242.45,614.75,238.55Z"/><path class="cls-33" d="M542.8,250.93s-13.94-34.5-19.24-61,1.1-37.82,10-32.29,24.77,48.44,30.74,64.58,9.29,27.64,6.63,29.19S542.8,250.93,542.8,250.93Z"/><path class="cls-34" d="M535.81,186a91.61,91.61,0,0,0-3,8.83A72.53,72.53,0,0,0,531,205.87c-.22,2.1-.37,4.39.74,6.19a1.68,1.68,0,0,0,1,.87c.78.17,1.44-.58,1.85-1.27a38,38,0,0,0,2.34-5c2.32-5.71,4.66-11.5,5.75-17.6.39-2.15,2.33-14.13-3.12-11.11C537.36,179.15,536.63,183.76,535.81,186Z"/><path class="cls-34" d="M543.72,205.2a89,89,0,0,0-3,8.83,72.74,72.74,0,0,0-1.86,11.09c-.22,2.1-.37,4.39.73,6.19a1.72,1.72,0,0,0,1,.87c.78.17,1.44-.58,1.85-1.27a36.75,36.75,0,0,0,2.33-5c2.33-5.71,4.67-11.5,5.76-17.6.39-2.15,2.33-14.13-3.13-11.11C545.27,198.4,544.54,203,543.72,205.2Z"/><path class="cls-34" d="M553.25,223.74a90.51,90.51,0,0,0-3,8.82,72.72,72.72,0,0,0-1.85,11.09c-.23,2.11-.38,4.39.73,6.19a1.68,1.68,0,0,0,1,.87c.79.17,1.45-.58,1.86-1.27a36.75,36.75,0,0,0,2.33-5c2.32-5.71,4.66-11.5,5.76-17.6.38-2.15,2.33-14.13-3.13-11.11C554.81,216.93,554.08,221.55,553.25,223.74Z"/><path class="cls-35" d="M523.56,189.89c5.3,26.54,19.24,61,19.24,61s25.43,2,28.08.44c1.56-.91,1.06-5.25-.82-11.94-5.19.31-20.46.24-29.18-10.17-8-9.53-15.12-33.06-18.18-44.15C522.94,186.64,523.23,188.24,523.56,189.89Z"/><path class="cls-23" d="M566.9,229.7s-14.15-38.7-17.47-51.09-3.54-15-3.54-15a16,16,0,0,1,6.42-4c3.76-1.1,5.3.45,5.53,2.44s5.3,31,8,40,8.62,25.65,8.62,25.65Z"/><g class="cls-36"><path class="cls-30" d="M554.13,161.59a118.8,118.8,0,0,0,2.1,15.14c.5,2.51,1,5,1.56,7.51.29,1.27.64,2.51,1,3.76a22.44,22.44,0,0,0,1,3.55.14.14,0,0,0,.26-.07,27.79,27.79,0,0,0-.85-3.58c-.27-1.28-.51-2.55-.8-3.83-.55-2.45-1.07-4.91-1.5-7.39-.86-5-1.56-10.1-2.26-15.16,0-.27-.51-.21-.49.07Z"/></g><g class="cls-36"><path class="cls-30" d="M560.83,196.74c.18.8.39,1.59.64,2.36a8.31,8.31,0,0,0,.94,2.23.17.17,0,0,0,.31-.13,20.26,20.26,0,0,0-.78-2.27c-.25-.76-.47-1.53-.65-2.32-.07-.29-.52-.17-.46.13Z"/></g><path class="cls-31" d="M561.52,207.73c-6.08-12.41-11.56-37.67-13.29-46.12a16.21,16.21,0,0,0-2.34,2s.22,2.66,3.54,15S566.9,229.7,566.9,229.7l7.52-2-1.1-3.08A60.23,60.23,0,0,1,561.52,207.73Z"/><path class="cls-23" d="M576,227.05s-6.86-22.12-10.17-41.8-4.87-31-3.54-33.62.88-.66,3.76-.88,6-1.11,6.63,1.1,3.76,31.63,4.43,43.79,5.08,31.18,5.08,31.18Z"/><g class="cls-36"><path class="cls-30" d="M569.24,152.44A67.36,67.36,0,0,0,570,163c.31,1.71.63,3.41.89,5.12.15,1,.24,1.94.3,2.93a5.3,5.3,0,0,0,.45,2.31.23.23,0,0,0,.42-.05,5.19,5.19,0,0,0-.24-2.21,26.09,26.09,0,0,1-.55-2.77c-.22-1.76-.34-3.53-.42-5.31-.15-3.54-.73-7-1.09-10.55,0-.29-.48-.31-.48,0Z"/></g><g class="cls-36"><path class="cls-30" d="M572.56,180.89c.33,2.56.66,5.11,1,7.66.18,1.3.37,2.61.58,3.91a25.16,25.16,0,0,0,.79,3.84.22.22,0,0,0,.42-.06,21.36,21.36,0,0,0-.26-3.91c-.16-1.26-.35-2.52-.56-3.78-.45-2.59-1-5.15-1.58-7.71-.06-.23-.44-.18-.41,0Z"/></g><path class="cls-31" d="M576.27,218.2c-2.95-4.87-4.87-16.66-7.52-35.68-2-14.18-3.3-26.47-3.85-31.81-1.65-.25-1.52-1.32-2.64.92-1.33,2.66.22,13.93,3.54,33.62S576,227.05,576,227.05l6.19-.23s-.48-2.06-1.14-5.25A7.21,7.21,0,0,1,576.27,218.2Z"/><path class="cls-23" d="M583.05,225.5s-1.55-11.95-2.88-23.67-1.55-30.07-.66-31.84,3.32.44,5.09.22.66,5.31,1.1,17.25,4.42,36,4.2,37.59S583.05,225.5,583.05,225.5Z"/><g class="cls-36"><path class="cls-30" d="M582.76,171.9a90.74,90.74,0,0,0,.2,11.66c.13,1.89.3,3.76.6,5.64.16,1,.28,2,.4,2.94a13.11,13.11,0,0,0,.46,2.79.1.1,0,0,0,.19,0,15.67,15.67,0,0,0-.21-2.9c-.1-1-.18-1.93-.2-2.9,0-1.9-.19-3.79-.29-5.68-.21-3.84-.31-7.69-.53-11.53a.31.31,0,0,0-.62,0Z"/></g><g class="cls-36"><path class="cls-30" d="M584.44,198.15a42.74,42.74,0,0,0,1.1,8.14c0,.12.22.1.21,0-.21-2.72-.66-5.41-1-8.12,0-.2-.34-.21-.33,0Z"/></g><path class="cls-31" d="M584.52,213.63c-2.21-5.31-3.09-14.16-3.39-25.36a151.77,151.77,0,0,1,.7-18.71c-1-.33-1.86-.49-2.32.43-.89,1.77-.66,20.12.66,31.84s2.88,23.67,2.88,23.67,6.63,1.1,6.85-.45a40.32,40.32,0,0,0-.51-5A14.59,14.59,0,0,1,584.52,213.63Z"/><path class="cls-13" d="M568.23,252.7s-6.41-11.28-6-20.35,2.65-13.71,7.3-11.94a27.74,27.74,0,0,1,7.29,4s.45-8.84,6.42-8.84,7.3,5.75,7.3,5.75,5.53-9.74,11.5-4.65,8.4,12.83,7.29,21.45-5.75,18.14-6.85,18.14S568.23,252.7,568.23,252.7Z"/><path class="cls-35" d="M608.8,241.34l-39.32-.14a32.84,32.84,0,0,1-3.09-8.26c-.95-3.79.13-9.76.83-12.86-3.07.44-4.6,4.89-5,12.27-.44,9.07,6,20.35,6,20.35s33.17,3.54,34.28,3.54S607.16,248.94,608.8,241.34Z"/><path class="cls-37" d="M598.21,220.67a8.21,8.21,0,0,1,3.23,3.89,20.94,20.94,0,0,1,1.06,2.56c.15.44.3.89.46,1.33s.24,1.11.77,1.46l-.4-.53a1.62,1.62,0,0,0,.27.73.56.56,0,0,0,.75.2,1.38,1.38,0,0,0,.6-.72l-.32.32c.57-.27.68-1,.76-1.54a4.87,4.87,0,0,0-.13-2,15.32,15.32,0,0,0-1.45-3.29,7.83,7.83,0,0,0-5-3.84.79.79,0,0,0-.61,1.44Z"/><path class="cls-37" d="M584.2,222.06l.57.51a.86.86,0,0,0,.18.14l.08,0a1.19,1.19,0,0,1,.15.09l.09,0a.6.6,0,0,0,.29.08l.14,0a.41.41,0,0,0,.26-.11.35.35,0,0,0,.1-.26v-.13a.61.61,0,0,0-.08-.3.35.35,0,0,0-.05-.08,1.19,1.19,0,0,1-.09-.15.2.2,0,0,0,0-.08.85.85,0,0,0-.14-.19c-.17-.2-.34-.38-.51-.57a.68.68,0,0,0-.94,0,.65.65,0,0,0,0,.94Z"/><path class="cls-37" d="M570.31,224.44a2.91,2.91,0,0,0,.37.33c.07,0,.16.14.32.25l.32.23c-.12-.1,0,0,.07.05l.16.14c.21.18.42.37.61.56s.19.19.27.29l.15.17s.19.21,0,0a4.87,4.87,0,0,1,.47.65,6.31,6.31,0,0,1,.42.76c.06.12.11.25.17.36l.08.17c0,.1,0,.09,0,0a2.44,2.44,0,0,1,.1.24,1.74,1.74,0,0,0,.1.19c.06.11.16.2.22.3l-.07-.06a.66.66,0,0,0,.17.24l.17.13c-.17-.18-.22-.21-.14-.09a.75.75,0,0,0,.84.34.76.76,0,0,0,.54-.71c0-.15,0-.1,0,.15l.09-.21a.76.76,0,0,0,0-.3c0,.12,0,.14,0,.08s0-.66,0-.8a4.24,4.24,0,0,0-.4-1,6.19,6.19,0,0,0-1.13-1.6,5.85,5.85,0,0,0-1.54-1.18,3.36,3.36,0,0,0-1.92-.51.51.51,0,0,0-.36.86Z"/><path class="cls-38" d="M635.1,250h23.24c4.48,0,9,0,13.45,0-.11-3.19-.84-12.4-5.89-14.83a39.59,39.59,0,0,0-10.15-3.53v-8.26h-16.1v8.26a39.57,39.57,0,0,0-10.16,3.53c-5.11,2.46-5.8,11.86-5.89,14.94C627.43,250,631.27,250,635.1,250Z"/><path class="cls-35" d="M658.34,250c4.48,0,9,0,13.45,0a35.43,35.43,0,0,0-1-7.31H628.31a15.2,15.2,0,0,1,.59-4.12,12.16,12.16,0,0,1,2.79-4.39c-.69.29-1.43.63-2.2,1-5.11,2.46-5.8,11.86-5.89,14.94,3.83-.12,7.67-.08,11.5-.08Z"/><path class="cls-39" d="M655.75,228.74v-5.38h-16.1V229a28,28,0,0,0,8.31,1.29A25.72,25.72,0,0,0,655.75,228.74Z"/><path class="cls-40" d="M638.45,227s-2-9,1.1-11.22,15.6-1.58,17,.44c1.88,2.65,0,10.78,0,10.78a37.39,37.39,0,0,1-9.18,1.07A54.92,54.92,0,0,1,638.45,227Z"/><path class="cls-2" d="M639.65,217.43a35.74,35.74,0,0,0,8.38.76,41.06,41.06,0,0,0,4.15-.23c.91-.09,2.54-.08,3.11-.9.12-.18,0-.37-.23-.39a6.13,6.13,0,0,0-1.6.35c-.59.11-1.2.16-1.79.22-1.3.11-2.6.16-3.9.16a58.21,58.21,0,0,1-7.9-.77c-.51-.07-.75.67-.22.8Z"/><path class="cls-25" d="M676.67,407.75c-.77-5.07-2.28-10.17-3-15-.76-5.43-.07-10.95.24-16.39a108.74,108.74,0,0,0-.14-17.59c-.35-3.27-1-6.5-1.28-9.79s-.4-6.59-.39-9.89c0-6.68.47-13.36.74-20,.24-6,.56-12,1.16-18s1.34-12.25,1.9-18.39c.24-2.67.46-5.35.62-8,0-.76,0-1.35,0-1.76-.23-8.46-1-20.47-1.34-25.15-.09-.4-.17-.81-.26-1.21a.13.13,0,0,1,.17-.15c0-.37,0-.59,0-.62s-33.62-.3-45.71-.3-47.47-.59-59-1.17-31.26-.59-31.85.88-7.67,23.59-5,40.4,5.31,34.2,5,40.39,0,31-2.06,43.06-4.5,40.91,5.6,43.34c3.82.92,51.9,5,75.78,5.6s56,.3,58.09-1.18C676.25,416.57,676.49,413.24,676.67,407.75Z"/><path class="cls-41" d="M674,375a108.61,108.61,0,0,0-.14-17.58c-.35-3.28-1-6.51-1.28-9.8s-.4-6.58-.39-9.88c0-6.69.47-13.37.74-20.05.24-6,.56-12,1.16-17.95s1.34-12.25,1.9-18.39c.24-2.67.46-5.35.62-8,0-.76,0-1.36,0-1.77-.23-8.4-1-20.29-1.34-25h-.32c-.72,0-1.44,0-2.16-.07a61.21,61.21,0,0,1,1,6.39c.43,12.23-.66,24.46-1.75,36.64q-2.06,22.78-4.09,45.57a7.07,7.07,0,0,1-1,3.69,6.84,6.84,0,0,1-3.15,2,110.1,110.1,0,0,1-47.78,6.94c14.65,5.6,30.85,5.5,46.48,4,3.08,2.41,2.92,7.47.49,10.55s-6.39,4.49-10.25,5.16c-2.75.47-6.41,1.63-6.12,4.4,6.8-.44,14.85-.32,18.81,5.22,1.63,2.3,2.23,5.15,2.79,7.92l2.77,13.75a12.78,12.78,0,0,1,.26,5.92c-1.52,5.55-9,6.4-14.71,6.12l-32.63-1.6-42.25-2.07c-8.55-.42-17.26-.87-25.24-3.95-3.86-1.5-7.6-3.7-9.95-7.11s-3-8.22-.74-11.69c3-4.58,9.28-5.2,14.71-5.71a127.7,127.7,0,0,0,35.89-8.73,151.74,151.74,0,0,1-31,.43c-4.76-.42-10.2-1.51-12.51-5.7-2.49-4.49-.42-11.11-4.32-14.44L567,341.93c-6.61.74-14.58.92-18.44-4.49-4.53-6.34.07-15.31-1.77-22.89-.71-2.94-2.38-5.53-3.78-8.21a51.17,51.17,0,0,1-5.81-21.54,99.85,99.85,0,0,1,.38-11.6q1.07-14.93,2.12-29.85c-.67.14-1.08.31-1.16.5-.59,1.48-7.67,23.59-5,40.4s5.31,34.21,5,40.4,0,31-2.06,43.05-4.5,40.91,5.6,43.34c3.82.93,51.9,5,75.78,5.61s56,.29,58.09-1.18c.32-.23.56-3.55.74-9.05-.77-5.07-2.28-10.17-3-15C673,386,673.64,380.46,674,375Z"/><path class="cls-26" d="M675.05,245.77s-33.62-.3-45.71-.3-47.47-.59-59-1.17-31.26-.59-31.85.88c-.07.19-.26.72-.51,1.52l137.19,1.4C675.11,246.69,675.05,245.84,675.05,245.77Z"/><path class="cls-42" d="M558.32,327.4a9.72,9.72,0,0,0-3.36-1.9c-2.84-1.24-6.94-1.41-12.11-.19.86-.37,2.82-1.43,3.7-1.69a32.48,32.48,0,0,1,5.16-1c1.7-.21,3.7-.36,5.19-1.31a3.13,3.13,0,0,0,1-4.13c-.81-1.6-2.75-2.18-4.35-2.66a18.46,18.46,0,0,0-11.72.57,21.05,21.05,0,0,0-3.69,2,22.21,22.21,0,0,1,3.68-2.52c3.1-1.67,8-2.17,9.21-6.09a2.43,2.43,0,0,0,0-1.74,3.71,3.71,0,0,0-1.74-1.6c-3.06-1.51-6.85-.81-9.92.33a20.62,20.62,0,0,0-5.2,2.79c-4,3.53-6.56,9-5.16,14.31a7.25,7.25,0,0,1,.41,2.57,13.51,13.51,0,0,1-.74,2.55,3.89,3.89,0,0,0,.53,4c.51.57,1.21.94,1.45,1.71a5,5,0,0,1,.12,2,7.63,7.63,0,0,0,.14,3.8c.37.83,1.06,1.08,1.62,1.72s.11,1.74,0,2.55a9.88,9.88,0,0,0,.59,4.17c.85,2.45,2.71,5.38,5.63,5.28l.11-.15c.35-.74.73-1.46,1.13-2.15.11-.22.21-.44.33-.64a16.16,16.16,0,0,1,1.51-2.23,19.13,19.13,0,0,1,2.75-2.63,19.87,19.87,0,0,1,5.71-2.46,21,21,0,0,0,5.38-2.3,5.11,5.11,0,0,0,1.71-1.72c.44-2.93-3.81-3.56-6-3.84-1.78-.22-3.46-.34-7.33.89-.18.06-.28-.2-.13-.3a22.44,22.44,0,0,1,4.22-2.17,30.51,30.51,0,0,1,5.13-.95,21.43,21.43,0,0,1,2.26-.27,8.22,8.22,0,0,0,2-.27,2.53,2.53,0,0,0,1.76-2.3A3.46,3.46,0,0,0,558.32,327.4Z"/><path class="cls-12" d="M557.87,317.16a3.13,3.13,0,0,1-1,4.13c-1.49.95-3.49,1.1-5.19,1.31a32.48,32.48,0,0,0-5.16,1c-.88.26-2.84,1.32-3.7,1.69,5.17-1.22,9.27-1.05,12.11.19l.11.05a.86.86,0,0,1-.11-.24c-.21-.78.72-1.77,1.46-2.1a4.67,4.67,0,0,0,2.89-2.78,3.85,3.85,0,0,0-1.53-3.73l-.54-.39A3.29,3.29,0,0,1,557.87,317.16Z"/><path class="cls-12" d="M549.21,305.08a3.71,3.71,0,0,1,1.74,1.6,2.43,2.43,0,0,1,0,1.74c-1.22,3.92-6.11,4.42-9.21,6.09a22.21,22.21,0,0,0-3.68,2.52,21.05,21.05,0,0,1,3.69-2,18.39,18.39,0,0,1,11.24-.68,2.3,2.3,0,0,1-1.3-1.55c-.2-1.25.73-2.44.59-3.75a6,6,0,0,0-1.5-3.19,3.93,3.93,0,0,0-3.54-1.47A8.36,8.36,0,0,1,549.21,305.08Z"/><path class="cls-12" d="M559.94,329.08a3.92,3.92,0,0,0-2.34-2.29,4.65,4.65,0,0,1,.72.61,3.46,3.46,0,0,1,.89,1.9,2.53,2.53,0,0,1-1.76,2.3,8.22,8.22,0,0,1-2,.27,21.43,21.43,0,0,0-2.26.27,30.51,30.51,0,0,0-5.13.95,22.44,22.44,0,0,0-4.22,2.17c-.15.1-.05.36.13.3,3.87-1.23,5.55-1.11,7.33-.89a18.1,18.1,0,0,1,3.25.65,5.29,5.29,0,0,1,1.24-1.16,18.77,18.77,0,0,0,3-2.19C559.7,331.08,560.3,330.27,559.94,329.08Z"/><path class="cls-12" d="M557.3,337.51a2.36,2.36,0,0,1,0,1,5.11,5.11,0,0,1-1.71,1.72,21,21,0,0,1-5.38,2.3,19.87,19.87,0,0,0-5.71,2.46,19.13,19.13,0,0,0-2.75,2.63,16.16,16.16,0,0,0-1.51,2.23c-.12.2-.22.42-.33.64-.4.69-.78,1.41-1.13,2.15l-.11.15h-.23l.14.28a15,15,0,0,1,5.84-5.95c2.29-1.27,7.94-2.65,11.23-5,1.27-.93,2.49-1.89,1.94-4A1.39,1.39,0,0,0,557.3,337.51Z"/><path class="cls-12" d="M779.53,378.28c-1.22-13.49-2.5-27.27-3.65-38.57-14.34-5.28-40.45-14.89-53.06-19.56-17.92-6.63-38.48-11.94-38.48-11.94l-22.11,18.18s4.49,7.26,15.1,10.57a321.38,321.38,0,0,0,32.88,7.74C716.38,345.82,764.68,370.62,779.53,378.28Z"/><path class="cls-14" d="M716.62,336.74s50.87,22.55,72.1,27,29.19-7.82,32.73-22.12c4.7-19-12.38-76.52-16.37-83.15s-48.21,11.94-48.21,11.94,21.23,44.23,19,48.65-53.07-10.61-53.07-10.61Z"/><path class="cls-42" d="M727.9,308.21s-12.07-3.8-17-10.62-8-15.07-7.81-19.83-.59-10.61-3.54-10.91c-3.93-.39-6.78,7.4-7.81,13a41.48,41.48,0,0,0,0,12.09s-12.76-6.7-20.2-6.49-7.41,6.24-5.75,8.51a15.27,15.27,0,0,0,4,3.7s-7.81-2-9,3.27,5,7.74,5,7.74-5.38-.73-5.64,4.53c-.22,4.54,5.09,7.19,5.09,7.19s-3.61-1.47-3.65,3.87c0,4,9.75,8.14,18,9,7.85.77,14.4.4,21.64,2.26s18.6,5.17,19.63,5.17,3.73-6.77,5.73-15.61A57.2,57.2,0,0,0,727.9,308.21Z"/><path class="cls-13" d="M731.07,188.56a79.21,79.21,0,0,1,35.68,9.74c18.28,10,32,36.78,35.68,45.7a299.31,299.31,0,0,1,10.62,30.81s-18.29,4.43-28.31,8.26-23.59,12.09-23.59,12.09-14.74-31.7-22.41-57.06A192.49,192.49,0,0,1,731.07,188.56Z"/><polygon class="cls-2" points="711.9 254.03 711.9 259.92 747.29 259.33 747 252.55 711.9 254.03"/></g><g id="Layer_3" data-name="Layer 3"><path class="cls-2" d="M108.65,245.35,107,254.49a1.42,1.42,0,0,1-1.54,1.39h-.14c-2.93-.21-11.19-.95-16.46-.95-2.05,0-4.17.66-4.17,3.08,0,1.09.66,1.68,3.22,3.14l8.92,5.27c5.27,3.14,7.32,7,7.32,12.21,0,13.68-11.41,19.24-23.92,19.24A50,50,0,0,1,65.86,296c-.65-.22-1.24-.58-1.24-1.24v-.22l1.54-9A1.79,1.79,0,0,1,67.84,284H68c3,.22,10.76,1.1,14.63,1.1,2.93,0,5.34-1,5.34-4.32,0-1.09-.73-1.9-2.85-3.29l-9.44-6.21a14.2,14.2,0,0,1-6.29-12.07c0-13.24,10.32-17.12,21.94-17.12,5.71,0,13.46.88,16.24,1.83.59.22,1.1.52,1.1,1.17Z"/><path class="cls-2" d="M153.33,296a1.4,1.4,0,0,1-1.39,1.46H139.51a1.24,1.24,0,0,1-1.24-1.39l-.22-10.17H125l-3.88,10.17a1.85,1.85,0,0,1-1.68,1.39H106.53c-.66,0-1-.29-1-.95,0-.07.08-.29.15-.59l17.7-44.76c2.92-7.31,8.56-8.7,15.58-8.7,6.87,0,12.28,1.39,12.5,8.7l1.9,44.76Zm-15.65-40.37c0-.66,0-1-.66-1s-.73.37-1,1l-6.87,18.57H138Z"/><path class="cls-2" d="M203.14,244.88l-1.61,8.92a1.86,1.86,0,0,1-1.68,1.46H185.07c-2.63,0-3.65.81-4.16,3.66l-1,5.27h18a1.11,1.11,0,0,1,1.24,1.24v.22l-1.54,8.63a1.85,1.85,0,0,1-1.68,1.46H178l-3.58,20.33a1.94,1.94,0,0,1-1.76,1.47H160.72c-.81,0-1.17-.37-1.17-1.17v-.3l6.51-37.15c2.56-14.85,11.92-16.46,21.65-16.46a98.14,98.14,0,0,1,14.19.95c.8.08,1.24.52,1.24,1.17Z"/><path class="cls-2" d="M245.92,244.48l-1.53,8.92a1.94,1.94,0,0,1-1.76,1.46H227.86c-2.63,0-3.66.81-4.17,3.66l-.95,5.34h18A1.11,1.11,0,0,1,242,265.1v.22L240.44,274a1.86,1.86,0,0,1-1.68,1.46h-18l-1.09,6.07a10,10,0,0,0-.15,1.47c0,1.68.88,2.19,3,2.19h14.77a1.12,1.12,0,0,1,1.25,1.24v.22l-1.61,8.92a1.81,1.81,0,0,1-1.68,1.47,107.34,107.34,0,0,1-14.41.88c-8.56,0-16.38-3.08-16.38-12.66a23.64,23.64,0,0,1,.36-3.73l4-23c2.56-14.85,11.34-16.39,21.65-16.39a102.4,102.4,0,0,1,14.26.88c.81.08,1.17.44,1.17,1.17Z"/><path class="cls-2" d="M282.86,275.74,290,295.63c.08.08.08.3.08.52,0,1-.52,1.39-1.47,1.39H275.69c-.8,0-.95-.66-1.17-1.47l-6.14-17.84H266c-.73,0-1.53-.08-2.34-.15l-3.14,18a1.94,1.94,0,0,1-1.76,1.47H246.87a1.12,1.12,0,0,1-1.24-1.25v-.22L254,248.24c.59-3.51,1.83-4.31,5-4.83a105.81,105.81,0,0,1,15.36-.95c11.7,0,20.4,4.1,20.4,14.27C294.85,265.21,291.05,272.45,282.86,275.74ZM273.35,255c-2,0-4.46.07-5.7.15l-2,11.63a6.91,6.91,0,0,0,1.24.07h4.1c5.85,0,8.92-2.12,8.92-8C279.86,256.14,278,255,273.35,255Z"/><path class="cls-42" d="M108.21,165.79l-1.61,8.92a1.85,1.85,0,0,1-1.68,1.46H90.14c-2.63,0-3.65.81-4.16,3.66l-1,5.27h18a1.12,1.12,0,0,1,1.24,1.24v.22l-1.54,8.63a1.84,1.84,0,0,1-1.68,1.46h-18L79.47,217a1.94,1.94,0,0,1-1.76,1.46H65.79a1,1,0,0,1-1.17-1.17V217l6.51-37.16c2.56-14.85,11.92-16.45,21.65-16.45a96.67,96.67,0,0,1,14.19,1c.8.07,1.24.51,1.24,1.17Z"/><path class="cls-42" d="M152.24,217a1.41,1.41,0,0,1-1.39,1.46H138.41a1.23,1.23,0,0,1-1.24-1.39L137,206.86h-13L120.06,217a1.86,1.86,0,0,1-1.69,1.39H105.43c-.66,0-1-.29-1-.95,0-.07.07-.29.14-.58l17.7-44.76c2.93-7.32,8.56-8.71,15.58-8.71,6.87,0,12.29,1.39,12.51,8.71l1.9,44.76Zm-15.65-40.37c0-.66,0-1-.66-1s-.73.37-1,1l-6.88,18.57h8.78Z"/><path class="cls-42" d="M202.48,166.26l-1.61,9.15a1.42,1.42,0,0,1-1.53,1.39h-.15c-2.93-.22-11.19-1-16.46-1-2,0-4.16.65-4.16,3.07,0,1.09.65,1.68,3.21,3.14l8.93,5.27c5.26,3.14,7.31,7,7.31,12.21,0,13.68-11.41,19.24-23.92,19.24a50.34,50.34,0,0,1-14.4-1.9c-.66-.22-1.25-.59-1.25-1.25v-.22l1.54-9a1.79,1.79,0,0,1,1.68-1.47h.15c3,.22,10.75,1.1,14.62,1.1,2.93,0,5.34-1,5.34-4.31,0-1.1-.73-1.91-2.85-3.3l-9.43-6.21a14.16,14.16,0,0,1-6.29-12.07c0-13.24,10.31-17.11,21.94-17.11,5.7,0,13.45.87,16.23,1.82.59.22,1.1.52,1.1,1.18Z"/><path class="cls-42" d="M248.78,165.13l-1.69,9.36a1.86,1.86,0,0,1-1.75,1.39h-10.9l-7.17,40.74a1.94,1.94,0,0,1-1.75,1.46H213.6c-.81,0-1.17-.36-1.17-1.17v-.29l7.16-40.74H208.48c-.81,0-1.25-.36-1.25-1.17v-.22l1.69-9.36a1.78,1.78,0,0,1,1.68-1.39h36.86a1.2,1.2,0,0,1,1.32,1.17Z"/><path class="cls-42" d="M289.37,165.39l-1.54,8.92a1.94,1.94,0,0,1-1.75,1.46H271.3c-2.63,0-3.66.81-4.17,3.66l-.95,5.34h18a1.12,1.12,0,0,1,1.25,1.24v.22l-1.54,8.63a1.85,1.85,0,0,1-1.68,1.46h-18l-1.1,6.07a11.82,11.82,0,0,0-.15,1.47c0,1.68.88,2.19,3,2.19h14.78a1.12,1.12,0,0,1,1.24,1.24v.22l-1.61,8.93a1.8,1.8,0,0,1-1.68,1.46,105.38,105.38,0,0,1-14.41.88c-8.56,0-16.38-3.07-16.38-12.66a23.64,23.64,0,0,1,.36-3.73l4-23c2.56-14.85,11.33-16.38,21.65-16.38a103.13,103.13,0,0,1,14.26.87c.8.08,1.17.44,1.17,1.17Z"/><path class="cls-42" d="M326.3,196.65l7.1,19.9c.07.07.07.29.07.51,0,.95-.51,1.39-1.46,1.39H319.13c-.8,0-.95-.66-1.17-1.46l-6.14-17.85h-2.41c-.74,0-1.54-.07-2.34-.15l-3.15,18a1.94,1.94,0,0,1-1.75,1.46H290.32a1.12,1.12,0,0,1-1.25-1.24V217l8.42-47.84c.58-3.51,1.82-4.31,5-4.82a104.38,104.38,0,0,1,15.36-1c11.7,0,20.41,4.09,20.41,14.26C338.3,186.12,334.49,193.36,326.3,196.65Zm-9.51-20.77c-2,0-4.46.08-5.7.15l-2,11.63a7,7,0,0,0,1.24.07h4.1c5.85,0,8.92-2.12,8.92-8C323.3,177.05,321.47,175.88,316.79,175.88Z"/><path class="cls-43" d="M112.45,345.07l-1.39,8c-2.92,16.75-12,23.84-28,23.84a99.3,99.3,0,0,1-16.53-1.24c-1.24-.22-1.9-.73-1.9-2a3.11,3.11,0,0,1,.07-.87l8.41-47.54c.37-2,1.17-2.56,2.86-2.85a106.5,106.5,0,0,1,17-1.25c12.29,0,20,6.29,20,18.29A28.34,28.34,0,0,1,112.45,345.07ZM90.66,334h-1c-.8,0-1.75.07-2.41.07h-.73l-5.34,30.21c.29,0,1,.07,1.9.07h2.27c5.92,0,9.14-2.34,10.75-11.19l1.39-8a28.89,28.89,0,0,0,.44-4.54C97.9,335.26,95.34,334,90.66,334Z"/><path class="cls-43" d="M158.53,323.56,157,332.49a1.94,1.94,0,0,1-1.75,1.46H140.46c-2.63,0-3.66.8-4.17,3.65l-.95,5.34h18a1.12,1.12,0,0,1,1.25,1.25v.22L153,353a1.86,1.86,0,0,1-1.68,1.46h-18l-1.1,6.07a11.67,11.67,0,0,0-.15,1.46c0,1.68.88,2.2,3,2.2H149.9a1.12,1.12,0,0,1,1.24,1.24v.22l-1.61,8.92a1.79,1.79,0,0,1-1.68,1.46,105.38,105.38,0,0,1-14.41.88c-8.56,0-16.38-3.07-16.38-12.65a23.64,23.64,0,0,1,.36-3.73l4-23c2.56-14.84,11.33-16.38,21.64-16.38a101.11,101.11,0,0,1,14.27.88c.8.07,1.17.44,1.17,1.17Z"/><path class="cls-43" d="M191.58,365.69l-1.6,8.92a1.8,1.8,0,0,1-1.69,1.46,74.86,74.86,0,0,1-11.55.88c-8.27,0-16.38-2.7-16.38-12.58a24.48,24.48,0,0,1,.36-3.8l6.51-37.15a2,2,0,0,1,1.83-1.47H181a1,1,0,0,1,1.17,1.17v.3l-6.51,37.15a9.37,9.37,0,0,0-.15,1.39c0,1.68.88,2.27,3,2.27h11.85a1.11,1.11,0,0,1,1.24,1.24Z"/><path class="cls-43" d="M220.4,323.34l-9.07,51.49a1.93,1.93,0,0,1-1.75,1.46h-12c-.8,0-1.17-.36-1.17-1.17v-.29l9.07-51.49a1.79,1.79,0,0,1,1.68-1.39h12c.8,0,1.24.37,1.24,1.17Z"/><path class="cls-43" d="M275.11,323.42l-17.63,44.76c-2.93,7.24-8.56,8.77-15.65,8.77s-12.07-1.53-12.43-8.77l-2-44.76v-.08a1.41,1.41,0,0,1,1.46-1.39h12.36a1.29,1.29,0,0,1,1.32,1.39l.51,40.45c0,.66.08,1,.66,1s.81-.36,1-1l14.85-40.45a1.86,1.86,0,0,1,1.68-1.39h13c.66,0,.95.3.95.81A4.15,4.15,0,0,1,275.11,323.42Z"/><path class="cls-43" d="M316.35,323.56l-1.53,8.93a1.94,1.94,0,0,1-1.76,1.46H298.29c-2.63,0-3.66.8-4.17,3.65l-.95,5.34h18a1.12,1.12,0,0,1,1.25,1.25v.22L310.87,353a1.86,1.86,0,0,1-1.68,1.46h-18l-1.1,6.07A11.67,11.67,0,0,0,290,362c0,1.68.88,2.2,3,2.2h14.77a1.12,1.12,0,0,1,1.25,1.24v.22l-1.61,8.92a1.79,1.79,0,0,1-1.68,1.46,105.63,105.63,0,0,1-14.41.88c-8.56,0-16.38-3.07-16.38-12.65a23.64,23.64,0,0,1,.36-3.73l4-23c2.56-14.84,11.34-16.38,21.65-16.38a100.81,100.81,0,0,1,14.26.88c.81.07,1.17.44,1.17,1.17Z"/><path class="cls-43" d="M353.29,354.5l7.09,19.89c.08.08.08.3.08.52,0,.95-.52,1.38-1.47,1.38H346.12c-.8,0-.95-.65-1.17-1.46L338.81,357h-2.42c-.73,0-1.53-.08-2.34-.15l-3.14,18a1.93,1.93,0,0,1-1.76,1.46H317.31a1.12,1.12,0,0,1-1.25-1.24v-.22L324.47,327c.59-3.51,1.83-4.31,5-4.83a105.81,105.81,0,0,1,15.36-.95c11.7,0,20.4,4.1,20.4,14.26C365.28,344,361.48,351.21,353.29,354.5Zm-9.51-20.77c-2,0-4.46.07-5.7.15L336,345.5a6.06,6.06,0,0,0,1.24.08h4.1c5.85,0,8.92-2.12,8.92-8C350.29,334.9,348.46,333.73,343.78,333.73Z"/><path class="cls-43" d="M420.35,323.49l-15.21,25.23c-2.27,3.59-4.17,5.49-6.29,6.29l-3.44,19.82a1.92,1.92,0,0,1-1.75,1.46H381.74c-.73,0-1.1-.36-1.1-1.17v-.29L384.08,355c-1.83-.8-3.22-2.7-4.1-6.29l-6.29-25.23c0-.22-.07-.15-.07-.37a1.18,1.18,0,0,1,1.24-1.17h12.95c.8,0,1,.59,1.24,1.39l3.59,19.39c.14.51.36.73.58.73s.66-.22.88-.73l10.46-19.39c.36-.8.87-1.39,1.68-1.39h13.53c.51,0,.8.22.8.74A1.86,1.86,0,0,1,420.35,323.49Z"/><path class="cls-42" d="M386.8,201.19a21.65,21.65,0,0,1-4.57,10.24l4.32,5.61a.66.66,0,0,1,.15.5.69.69,0,0,1-.79.79h-8.5c-.39,0-.44-.1-.79-.45l-1-1.19a19.69,19.69,0,0,1-9.09,2.09c-6.91,0-12.92-1.79-12.92-9.74,0-5.21,4.13-8,8.25-10.38l-.35-.5a12.42,12.42,0,0,1-2.73-7.2c0-7.8,6.75-10,13.31-10,7.35,0,11,3.77,11,7.6,0,5.31-3.38,7.95-7.55,10.58l-2,1.24,4.17,5.46a13.25,13.25,0,0,0,1.54-4.62l.1-.64a1.26,1.26,0,0,1,1.14-1h5.62c.59,0,.74.39.74.94v.05Zm-20.61,3.23a5.14,5.14,0,0,0-2.93,4.57c0,1.74,1.19,3.13,4.17,3.13a10.81,10.81,0,0,0,4.12-.74Zm5.31-17c-2.63,0-4,1.24-4,3.77a4.47,4.47,0,0,0,1.39,3.13l.3.35,1.34-.8c1.84-1,3.68-2.08,3.68-4.47C374.24,188.23,373.44,187.44,371.5,187.44Z"/></g></g></svg>