<svg xmlns="http://www.w3.org/2000/svg" viewBox="0 0 960 540"><defs><style>.cls-1{fill:#fff;}.cls-2{font-size:44.32px;}.cls-17,.cls-2,.cls-4{fill:#2f2f2b;}.cls-2,.cls-4{font-family:NeoSansBlackItalicTR, Neo Sans  TR;}.cls-3{fill:#d30013;}.cls-4{font-size:25.38px;}.cls-5{fill:#bcd7ee;}.cls-6{fill:#356fa1;}.cls-7{fill:#86b8ed;}.cls-8{fill:#73a5c6;}.cls-9{fill:#73ace0;}.cls-10{fill:#296089;}.cls-11{fill:#cce2f2;}.cls-12{fill:#25618e;}.cls-13{fill:#ba0f38;}.cls-14{fill:#181a44;}.cls-15{fill:#dbdbdb;}.cls-16{fill:#e6133e;}.cls-18{fill:#95c4ef;}.cls-19{fill:#5e9dcc;}.cls-20{fill:#acd5f9;}.cls-21{fill:#f2b39e;}.cls-22{fill:#3d3d37;}.cls-23{fill:#ffc8b1;}.cls-24{fill:#e29276;}.cls-25{fill:#93b7d1;}.cls-26{fill:#262761;}.cls-27{fill:#dba216;}.cls-28{fill:#f8bb13;}.cls-29{fill:#ed4870;}.cls-30{fill:#93c2ef;}.cls-31{fill:#accde5;}.cls-32{fill:#d1113f;}</style></defs><g id="BACKGROUND"><rect class="cls-1" width="960" height="540"/><text class="cls-2" transform="translate(34.07 166.04)">BRING THE<tspan class="cls-3" x="234.59" y="0" xml:space="preserve"> STORE</tspan><tspan x="0" y="48.91">TO YOUR</tspan><tspan class="cls-3" x="193.73" y="48.91" xml:space="preserve"> DOOR.</tspan></text><text class="cls-4" transform="translate(34.07 508.58)">#STAY<tspan class="cls-3" x="83.53" y="0">HOME</tspan></text></g><g id="OBJECTS"><rect class="cls-5" x="689.32" y="127.2" width="108.44" height="286.14"/><rect class="cls-6" x="698.42" y="139.75" width="90.24" height="273.59"/><rect class="cls-7" x="788.66" y="139.75" width="103.22" height="273.59"/><rect class="cls-8" x="867.1" y="251.84" width="14.16" height="41.21" rx="3.23"/><path class="cls-6" d="M878.78,265.61a4.66,4.66,0,1,1-4.66-4.66A4.66,4.66,0,0,1,878.78,265.61Z"/><path class="cls-1" d="M874.18,278.44a2.21,2.21,0,0,0-2.21,2.21v5.4a2.21,2.21,0,0,0,4.42,0v-5.4A2.21,2.21,0,0,0,874.18,278.44Z"/><path class="cls-6" d="M872.41,263.57h-17.1a1.81,1.81,0,0,0,0,3.61h17.1a1.81,1.81,0,0,0,0-3.61Z"/><rect class="cls-8" x="671.88" y="413.34" width="143.32" height="28.68"/><path class="cls-9" d="M822.47,139.75s-11.47,128.66,24.17,167c20.46,22,45.23,26.2,45.23,26.2v80.37H788.66V139.75Z"/><polygon class="cls-10" points="730.92 139.75 761.4 413.34 698.42 413.34 698.42 139.75 730.92 139.75"/><ellipse class="cls-11" cx="372.11" cy="440.75" rx="123.65" ry="8.39"/><path class="cls-12" d="M386.79,409q-3.19,14.94-6.4,29.89c-.4,1.87,2.47,2.67,2.87.8q3.21-15,6.41-29.9c.4-1.87-2.47-2.67-2.88-.79Z"/><path class="cls-12" d="M375.56,409q-3.21,14.94-6.41,29.89c-.4,1.87,2.48,2.67,2.88.8q3.2-15,6.4-29.9c.4-1.87-2.47-2.67-2.87-.79Z"/><path class="cls-12" d="M384.62,427.22H373.79a1,1,0,0,1,0-2h10.83a1,1,0,1,1,0,2Z"/><path class="cls-13" d="M427.23,330.6a44.43,44.43,0,0,0-14.56,3.88s-6.13-18.07-1.36-18.9,15,0,15,0S419.74,322,427.23,330.6Z"/><circle class="cls-14" cx="457.67" cy="411.44" r="30.96"/><circle class="cls-12" cx="457.67" cy="411.44" r="23.49"/><circle class="cls-15" cx="457.67" cy="411.44" r="18.87"/><path class="cls-12" d="M457.67,433.85a1.49,1.49,0,0,1-1.49-1.49V390.52a1.49,1.49,0,0,1,3,0v41.84A1.49,1.49,0,0,1,457.67,433.85Z"/><path class="cls-12" d="M478.59,412.93H436.75a1.49,1.49,0,0,1,0-3h41.84a1.49,1.49,0,0,1,0,3Z"/><path class="cls-12" d="M442.88,427.72a1.5,1.5,0,0,1-1.05-2.55l29.58-29.58a1.49,1.49,0,1,1,2.11,2.11l-29.59,29.58A1.49,1.49,0,0,1,442.88,427.72Z"/><path class="cls-12" d="M472.46,427.72a1.49,1.49,0,0,1-1-.44L441.83,397.7a1.49,1.49,0,1,1,2.1-2.11l29.59,29.58a1.5,1.5,0,0,1,0,2.11A1.53,1.53,0,0,1,472.46,427.72Z"/><circle class="cls-12" cx="457.67" cy="411.44" r="7.43" transform="translate(-115.83 188.2) rotate(-20.69)"/><circle class="cls-14" cx="457.67" cy="411.44" r="5.25"/><circle class="cls-14" cx="307.56" cy="411.44" r="30.96"/><circle class="cls-12" cx="307.56" cy="411.44" r="23.49"/><circle class="cls-15" cx="307.56" cy="411.44" r="18.87"/><path class="cls-12" d="M307.56,433.85a1.49,1.49,0,0,1-1.49-1.49V390.52a1.49,1.49,0,0,1,3,0v41.84A1.49,1.49,0,0,1,307.56,433.85Z"/><path class="cls-12" d="M328.47,412.93H286.64a1.49,1.49,0,0,1,0-3h41.83a1.49,1.49,0,0,1,0,3Z"/><path class="cls-12" d="M292.77,427.72a1.5,1.5,0,0,1-1.06-2.55l29.58-29.58a1.49,1.49,0,1,1,2.11,2.11l-29.58,29.58A1.49,1.49,0,0,1,292.77,427.72Z"/><path class="cls-12" d="M322.35,427.72a1.51,1.51,0,0,1-1.06-.44L291.71,397.7a1.49,1.49,0,0,1,2.11-2.11l29.58,29.58a1.5,1.5,0,0,1-1,2.55Z"/><circle class="cls-12" cx="307.56" cy="411.44" r="7.43" transform="translate(-200.85 337.98) rotate(-45)"/><path class="cls-14" d="M312.81,411.44a5.26,5.26,0,1,1-5.25-5.25A5.25,5.25,0,0,1,312.81,411.44Z"/><path class="cls-16" d="M307.56,413.42a2,2,0,0,1-2-2V385.07a2,2,0,1,1,4,0v26.37A2,2,0,0,1,307.56,413.42Z"/><path class="cls-16" d="M457.67,413.42a2,2,0,0,1-1.73-1l-17.44-31A2,2,0,1,1,442,379.5l17.43,31a2,2,0,0,1-.75,2.71A2,2,0,0,1,457.67,413.42Z"/><path class="cls-16" d="M440.24,307.53c0,3-.62,9.08-2.54,12.37a5.11,5.11,0,0,1-1.7,1.87c-2.84,1.68-24.84-4-32.36-6.39-.5-.16-1.22-8.75.64-11.12,1.2-1.52,20.52-11.18,30.36-11.28.25,0,1.13.83,2.12,2.35A22.59,22.59,0,0,1,440.24,307.53Z"/><path class="cls-16" d="M427.87,394l11.93,7.72s6.9-9.77,17.87-8.34a25.77,25.77,0,0,1,6.16,1.55,28.54,28.54,0,0,0,24-1.28l.77-.42s-10.54-17.21-31-16.19A38.1,38.1,0,0,0,427.87,394Z"/><path class="cls-16" d="M457.67,392.57s0,5.08-4.93,10c-7.08,7.08-13.65,6.79-22.38,6.79H268s.59-45.36,27.82-52.17L356.5,357s-21.78,43.94,2,44.09,58.21,0,58.21,0,26.55-4.6-8.17-51.58c0,0-8.3-8,4.09-15a44.43,44.43,0,0,1,14.56-3.88,23.25,23.25,0,0,0,1.78,1.84C439.22,342,458,374.49,457.67,392.57Z"/><path class="cls-14" d="M356.5,357s5.95-2.25,7.45-7.33a5.3,5.3,0,0,0-5.15-6.7H296c-5.83,0-15,10.14-.21,14.28Z"/><rect class="cls-14" x="264.16" y="380.47" width="6.64" height="34.31"/><rect class="cls-16" x="257.77" y="290.95" width="52.59" height="51.99"/><rect class="cls-17" x="252.9" y="280.66" width="62.34" height="10.29" rx="2.66"/><path class="cls-13" d="M293.52,374.43c8-4.49,20.62-3.49,29-.19,9.76,3.85,14.13,13.45,15,23.34.18,1.9,3.16,1.92,3,0-1-10.65-5.52-21-15.77-25.61-9.35-4.2-23.59-5.23-32.73-.11-1.67.93-.17,3.51,1.51,2.57Z"/><path class="cls-13" d="M290.2,399.14h30.63a1.49,1.49,0,0,0,0-3H290.2a1.49,1.49,0,0,0,0,3Z"/><path class="cls-13" d="M290.2,392h30.63a1.49,1.49,0,0,0,0-3H290.2a1.49,1.49,0,0,0,0,3Z"/><path class="cls-13" d="M417.92,344a118.36,118.36,0,0,1,17.79,25.62c5,9.83,8.52,21.73,1.31,31.44-1.14,1.54,1.44,3,2.58,1.5,6.6-8.88,5.1-20.09.93-29.7a115.08,115.08,0,0,0-20.5-31c-1.29-1.43-3.39.69-2.11,2.11Z"/><path class="cls-14" d="M423.09,308.34a6.25,6.25,0,1,1-6.24-6.24A6.24,6.24,0,0,1,423.09,308.34Z"/><path class="cls-12" d="M403.08,324.06a2,2,0,0,1-1.41-3.39l13.78-13.73a2,2,0,0,1,2.8,2.81l-13.77,13.73A2,2,0,0,1,403.08,324.06Z"/><path class="cls-14" d="M403.08,324.56a2.45,2.45,0,0,1-1.76-.73,2.48,2.48,0,0,1,0-3.51l6.89-6.87a2.49,2.49,0,0,1,3.51,3.52l-6.89,6.87A2.48,2.48,0,0,1,403.08,324.56Z"/><path class="cls-15" d="M440.24,307.53c0,3-.62,9.08-2.54,12.37-9-11.38-.94-24.57-.94-24.57A22.59,22.59,0,0,1,440.24,307.53Z"/><path class="cls-13" d="M427.93,298.47a23.22,23.22,0,0,0,1.45,19.63c.92,1.68,3.5.18,2.57-1.5a20.29,20.29,0,0,1-1.14-17.34c.68-1.79-2.2-2.57-2.88-.79Z"/><rect class="cls-6" x="281.01" y="353.74" width="81.83" height="3.46"/><path class="cls-12" d="M296.58,357a1.47,1.47,0,0,1-.91-.31l-18.89-14.59a1.49,1.49,0,0,1,.91-2.67h14a1.49,1.49,0,0,1,.92.32l18.63,14.59a1.49,1.49,0,1,1-1.83,2.35l-18.24-14.28h-9.16l15.44,11.92a1.49,1.49,0,0,1-.91,2.67Z"/><rect class="cls-6" x="252.9" y="338.93" width="59.91" height="4"/><path class="cls-12" d="M414.63,310.17a31.55,31.55,0,0,0-12.39-12.39c-1.12-.62-2.13,1.09-1,1.71a29.65,29.65,0,0,1,11.69,11.68c.62,1.12,2.33.12,1.71-1Z"/><path class="cls-12" d="M404.32,297.46c0,5.1-2.45,9.23-5.47,9.23s-5.47-4.13-5.47-9.23,2.45-9.23,5.47-9.23S404.32,292.36,404.32,297.46Z"/><ellipse class="cls-11" cx="574.49" cy="440.16" rx="38.04" ry="7.57"/><path class="cls-9" d="M561.18,396.19c-.62-7.85-1.7-14.27-4-18.28-5.79-9.85-26.67-14.35-26.67-27.78a50.45,50.45,0,0,0,14.33,7.76c6.47,2.13,9.71,3.8,14.13,5,6,1.6,10.15,7.2,12.57,12.95A45,45,0,0,1,575,392.46a4.8,4.8,0,0,1-.26,2C570.87,403.65,561.73,403.28,561.18,396.19Z"/><path class="cls-18" d="M535.24,356.7c5.6,6.55,14.71,8.93,21.59,13.81A19.45,19.45,0,0,1,565.05,383c1.19,5.85.74,11.94.7,17.87a.45.45,0,0,0,.89,0c.08-10.28,1.34-22.42-7.48-29.7-7.1-5.86-17.22-8-23.28-15.1-.38-.44-1,.2-.64.64Z"/><path class="cls-7" d="M562.94,325.78a6.91,6.91,0,0,1-5.55-1.67c-1.42-1.41-.36-3.92,1-5.37a16.38,16.38,0,0,1-2.67-.88,3.57,3.57,0,0,1,.63-5.44,2.18,2.18,0,0,0,.45-.46c-1.07-1.19-2.64-2.2-2.57-4.3s1.59-3.45,2.81-3.21c-1.53-1.08-.26-4.48,2.47-4.55a3.74,3.74,0,0,1,3.94,4.06c2.42-.56,4.55,3.35,3.6,5.69,1.75-.34,2.78.89,3.09,2.64a3.35,3.35,0,0,1-1.14,3,4.16,4.16,0,0,1,1.72,6.87,6.36,6.36,0,0,1,1.06.64,2.29,2.29,0,0,1-.37,3.85h0v0a2.22,2.22,0,0,1-.79,3.38c-1.08.44-.06.1-3.15.73C562,332,560.64,326,562.94,325.78Z"/><path class="cls-19" d="M573.33,398.18c1.84-30.45.47-62.45-11.68-90.81-.51-1.18-2.24-.16-1.74,1,12,28,13.22,59.74,11.4,89.79-.07,1.3,1.94,1.29,2,0Z"/><path class="cls-19" d="M585.66,356.74c8.85-10.67,23.36-17.15,27.86-30.26,1,7.94,1.8,16.52-2.16,23.47-2.81,4.95-7.67,8.33-11.49,12.54-9.14,10.08-12,24.86-9.41,38.22.28,1.47.52,3.25-.62,4.22a4.25,4.25,0,0,1-2,.73c-10.13,1.8-10.87-13-11.28-20.67A41.21,41.21,0,0,1,585.66,356.74Z"/><path class="cls-18" d="M609.59,341.46c-2,5-6.53,8.84-10.46,12.4-3.74,3.38-7.78,6.71-10.62,10.93-6.89,10.25-5.25,23.82-4.92,35.48a.45.45,0,0,0,.9,0c-.34-12.14-2.15-26.57,6.06-36.73,6.06-7.5,16.18-12.61,19.9-21.84.22-.53-.65-.77-.86-.24Z"/><path class="cls-9" d="M569.74,365c2.88-11.14,7.89-21.67,10.52-32.87a80.4,80.4,0,0,0,1.2-30.48c12.19,18.93,10.46,37.26,5.82,55.52-1.31,5.17-3.39,10.11-4.75,15.26-2.88,10.93-1.68,21.21.66,32C564.66,409.31,567.49,373.74,569.74,365Z"/><path class="cls-18" d="M585.05,321.21c1.54,13.78-2.5,26.74-6.87,39.63-4.42,13.05-4.12,26.5-2.31,40,.08.56,1,.57.9,0a123.34,123.34,0,0,1-1.28-20.5,70.4,70.4,0,0,1,4.12-20.91c4.26-12.37,7.81-25,6.34-38.24-.07-.57-1-.58-.9,0Z"/><path class="cls-7" d="M573.44,378.07c.16-5.62.2-11.65-2.93-16.32a39.79,39.79,0,0,0-5.24-5.63c-12.78-12.78-16.54-31.76-19.7-49.56-2.85,8.07-5.72,16.26-6.29,24.8s1.43,17.61,7.26,23.87c4.28,4.59,10.32,7.41,14,12.46,3.91,5.29,4.7,12.26,4.44,18.84-.14,3.71-.56,7.47.25,11.09s3.05,7,6.65,7.91C573.22,396.49,573.18,387.26,573.44,378.07Z"/><path class="cls-20" d="M544.3,323.25a39.15,39.15,0,0,0,2.23,19.56c2.48,6,7.3,10.19,11.77,14.66a39,39,0,0,1,6.57,8.2,27.14,27.14,0,0,1,3.15,12.2c.18,4.08-.31,8.14-.45,12.21-.17,4.49-.11,9,.09,13.46,0,.58.92.58.89,0-.19-4.34-.25-8.69-.1-13,.13-4.08.63-8.16.48-12.25a28.57,28.57,0,0,0-7.29-18.56c-4.44-5-10-9.11-13.28-15.13-3.39-6.3-4.08-14.32-3.16-21.32.07-.57-.83-.56-.9,0Z"/><path class="cls-10" d="M593.72,391.36a1.9,1.9,0,0,1,1.9,2l-.9,16.35-.15,2.81L594,423.6l-.15,2.71-.66,12a2,2,0,0,1-2,1.92H558.31a2,2,0,0,1-2-1.92l-1-17.49-.18-3.22L554.51,406l-.17-3-.53-9.64a1.9,1.9,0,0,1,1.9-2Z"/><path class="cls-18" d="M594.72,409.71l-.15,2.81a11,11,0,0,1-2-.22c-5.84-1.26-11.82-11.79-17.5-5.05-2.7,3.21-4.14,5.82-9,4.81-2.46-.51-7.38-4.54-11.5-6.08l-.17-3c2.64.56,4.8,2.28,7,3.78a13.93,13.93,0,0,0,5.41,2.7c3.11.48,4.19-1.35,6-3.59,2.72-3.35,5.56-4.65,9.87-2.85,2.9,1.21,4.81,3.69,7.47,5.26A9.29,9.29,0,0,0,594.72,409.71Z"/><path class="cls-18" d="M594,423.6l-.15,2.71a13.35,13.35,0,0,1-3.09-.08,12.76,12.76,0,0,1-5-1.81c-2.44-1.54-4-4.61-7.34-3.95-4.29.84-6.62,5.52-11.4,5.52-2.43,0-7.52-3.64-11.66-5.16l-.18-3.22.24.05c2.46.69,4.43,2.43,6.57,3.74,4.25,2.61,7.18,1.8,10.86-.77,3-2.09,6.17-4.1,9.81-2.17,2.73,1.44,4.14,4.06,7.32,4.89A10.36,10.36,0,0,0,594,423.6Z"/><path class="cls-1" d="M559.77,415l.3-.3a1.37,1.37,0,0,0,0-1.9,1.35,1.35,0,0,0-1.9,0l-.3.3a1.35,1.35,0,0,0,0,1.9,1.37,1.37,0,0,0,1.9,0Z"/><path class="cls-1" d="M564.79,418.34h.3a1.34,1.34,0,0,0,0-2.68h-.3a1.34,1.34,0,1,0,0,2.68Z"/><path class="cls-1" d="M574.49,415.51v-.3a1.35,1.35,0,0,0-1.34-1.34,1.37,1.37,0,0,0-1.35,1.34v.3a1.35,1.35,0,0,0,2.69,0Z"/><path class="cls-1" d="M578.22,412.37h.3a1.34,1.34,0,1,0,0-2.68h-.3a1.34,1.34,0,0,0,0,2.68Z"/><path class="cls-1" d="M585.69,416a1.35,1.35,0,0,0,0-2.69,1.35,1.35,0,0,0,0,2.69Z"/><path class="cls-1" d="M590.76,418.64a1.34,1.34,0,0,0,0-2.68,1.34,1.34,0,0,0,0,2.68Z"/><ellipse class="cls-11" cx="573.6" cy="473.43" rx="143.05" ry="8.15"/><path class="cls-21" d="M629.56,251c-2.63,1.23-21.18,1-34.57-1.83-.79,3.26.46,7.18-1,10.22,11.09,6,39.27,6.92,42,5.64,2.37-1.14,22.79-22.18,26.81-25.75,3.69-3.28,8.45-19.06-4.56-19.9C650.67,218.85,636.37,247.78,629.56,251Z"/><path class="cls-22" d="M510.39,248.83c2.62,1.22,20.33-1.59,33.72-4.38a49.59,49.59,0,0,0,3.35,9.47c-11.08,6-38.45,11.73-41.14,10.45-2.38-1.14-25.28-21.56-29.29-25.13-3.7-3.28-8.46-19.06,4.55-19.9C489.14,218.85,503.57,245.65,510.39,248.83Z"/><path class="cls-21" d="M491.05,216.68c-3.2-6.73-4.09-13.53-5-20.79-7.1-.07-19.75-10.48-17.71-4.71s.8,18.08-.33,20.89c-2.61,6.51,6.32,5.05,9,4.61C479.16,216.35,490.29,215.08,491.05,216.68Z"/><path class="cls-23" d="M472.75,198.88c3.55,5.12,9.42,9.07,15.63,8.66a6.4,6.4,0,0,0,3.82-1.32,7.44,7.44,0,0,0,1.76-2.7,41,41,0,0,0,1.8-28.41c-.77-2.55-1.89-5.14-4-6.74a14.4,14.4,0,0,0-5.39-2.17c-3.93-1-8.07-1.86-12-.87C459.45,169.06,467.08,190.69,472.75,198.88Z"/><path class="cls-24" d="M489.27,184.62c1.59,2.66,3.81,7.15.16,9.24a.48.48,0,0,0,.49.83c4.17-2.38,2.06-7.41.18-10.56a.48.48,0,0,0-.83.49Z"/><path class="cls-5" d="M467,186.23s22.67,5.59,30.49,1.73c0,0,1.46,11.79-5.29,18.26,0,0-6,5.12-14.6-2.25l-11.25-9.18-.67-2.33,13.18,11.25s2.79-8.77-.7-14.27l-11.85-1.72Z"/><path class="cls-16" d="M461.67,197.09c.92.82,5.78,2.63,10.6,1.47a4.63,4.63,0,0,0,3.49-4.6c-.1-5.4-.62-11.56-2.15-16.33l27.7-3.2c0-7.37-4.92-14.15-11.31-17.82s-22.39-4-30.65,3.7C448.92,170.06,450.07,186.73,461.67,197.09Z"/><path class="cls-6" d="M504.22,175.73l-10.68,3-1.81.51L489,180l-5.9,1.67L467,186.23c-6.68-4.3-3.36-9.51-3.36-9.51l16.1-11.58,5.7-4.1,2.46-1.76,1.8-1.3,4.4-3.17C501.31,164,504.22,175.73,504.22,175.73Z"/><path class="cls-5" d="M489,180l-5.9,1.67c-.94-4.62-2.4-11.93-3.34-16.56l5.7-4.1Z"/><polygon class="cls-5" points="493.54 178.74 491.73 179.25 487.9 159.28 489.7 157.98 493.54 178.74"/><path class="cls-14" d="M486.54,184.6c0,.9-.44,1.63-1,1.63s-1-.73-1-1.63.44-1.62,1-1.62S486.54,183.7,486.54,184.6Z"/><path class="cls-14" d="M495.08,183.4c0,.9-.44,1.63-1,1.63s-1-.73-1-1.63.44-1.63,1-1.63S495.08,182.5,495.08,183.4Z"/><path class="cls-14" d="M468.58,173.17l4.18,11.43-7.08,2.4s-3.25,1.18-5-2.63.16-5.9,1-6.54S468.58,173.17,468.58,173.17Z"/><path class="cls-6" d="M468.17,181.35a2.49,2.49,0,1,1-2.49-2.49A2.5,2.5,0,0,1,468.17,181.35Z"/><path class="cls-5" d="M466.86,181.35a1.18,1.18,0,1,1-1.18-1.18A1.18,1.18,0,0,1,466.86,181.35Z"/><path class="cls-25" d="M486.5,195.49a11.29,11.29,0,0,0,6.92-.23c.58-.21.33-1.15-.26-.94a10.26,10.26,0,0,1-6.41.24.48.48,0,0,0-.25.93Z"/><path class="cls-25" d="M487.1,199.77a20.73,20.73,0,0,0,5-.15c.61-.09.35-1-.26-.93a19.61,19.61,0,0,1-4.78.12c-.61-.06-.61.91,0,1Z"/><path class="cls-25" d="M488.43,202.8a6.43,6.43,0,0,0,2.05.13c.62-.06.62-1,0-1a5.73,5.73,0,0,1-1.8-.1c-.6-.13-.86.8-.25.93Z"/><path class="cls-12" d="M460.63,467.44c-.36,1.58-.64,4.41.45,5.61s23,.34,32.14.11c1.06-1.76-.21-6.13-1.94-7.24s-9.73-.82-11.74-1.27c-2.88-.63-3.6-1.26-6.1-2.83-.08-3.08.32-9.22.24-12.3-2-.14-9.72-.77-10.37,0C464.35,454,461.63,463,460.63,467.44Z"/><path class="cls-12" d="M503.55,467.44c-.35,1.58-.64,4.41.46,5.61s23,.34,32.13.11c1.06-1.76-.21-6.13-1.93-7.24s-9.74-.82-11.74-1.27c-2.88-.63-3.61-1.26-6.11-2.83-.07-3.08-1.72-9.36-1.8-12.44-2-.14-9.7-1-10.35-.24C505.25,453.64,504.55,463,503.55,467.44Z"/><path class="cls-14" d="M518.05,460.39c-5.58-.29-9.37.27-14.95,0-1.19-23.75-6.76-34.17-8.85-72.58-1-19.11-22.6-69.82-23.79-88.92,8.16.63,16.62.66,24.7,1.9,7.23,1.1,8,3.77,9,11.1,2.26,15.15,9.07,59.89,9.26,75.2C513.57,395.09,517.64,460.36,518.05,460.39Z"/><path class="cls-26" d="M466.69,386.34c-.82,5.67-3.8,44.4-6.38,74.12,6.76,0,8.06,0,14.82,0,4.82-22,11.84-66.59,12.48-74.6,1.17-14.42,2.67-41,4.16-52.09,2.21-16.54,3.58-28.94,3.58-37.63-13.27,4.21-22.66,4.33-35.88,0,2,.67-2.71,10.49-2.69,21.25C456.8,335.29,467.85,378.3,466.69,386.34Z"/><path class="cls-16" d="M500.61,250.6c.09-4.56-1.31-16.29-3-20.52-1.21-3.07-3.64-9.54-5.71-12.22-2.19-2.83-3.13-4.16-6.46-5.17a33,33,0,0,0-18.22-.12c.45-.17-9.52,5-11.64,11.14s-2.16,12.95-2.1,19.53c.21,25.07.55,54.14,3.29,74.15,17-5.43,29.67-7.25,47.43-5.52C501.31,284.61,500.09,275.45,500.61,250.6Z"/><path class="cls-16" d="M467.23,212.57l.35-5s21,2.45,23.21,3.5c2,.93,1.12,6.79,1.12,6.79a92.82,92.82,0,0,1-10.26-1.7C475.3,214.81,468.11,214.24,467.23,212.57Z"/><path class="cls-17" d="M555.67,264.37c-8.09-.53-14.24-.5-22.33-1a4.92,4.92,0,0,0-2.72.34c-1.94,1.08-1.38,4.32.49,5.53s6.68,2,6.68,2c8.31.87,25.39-2.59,25.39-5.74C562.55,263.8,557.47,264.49,555.67,264.37Z"/><path class="cls-17" d="M495.76,270.69c1.06,1,32.1,3,44.19,2.64-.73-3.09-1.46-7.11-2.19-10.19-11.41-2.7-25-5-36.45-7.66-5.58-9-29.67-47.87-42.59-32.64C449.22,234.05,487.77,263.48,495.76,270.69Z"/><rect class="cls-27" x="531.04" y="255.48" width="73.31" height="9.04"/><path class="cls-28" d="M532.73,261h69.94a1,1,0,0,0,0-1.93H532.73a1,1,0,0,0,0,1.93Z"/><rect class="cls-28" x="527.77" y="246.44" width="73.31" height="9.04"/><path class="cls-27" d="M529.46,251.78h69.93a1,1,0,0,0,0-1.93H529.46a1,1,0,0,0,0,1.93Z"/><rect class="cls-27" x="531.04" y="237.41" width="73.31" height="9.04"/><path class="cls-28" d="M532.73,243.38h69.94a1,1,0,0,0,0-1.93H532.73a1,1,0,0,0,0,1.93Z"/><path class="cls-21" d="M659.11,467.44c.36,1.58.64,3.45-.45,4.64s-18.76.74-26.12.58c-1.07-1.76.07-4.15,1.8-5.26s11.51-3.55,14-5.12c.08-3.07-6.74-23.34-6.66-26.42,2-.14,13.13-.77,13.78,0C654.43,440.35,658.11,463,659.11,467.44Z"/><path class="cls-16" d="M639.07,465s-.46,4.78,2,6.18c.88.5,19,0,19,0s1.28,3.06.19,3.3c-4.81,1.07-31.46,0-31.46,0s-4-.31-2.46-3.21S636.17,465.92,639.07,465Z"/><path class="cls-23" d="M682.26,467.44c.36,1.58.64,3.45-.45,4.64s-18.76.74-26.12.58c-1.07-1.76.07-4.15,1.8-5.26s11.51-3.55,14-5.12c.08-3.07-6.74-23.34-6.66-26.42,2-.14,13.13-.77,13.78,0C677.58,440.35,681.26,463,682.26,467.44Z"/><path class="cls-14" d="M641.26,443.34c5.58-.29,10,.29,15.53,0-1.08-21.56-1.51-45.56-4.82-58.42-5.72-22.24,21.24-70.71,22.2-86.05-8.16.63-16.62.66-24.7,1.9-7.23,1.1-10.72.37-11.81,7.71-2.26,15.14-5.11,51.31-5.3,66.61C632.27,383.11,639.82,429,641.26,443.34Z"/><path class="cls-26" d="M671.58,380.55c4.82,31.19,4.92,32.57,7.5,62.29-6.75,0-8.36.47-15.11.5-4.54-20.4-18.19-59.37-18.19-75,0-14.47.36-38.35,1.39-50.05,1.47-16.62,0-16.21,0-24.91,13.27,4.21,20,7.05,33.19,2.72-.83,6,4.69,4.32,4.68,15.08C685,329.13,668.41,360.06,671.58,380.55Z"/><path class="cls-29" d="M662.22,465s-.46,4.78,2,6.18c.88.5,19.05,0,19.05,0s1.28,3.06.19,3.3c-4.81,1.07-32.51.47-32.51.47a2.36,2.36,0,0,1-1.41-3.68C651.08,468.33,659.32,465.92,662.22,465Z"/><path class="cls-30" d="M635.59,249.37c-4.91-8.65,7.23-15.13,8.27-19.57,3.93-16.68,7.16-16.1,10.5-17.11a33,33,0,0,1,18.22-.12c-.46-.17,9.51,5,11.64,11.14s-.22,15.27-1.64,21.7c-2.64,12-3.36,19.11-3.93,31.61-.7,15.6,6.36,20.58,6.11,35.4-23.81,2.92-38.09,1.59-47.1-3.94C640.57,281.21,647.87,271,635.59,249.37Z"/><path class="cls-23" d="M644.05,270.69c-1.06,1-29.93.93-42,.54.73-3.08-.71-5,0-8.09,11.42-2.7,25-5,36.46-7.66,5.58-9,29.66-47.87,42.58-32.64C690.59,234.05,652,263.48,644.05,270.69Z"/><path class="cls-31" d="M611.35,261.1c-.81-.45-8.38,2-9.31,2l-20.71,1.38c-1.8.12-4.57,1-3.74,2.6,2.19,3.15,16.12,5,24.43,4.11l8.38.25C612.26,270.27,613.29,262.18,611.35,261.1Z"/><path class="cls-31" d="M601.14,264.28l-.22-.32c-1.64-.56-2.91-1.86-4.28-2.93s-3.09-2-4.78-1.59c-.21,1.21.66,2.32,1.57,3.14a7.11,7.11,0,0,1,2.35,2.75,5.4,5.4,0,0,0,.41,1.19,2.78,2.78,0,0,0,2.37.87,4.19,4.19,0,0,0,3-.66C602.29,266,602.16,264.43,601.14,264.28Z"/><path class="cls-32" d="M690.5,170.21c2.78,2.95,3.73,7.14,4.34,11.14s1,8.16,3.09,11.65,6.29,6.1,10.13,4.83a12.22,12.22,0,0,1-22.38-5c-.47-3.54-.36-7.69-2.6-10.47-1.89-2.33-4.59-2.75-6.33-5.19-2-2.83-2.13-9.08,1.51-10.41S688,167.53,690.5,170.21Z"/><path class="cls-21" d="M652.7,215.89c3.2-6.74.14-12.74,1-20,7.1-.07,19.75-10.48,17.72-4.71s-2.5,19.76.32,20.89c7.23,2.9-12.78,12.14-15,13.83C639.78,239.15,653.47,214.28,652.7,215.89Z"/><path class="cls-23" d="M667.05,198.88c-3.54,5.12-9.41,9.07-15.62,8.66a6.37,6.37,0,0,1-3.82-1.32,7.59,7.59,0,0,1-1.77-2.7c-4-8.85-4.24-19.63-2.31-29.63.5-2.61,2.41-3.92,4.53-5.52a14.54,14.54,0,0,1,5.39-2.17c3.94-1,8.07-1.86,12-.87C680.36,169.06,672.73,190.69,667.05,198.88Z"/><path class="cls-16" d="M648,170.39a13.4,13.4,0,0,0,1.14,6.16,48.74,48.74,0,0,1,7.15.21,11.38,11.38,0,0,1,.34-6.17c.26,2.6,1,3.84,2.18,6.2,2,.27,5.71.89,5.71.89,1,2.84,1.48,5.63,2.26,7.18a33.1,33.1,0,0,1,3.69,10.27c6.06-3.07,9.13-9.1,10.35-15.78.94-5.19.5-11-3-14.95-3.85-4.22-10.46-6-17.59-5.86-10.22.12-14.11,5.78-14.11,5.78a6.31,6.31,0,0,0-5.76,6.29c-.14,4.12,3.43,5.6,6.78,5.86C646.93,174.07,647.08,171.8,648,170.39Z"/><path class="cls-24" d="M648.86,183.49c-.62,3.66-3.24,8.72,1,11.2a.48.48,0,0,0,.49-.83c-3.73-2.17-1.13-7-.59-10.11.1-.61-.83-.87-.93-.26Z"/><path class="cls-5" d="M670.62,183s-17.27,9.16-28.42,4.29c0,0-1.34,12.48,5.41,18.95,0,0,5.56,5.1,14.16-2.26l8.15-10.79.83-2.53-9.54,11.87s-4.56-7.69-1.07-13.19l11.49-5.77Z"/><path class="cls-14" d="M653.26,184.6c0,.9.44,1.63,1,1.63s1-.73,1-1.63-.44-1.62-1-1.62S653.26,183.7,653.26,184.6Z"/><path class="cls-14" d="M644.73,183.62c0,.9.44,1.63,1,1.63s1-.73,1-1.63-.44-1.63-1-1.63S644.73,182.72,644.73,183.62Z"/><path class="cls-25" d="M653.05,194.56a10.26,10.26,0,0,1-6.41-.24c-.58-.2-.84.73-.26.94a11.24,11.24,0,0,0,6.93.23.48.48,0,0,0-.26-.93Z"/><path class="cls-25" d="M652.7,198.81a19.61,19.61,0,0,1-4.78-.12c-.6-.09-.87.84-.25.93a20.64,20.64,0,0,0,5,.15c.61-.05.62-1,0-1Z"/><path class="cls-25" d="M651.12,201.87a5.71,5.71,0,0,1-1.8.1c-.61-.06-.61.9,0,1a6.47,6.47,0,0,0,2.06-.13c.61-.13.35-1.06-.26-.93Z"/><path class="cls-23" d="M671.63,183.55c-.26-1-.94-2-2-2.05-5.17-.15-3.21,7.43-3.21,7.43-.17,1.37,1.19,4.7,2.86,3.61C671.73,191,672.37,186.31,671.63,183.55Z"/><path class="cls-16" d="M653.35,179a4.12,4.12,0,0,1,2.82.45c.4.27,1.33,1.31,1.73.4a.68.68,0,0,0,0-.7,4.18,4.18,0,0,0-4.85-1.24.59.59,0,0,0,.3,1.09Z"/><path class="cls-16" d="M644.14,178.89a2.64,2.64,0,0,1,1.46-.45c.51,0,1,.4,1.48.36a.61.61,0,0,0,.57-.75c-.13-.89-1.38-1.17-2.13-1.13a2.53,2.53,0,0,0-2.14,1.21.56.56,0,0,0,.76.76Z"/><path class="cls-24" d="M668.27,184.72c.61-.57.77-.12.94.53a7.18,7.18,0,0,1,.21,1.79,6.92,6.92,0,0,1-.22,2.08c-.16.52-.63,1-.58,1.52a.31.31,0,0,0,.29.3c1.92.06,1.53-4.24,1.33-5.34-.24-1.25-1.51-3.26-2.54-1.32a.36.36,0,0,0,.57.44Z"/></g></svg>