<svg xmlns="http://www.w3.org/2000/svg" xmlns:xlink="http://www.w3.org/1999/xlink" viewBox="0 0 960 541"><defs><style>.cls-1{isolation:isolate;}.cls-2{fill:#fbf2e1;}.cls-3{opacity:0.75;}.cls-4{fill:#349e89;fill-opacity:0.22;}.cls-5{fill:#84a98c;fill-opacity:0.47;}.cls-6{fill:#d4e09b;fill-opacity:0.5;}.cls-7{fill:#568de6;}.cls-8{fill:#629df9;}.cls-9{fill:#5c98f9;}.cls-10{fill:#a6c6ee;}.cls-11,.cls-13{fill:#fff;}.cls-11{opacity:0.53;}.cls-11,.cls-15,.cls-17{mix-blend-mode:screen;}.cls-12{fill:#98c3fb;}.cls-14{fill:#4c85f7;}.cls-15{fill:#e5d5c9;opacity:0.11;}.cls-16{fill:#b4b4b4;}.cls-17{fill:#e59387;}.cls-18{fill:#3965b8;}.cls-19{fill:#d2e5fc;}.cls-20{fill:#2c4d8a;}.cls-21{fill:#505050;}.cls-22{fill:#282828;opacity:0.5;}.cls-23{fill:#4f1a26;}.cls-24{fill:#494948;}.cls-25{fill:#6d6c6c;}.cls-26{fill:#8a8888;}.cls-27{fill:#19283a;}.cls-28{fill:#961c36;}.cls-29{fill:#c40043;}.cls-30{fill:#622131;}.cls-31{fill:#9f1238;}.cls-32,.cls-41,.cls-46,.cls-50,.cls-52{fill:none;}.cls-32{stroke:#622131;stroke-width:3px;}.cls-32,.cls-52{stroke-linecap:round;}.cls-32,.cls-46,.cls-50{stroke-miterlimit:10;}.cls-33{fill:#a7d4f5;}.cls-34{fill:#a0a09f;}.cls-35{fill:#391526;}.cls-36{fill:#270b17;}.cls-37{fill:#e1a57c;}.cls-38{fill:#a33f57;}.cls-39{fill:#183a58;}.cls-40{fill:#efc1a1;}.cls-42{fill:#2f2f2b;}.cls-43{fill:url(#linear-gradient);}.cls-44{fill:url(#linear-gradient-2);}.cls-45{fill:url(#linear-gradient-3);}.cls-46{stroke:#452f20;stroke-width:0.82px;}.cls-47{fill:#275e7a;}.cls-48{fill:#3f3e3e;}.cls-49{fill:#2e2e2d;}.cls-50{stroke:#d8e4ee;stroke-width:1.05px;}.cls-51{fill:#a61a40;}.cls-52{stroke:#661d32;stroke-linejoin:round;stroke-width:2.14px;}.cls-53{fill:#a11238;}.cls-54{fill:#7d142c;}.cls-55{fill:#fafafa;}</style><linearGradient id="linear-gradient" x1="208.13" y1="163.77" x2="280.96" y2="163.77" gradientUnits="userSpaceOnUse"><stop offset="0" stop-color="#4a332b"/><stop offset="1" stop-color="#382723"/></linearGradient><linearGradient id="linear-gradient-2" x1="-21573.57" y1="-3901.53" x2="-21572.31" y2="-3893.51" gradientTransform="matrix(0.99, 0.12, -0.12, 0.99, 21215.83, 6623.19)" gradientUnits="userSpaceOnUse"><stop offset="0" stop-color="#ba916c"/><stop offset="1" stop-color="#ba916c" stop-opacity="0"/></linearGradient><linearGradient id="linear-gradient-3" x1="-21878.95" y1="-1850.63" x2="-21870.82" y2="-1850.63" gradientTransform="matrix(0.97, 0.25, -0.25, 0.97, 20998.77, 7380.76)" xlink:href="#linear-gradient"/></defs><g class="cls-1"><g id="BACKGROUND"><rect class="cls-2" y="1" width="960" height="540"/><g class="cls-3"><rect class="cls-4" y="-1" width="960" height="540" transform="translate(960 539) rotate(-180)"/><path class="cls-4" d="M960,103.58s-426.47-161.33-536.06,0-265.81,22.7-348.18,22.7S.13,226,.13,226V525.38H960Z" transform="translate(0 1)"/><path class="cls-5" d="M.13,253.46c73.74-13.93,280.4-53.38,389.92-78.55,134.85-31,36.15,90.7,136.51,108.49s90.89-68.55,196.89-102.93c60.23-19.53,160.86,6.87,236.55,33.32V525.38H.13Z" transform="translate(0 1)"/><path class="cls-6" d="M165.92,281.59C181.73,248.44,447,127.45,480.67,120.16c35.37-7.67,128.67,2.75,148.07-5.19,14.4-5.9,231-5.92,331.26,2.7V339.89c-117.65-2.2-305.55,14.52-336.27-19.58C576,267.28,150.11,314.73,165.92,281.59Z" transform="translate(0 1)"/><path class="cls-7" d="M174.28,424.43h73.5V306c-16.39-15.66-25.58-24.44-42-40.09H174.28Z" transform="translate(0 1)"/><rect class="cls-7" x="174.28" y="206.78" width="36.75" height="107.29" transform="translate(385.31 521.85) rotate(-180)"/><rect class="cls-8" x="516.52" y="331.45" width="36.75" height="78.7" transform="translate(1069.8 742.6) rotate(-180)"/><path class="cls-9" d="M314.22,409h73.5V401l-73.5-73.5h0Z" transform="translate(0 1)"/><path class="cls-9" d="M399.35,407.07h50.23V284.71l-34.33-32.79h-15.9Z" transform="translate(0 1)"/><path class="cls-8" d="M456.89,408.19h50.23V322l-29.47-28.15H456.89Z" transform="translate(0 1)"/><rect class="cls-9" x="314.22" y="299.82" width="36.75" height="50.12" transform="translate(665.19 650.75) rotate(-180)"/><rect class="cls-9" x="222.61" y="243.06" width="103.58" height="177.46" rx="6.7"/><rect class="cls-10" x="249.75" y="243.06" width="76.43" height="177.46" rx="5.75"/><rect class="cls-11" x="253.38" y="250.13" width="69.41" height="7.48" rx="3.5" transform="translate(576.18 508.75) rotate(-180)"/><rect class="cls-11" x="253.38" y="261.54" width="69.41" height="7.48" rx="3.5" transform="translate(576.18 531.56) rotate(-180)"/><rect class="cls-11" x="253.38" y="272.94" width="69.41" height="7.48" rx="3.5" transform="translate(576.18 554.36) rotate(-180)"/><rect class="cls-11" x="253.38" y="284.35" width="69.41" height="7.48" rx="3.5" transform="translate(576.18 577.17) rotate(-180)"/><rect class="cls-11" x="253.38" y="295.75" width="69.41" height="7.48" rx="3.5" transform="translate(576.18 599.98) rotate(180)"/><rect class="cls-11" x="253.38" y="307.15" width="69.41" height="7.48" rx="3.5" transform="translate(576.18 622.79) rotate(-180)"/><rect class="cls-11" x="253.38" y="318.56" width="69.41" height="7.48" rx="3.5" transform="translate(576.18 645.6) rotate(-180)"/><rect class="cls-11" x="253.38" y="329.96" width="69.41" height="7.48" rx="3.5" transform="translate(576.18 668.4) rotate(180)"/><rect class="cls-11" x="253.38" y="341.37" width="69.41" height="7.48" rx="3.5" transform="translate(576.18 691.21) rotate(180)"/><rect class="cls-11" x="253.38" y="352.77" width="69.41" height="7.48" rx="3.5" transform="translate(576.18 714.02) rotate(-180)"/><rect class="cls-11" x="253.38" y="364.17" width="69.41" height="7.48" rx="3.5" transform="translate(576.18 736.83) rotate(180)"/><rect class="cls-11" x="253.38" y="375.58" width="69.41" height="7.48" rx="3.5" transform="translate(576.18 759.64) rotate(180)"/><rect class="cls-11" x="253.38" y="386.98" width="69.41" height="7.48" rx="3.5" transform="translate(576.18 782.45) rotate(-180)"/><rect class="cls-11" x="253.38" y="398.39" width="69.41" height="7.48" rx="3.5" transform="translate(576.18 805.25) rotate(-180)"/><rect class="cls-11" x="253.38" y="409.79" width="69.41" height="7.48" rx="3.5" transform="translate(576.18 828.06) rotate(-180)"/><rect class="cls-9" x="35.51" y="70.41" width="160.3" height="349.11" rx="9.97" transform="translate(231.32 490.93) rotate(-180)"/><rect class="cls-12" x="87.31" y="70.41" width="108.5" height="349.11" rx="8.2" transform="translate(283.12 490.93) rotate(-180)"/><path class="cls-11" d="M175.76,419.52h0a7.82,7.82,0,0,0,8-7.64V87.18a7.82,7.82,0,0,0-8-7.64h0a7.82,7.82,0,0,0-8,7.64v324.7A7.82,7.82,0,0,0,175.76,419.52Z" transform="translate(0 1)"/><path class="cls-11" d="M151.76,419.52h0a7.82,7.82,0,0,0,8-7.64V87.18a7.82,7.82,0,0,0-8-7.64h0a7.82,7.82,0,0,0-8,7.64v324.7A7.82,7.82,0,0,0,151.76,419.52Z" transform="translate(0 1)"/><path class="cls-11" d="M127.76,419.52h0a7.82,7.82,0,0,0,8-7.64V87.18a7.82,7.82,0,0,0-8-7.64h0a7.82,7.82,0,0,0-8,7.64v324.7A7.82,7.82,0,0,0,127.76,419.52Z" transform="translate(0 1)"/><path class="cls-11" d="M103.76,419.52h0a7.82,7.82,0,0,0,8-7.64V87.18a7.82,7.82,0,0,0-8-7.64h0a7.82,7.82,0,0,0-8,7.64v324.7A7.82,7.82,0,0,0,103.76,419.52Z" transform="translate(0 1)"/><rect class="cls-12" x="3.79" y="230.57" width="101.25" height="196.97" rx="9.89"/><path class="cls-9" d="M7.79,229.57h19c-2.21,0-4,1.06-4,2.36V424.18c0,1.3,1.79,2.36,4,2.36h-19c-2.21,0-4-1.06-4-2.36V231.93C3.79,230.63,5.58,229.57,7.79,229.57Z" transform="translate(0 1)"/><rect class="cls-13" x="85.61" y="236.98" width="16.21" height="5.13" rx="2.4"/><rect class="cls-13" x="27.41" y="236.98" width="16.21" height="5.13" rx="2.4"/><rect class="cls-13" x="46.81" y="236.98" width="16.21" height="5.13" rx="2.4"/><rect class="cls-13" x="66.21" y="236.98" width="16.21" height="5.13" rx="2.4"/><rect class="cls-13" x="85.61" y="250.36" width="16.21" height="5.13" rx="2.4"/><rect class="cls-13" x="27.41" y="250.36" width="16.21" height="5.13" rx="2.4"/><rect class="cls-13" x="46.81" y="250.36" width="16.21" height="5.13" rx="2.4"/><rect class="cls-13" x="66.21" y="250.36" width="16.21" height="5.13" rx="2.4"/><rect class="cls-13" x="85.61" y="263.74" width="16.21" height="5.13" rx="2.4"/><rect class="cls-13" x="27.41" y="263.74" width="16.21" height="5.13" rx="2.4"/><rect class="cls-13" x="46.81" y="263.74" width="16.21" height="5.13" rx="2.4"/><rect class="cls-13" x="66.21" y="263.74" width="16.21" height="5.13" rx="2.4"/><rect class="cls-13" x="85.61" y="277.13" width="16.21" height="5.13" rx="2.4"/><rect class="cls-13" x="27.41" y="277.13" width="16.21" height="5.13" rx="2.4"/><rect class="cls-13" x="46.81" y="277.13" width="16.21" height="5.13" rx="2.4"/><rect class="cls-13" x="66.21" y="277.13" width="16.21" height="5.13" rx="2.4"/><rect class="cls-13" x="85.61" y="290.51" width="16.21" height="5.13" rx="2.4"/><rect class="cls-13" x="27.41" y="290.51" width="16.21" height="5.13" rx="2.4"/><rect class="cls-13" x="46.81" y="290.51" width="16.21" height="5.13" rx="2.4"/><rect class="cls-13" x="66.21" y="290.51" width="16.21" height="5.13" rx="2.4"/><rect class="cls-13" x="85.61" y="303.9" width="16.21" height="5.13" rx="2.4"/><rect class="cls-13" x="27.41" y="303.9" width="16.21" height="5.13" rx="2.4"/><rect class="cls-13" x="46.81" y="303.9" width="16.21" height="5.13" rx="2.4"/><rect class="cls-13" x="66.21" y="303.9" width="16.21" height="5.13" rx="2.4"/><rect class="cls-13" x="85.61" y="317.28" width="16.21" height="5.13" rx="2.4"/><rect class="cls-13" x="27.41" y="317.28" width="16.21" height="5.13" rx="2.4"/><rect class="cls-13" x="46.81" y="317.28" width="16.21" height="5.13" rx="2.4"/><rect class="cls-13" x="66.21" y="317.28" width="16.21" height="5.13" rx="2.4"/><rect class="cls-13" x="85.61" y="330.66" width="16.21" height="5.13" rx="2.4"/><rect class="cls-13" x="27.41" y="330.66" width="16.21" height="5.13" rx="2.4"/><rect class="cls-13" x="46.81" y="330.66" width="16.21" height="5.13" rx="2.4"/><rect class="cls-13" x="66.21" y="330.66" width="16.21" height="5.13" rx="2.4"/><rect class="cls-13" x="85.61" y="344.05" width="16.21" height="5.13" rx="2.4"/><rect class="cls-13" x="27.41" y="344.05" width="16.21" height="5.13" rx="2.4"/><rect class="cls-13" x="46.81" y="344.05" width="16.21" height="5.13" rx="2.4"/><rect class="cls-13" x="66.21" y="344.05" width="16.21" height="5.13" rx="2.4"/><rect class="cls-13" x="85.61" y="357.43" width="16.21" height="5.13" rx="2.4"/><rect class="cls-13" x="27.41" y="357.43" width="16.21" height="5.13" rx="2.4"/><rect class="cls-13" x="46.81" y="357.43" width="16.21" height="5.13" rx="2.4"/><rect class="cls-13" x="66.21" y="357.43" width="16.21" height="5.13" rx="2.4"/><rect class="cls-13" x="85.61" y="370.82" width="16.21" height="5.13" rx="2.4"/><rect class="cls-13" x="27.41" y="370.82" width="16.21" height="5.13" rx="2.4"/><rect class="cls-13" x="46.81" y="370.82" width="16.21" height="5.13" rx="2.4"/><rect class="cls-13" x="66.21" y="370.82" width="16.21" height="5.13" rx="2.4"/><rect class="cls-13" x="85.61" y="384.2" width="16.21" height="5.13" rx="2.4"/><rect class="cls-13" x="27.41" y="384.2" width="16.21" height="5.13" rx="2.4"/><rect class="cls-13" x="46.81" y="384.2" width="16.21" height="5.13" rx="2.4"/><rect class="cls-13" x="66.21" y="384.2" width="16.21" height="5.13" rx="2.4"/><rect class="cls-13" x="85.61" y="397.58" width="16.21" height="5.13" rx="2.4"/><rect class="cls-13" x="27.41" y="397.58" width="16.21" height="5.13" rx="2.4"/><rect class="cls-13" x="46.81" y="397.58" width="16.21" height="5.13" rx="2.4"/><rect class="cls-13" x="66.21" y="397.58" width="16.21" height="5.13" rx="2.4"/><rect class="cls-13" x="85.61" y="410.97" width="16.21" height="5.13" rx="2.4"/><rect class="cls-13" x="27.41" y="410.97" width="16.21" height="5.13" rx="2.4"/><rect class="cls-13" x="46.81" y="410.97" width="16.21" height="5.13" rx="2.4"/><rect class="cls-13" x="66.21" y="410.97" width="16.21" height="5.13" rx="2.4"/><rect class="cls-14" y="435.45" width="960" height="104.55" transform="translate(960 976.45) rotate(-180)"/><path class="cls-15" d="M0,467.55C90.45,457.89,208.88,452,338.51,452c284,0,514.29,28.12,514.29,62.79,0,9-15.35,17.47-43,25.18H0Z" transform="translate(0 1)"/><path class="cls-13" d="M392.11,98a37.64,37.64,0,0,0-13.26-2.43c-4.5-6.35-15-10.59-26.93-10.59a42.68,42.68,0,0,0-19.19,4.27c-5.83-7.89-19.21-13.41-34.38-13.41-10,0-19.41,2.33-26.41,6.46-1-.1-2-.14-3-.14-10.85,0-19.68,5.23-19.68,11.66A7.62,7.62,0,0,0,250.54,98Z" transform="translate(0 1)"/><path class="cls-13" d="M732.46,92.46a19,19,0,0,1,6.63-1.22c2.25-3.17,7.5-5.29,13.47-5.29a21.29,21.29,0,0,1,9.59,2.13c2.92-3.94,9.61-6.7,17.19-6.7a26.58,26.58,0,0,1,13.21,3.23c.5,0,1-.07,1.51-.07,5.43,0,9.84,2.61,9.84,5.83a3.81,3.81,0,0,1-.65,2.09Z" transform="translate(0 1)"/><path class="cls-16" d="M1.33,436.91H960V392.2s-16.87,8.39-29,5-13.51-8.39-52-5-33.75,13.73-73.59,13.73-39.15-7.25-70.21-10.68-84.39,24.4-128.27,14.11-198.15-16.59-216-6.48-51.31,11.43-70.89,7.24S1.33,436.91,1.33,436.91Z" transform="translate(0 1)"/><rect class="cls-17" y="459.43" width="960" height="13.91" transform="translate(960 933.76) rotate(-180)"/><path class="cls-18" d="M1.33,349c0,13.22,4.61,23.94,10.29,23.94S21.91,362.19,21.91,349,11.62,325,11.62,325,1.33,335.76,1.33,349Z" transform="translate(0 1)"/><rect class="cls-18" x="9.71" y="366.23" width="2.76" height="16.69" transform="translate(22.17 750.14) rotate(-180)"/><path class="cls-18" d="M60.55,370.21c0,8.85,3.08,16,6.88,16s6.88-7.17,6.88-16-6.88-16-6.88-16S60.55,361.37,60.55,370.21Z" transform="translate(0 1)"/><path class="cls-17" d="M69,376.21c0-7.09-4.43-13.11-6.18-15.21a29.3,29.3,0,0,1,4.58-6.8s6.88,7.17,6.88,16-3,15.91-6.79,16A31.58,31.58,0,0,0,69,376.21Z" transform="translate(0 1)"/><rect class="cls-18" x="66.15" y="381.76" width="1.85" height="11.17" transform="translate(134.14 775.68) rotate(-180)"/><path class="cls-18" d="M247.78,355.65c0,8.84,3.08,16,6.88,16s6.89-7.17,6.89-16-6.89-16-6.89-16S247.78,346.8,247.78,355.65Z" transform="translate(0 1)"/><rect class="cls-18" x="253.38" y="367.19" width="1.85" height="11.17" transform="translate(508.61 746.55) rotate(-180)"/><path class="cls-18" d="M266.54,346.25c0,12.67,4.42,22.95,9.87,22.95s9.86-10.28,9.86-22.95-9.86-23-9.86-23S266.54,333.57,266.54,346.25Z" transform="translate(0 1)"/><path class="cls-17" d="M280.26,352c0-10.19-6.37-18.82-8.87-21.82a40.51,40.51,0,0,1,5-6.88s9.86,10.28,9.86,23c0,12.26-4.13,22.28-9.33,22.92C279,365,280.26,358.83,280.26,352Z" transform="translate(0 1)"/><rect class="cls-18" x="274.57" y="362.79" width="2.65" height="16" transform="translate(551.79 742.59) rotate(-180)"/><path class="cls-19" d="M19,447.33c1.11-.1,1.77.75,1,1.24a9.7,9.7,0,0,1-9.25,0c-.81-.49-.15-1.34,1-1.24A40.79,40.79,0,0,0,19,447.33Z" transform="translate(0 1)"/><path class="cls-19" d="M39.18,441.71c1.1-.1,1.76.75,1,1.24a9.73,9.73,0,0,1-9.25,0c-.81-.49-.15-1.34,1-1.24A42.72,42.72,0,0,0,39.18,441.71Z" transform="translate(0 1)"/><path class="cls-19" d="M54,441.71c1.11-.1,1.77.75,1,1.24a9.73,9.73,0,0,1-9.25,0c-.81-.49-.14-1.34,1-1.24A42.72,42.72,0,0,0,54,441.71Z" transform="translate(0 1)"/><path class="cls-19" d="M100.32,439.22c1.11-.1,1.77.76,1,1.25a9.73,9.73,0,0,1-9.25,0c-.8-.49-.14-1.35,1-1.25A40.79,40.79,0,0,0,100.32,439.22Z" transform="translate(0 1)"/><path class="cls-19" d="M112.55,441.71c1.1-.1,1.76.75,1,1.24a9.73,9.73,0,0,1-9.25,0c-.81-.49-.15-1.34,1-1.24A42.72,42.72,0,0,0,112.55,441.71Z" transform="translate(0 1)"/><path class="cls-19" d="M120.41,438.05c1.1-.11,1.76.75,1,1.24a9.73,9.73,0,0,1-9.25,0c-.81-.49-.15-1.35,1-1.24A42.72,42.72,0,0,0,120.41,438.05Z" transform="translate(0 1)"/><path class="cls-19" d="M718.23,448c1.62-.15,2.59,1.1,1.41,1.82a14.24,14.24,0,0,1-13.56,0c-1.18-.72-.21-2,1.41-1.82A60.2,60.2,0,0,0,718.23,448Z" transform="translate(0 1)"/><path class="cls-19" d="M775.79,443.35c1.92-.18,3.07,1.31,1.66,2.16a16.88,16.88,0,0,1-16.09,0c-1.41-.85-.26-2.34,1.67-2.16A71.55,71.55,0,0,0,775.79,443.35Z" transform="translate(0 1)"/><path class="cls-19" d="M912.61,443.35c1.92-.18,3.07,1.31,1.67,2.16a16.9,16.9,0,0,1-16.1,0c-1.41-.85-.26-2.34,1.67-2.16A71.55,71.55,0,0,0,912.61,443.35Z" transform="translate(0 1)"/><path class="cls-19" d="M939.39,439.77c1.35-.12,2.15.93,1.17,1.52a11.84,11.84,0,0,1-11.29,0c-1-.59-.18-1.64,1.17-1.52A49.55,49.55,0,0,0,939.39,439.77Z" transform="translate(0 1)"/><path class="cls-19" d="M929,445.58c1.35-.12,2.15.92,1.17,1.52a11.84,11.84,0,0,1-11.29,0c-1-.6-.18-1.64,1.17-1.52A49.55,49.55,0,0,0,929,445.58Z" transform="translate(0 1)"/><path class="cls-19" d="M951.81,447.89c.84-.08,1.35.58.73.95a7.41,7.41,0,0,1-7,0c-.62-.37-.11-1,.73-.95A30.7,30.7,0,0,0,951.81,447.89Z" transform="translate(0 1)"/><path class="cls-18" d="M960,436.91H.13V376.68c1.67-.6,19-6,60.05,9.86,43.26,16.74,105.46,14.16,161.57-5.61s123.72,22.35,161.58,25.23,83.16-1.15,104.79-7.5,62.87.74,94.65,8.45,43.94,18.1,74.36,10,60.85-1.07,94.65,2.93,30.76,7.17,43.94-4.08,7.08-.23,29.39,3.54c21.19,3.59,21.66-3.79,33.09-4.89,8.46-.82,18.29,2.64,26.77,3.51,19.53,2,53.58-1.83,75,6.05Z" transform="translate(0 1)"/><path class="cls-18" d="M918.55,390.49c0,13.22,4.6,23.93,10.29,23.93s10.28-10.71,10.28-23.93-10.28-23.93-10.28-23.93S918.55,377.27,918.55,390.49Z" transform="translate(0 1)"/><rect class="cls-18" x="926.92" y="407.74" width="2.76" height="16.69" transform="translate(1856.61 833.17) rotate(-180)"/><path class="cls-18" d="M895.94,399.4c0,9.32,3.25,16.88,7.25,16.88s7.26-7.56,7.26-16.88-7.26-16.87-7.26-16.87S895.94,390.08,895.94,399.4Z" transform="translate(0 1)"/><rect class="cls-18" x="901.84" y="411.57" width="1.94" height="11.76" transform="translate(1805.63 835.9) rotate(-180)"/><rect class="cls-20" y="424.43" width="960" height="12.49" transform="translate(960 862.34) rotate(-180)"/><path class="cls-9" d="M0,407.28a164.47,164.47,0,0,1,44.75,7.06c42.77,12.66,76.32-7.09,97.38-10.83s76.32,22.23,111.2,18.43,61.85-9.21,88.17-9.21,53.29,24.58,53.29,24.58H0Z" transform="translate(0 1)"/></g><rect class="cls-21" y="459.43" width="960" height="80.57" transform="translate(960 1000.43) rotate(-180)"/></g><g id="OBJECTS"><ellipse class="cls-22" cx="260.47" cy="483.77" rx="165.32" ry="3.59"/><rect class="cls-23" x="100.69" y="327.39" width="2.36" height="45.31" transform="translate(-240.84 226.71) rotate(-53.83)"/><circle class="cls-24" cx="393.36" cy="436.21" r="47.61" transform="translate(-193.24 406.91) rotate(-45)"/><circle class="cls-25" cx="393.36" cy="436.21" r="40.52" transform="translate(-134.77 180.13) rotate(-22)"/><circle class="cls-26" cx="393.36" cy="436.21" r="29.76" transform="translate(-100.65 754.98) rotate(-80.71)"/><circle class="cls-24" cx="394.56" cy="436.21" r="13.78" transform="translate(-99.42 756.51) rotate(-80.75)"/><circle class="cls-24" cx="139.81" cy="436.21" r="47.61" transform="translate(-267.5 227.62) rotate(-45)"/><circle class="cls-25" cx="139.81" cy="436.21" r="40.52" transform="matrix(0.93, -0.37, 0.37, 0.93, -153.23, 85.14)"/><circle class="cls-26" cx="139.81" cy="436.21" r="29.76" transform="translate(-313.59 502.45) rotate(-80.42)"/><circle class="cls-24" cx="139.81" cy="436.21" r="13.78" transform="matrix(0.16, -0.99, 0.99, 0.16, -313.21, 505.07)"/><rect class="cls-23" x="135.72" y="337.98" width="4.17" height="12.2"/><rect class="cls-23" x="158.2" y="337.98" width="4.17" height="12.2"/><path class="cls-27" d="M183.85,310.89c5.84,10,6,21.24,39.24,23,31.65,1.64,43.57,7.09,56.44,5.84,9.26-.9,12.32-24.19-.42-25.13-14.55-1.06-55.72-3.89-55.72-3.89Z" transform="translate(0 1)"/><path class="cls-27" d="M261.94,336.82l26.58,87.24,20.91-.36s-24.2-94.07-26.67-103.09C274.52,323.9,261.94,336.82,261.94,336.82Z" transform="translate(0 1)"/><path class="cls-28" d="M240.55,340.35s-97,1.83-104,2.13-9.05,1.8-8.23,4.58c.5,1.7.4,3.54-2.78,7.1a128.47,128.47,0,0,1-11,10.73c-8.64,7.16,65.64,58.47,69.26,61.57,7.51,6.41,13.37,11.36,13.37,11.36s109.83.11,121.72.11,52.76-43,58.06-66.42c-19.82-10.94-28.9-35.85-33.08-45.32S327.07,283.3,326,279.4s-9.65-1.44-6,7,18.08,47.87,20.14,56.5,2.46,19.92-4.32,34.1-22,33.69-25.27,37.38-10.68,6-20.54,6H242.84c-8,0-27-15.19-27.73-33.48C213.88,356.43,240.55,340.35,240.55,340.35Z" transform="translate(0 1)"/><path class="cls-29" d="M72,423.86s4.16-47.34,48.27-63.3c32.62-11.8,67.43,3.17,79.42,32.88,7.81,19.36,2.11,40.75.15,45.5C180.33,442.87,86.26,435,72,423.86Z" transform="translate(0 1)"/><path class="cls-29" d="M326,437.65H193.35a3.49,3.49,0,1,0,0,7H326a3.49,3.49,0,1,0,0-7Z" transform="translate(0 1)"/><path class="cls-30" d="M185.81,342.22c-9.5-.29-10.31-10.8-.56-11.26s59.48,3.6,63.31,3.89,3.65,7.24-1.38,7.3C238.68,342.24,198,342.6,185.81,342.22Z" transform="translate(0 1)"/><path class="cls-29" d="M75.28,267.57H169.8a1.17,1.17,0,0,1,1.17,1.17V337a0,0,0,0,1,0,0H74.11a0,0,0,0,1,0,0V268.74A1.17,1.17,0,0,1,75.28,267.57Z"/><path class="cls-31" d="M74.11,277.81V336H171V313.09C116.5,325.09,87.09,309.69,74.11,277.81Z" transform="translate(0 1)"/><line class="cls-32" x1="121.97" y1="266.48" x2="121.97" y2="336.78"/><path class="cls-30" d="M173.22,339.62H70.13a2.73,2.73,0,0,1,0-5.46H173.22a2.73,2.73,0,0,1,0,5.46Z" transform="translate(0 1)"/><path class="cls-33" d="M342.37,273.76v25.33C348.91,298.26,348.91,274.59,342.37,273.76Z" transform="translate(0 1)"/><path class="cls-29" d="M329.31,286.42a12.7,12.7,0,0,0,9.95,12.39V274A12.69,12.69,0,0,0,329.31,286.42Z" transform="translate(0 1)"/><path class="cls-34" d="M342,273.72a12.55,12.55,0,0,0-2.76.32v24.77a12.55,12.55,0,0,0,2.76.32c.12,0,.23,0,.35,0V273.76C342.25,273.75,342.14,273.72,342,273.72Z" transform="translate(0 1)"/><path class="cls-35" d="M243.86,417.07s15.34,1.61,17.72,2.09,28.68,7.82,28.68,14.68H264c-8.35,0-26.25.85-28.66,0-.73-.26-2.23-2.58-1-4.91C236.49,424.72,242.39,417,243.86,417.07Z" transform="translate(0 1)"/><rect class="cls-36" x="235.38" y="434.84" width="54.89" height="3.74"/><rect class="cls-37" x="225.83" y="192.36" width="16.39" height="17.72" transform="translate(162.88 -98.1) rotate(35.98)"/><path class="cls-37" d="M264,272.43c4.4,1.76,20.79,8.6,46.37,7.69,2.88-1.23,15.23-2.17,15.23-2.17s-1.76-3.47-6.83-3.79c-10.74-.69-16.64-1.93-25.09-3a84,84,0,0,1-23.58-6.39c-4.25-1.79-11.54-7.13-11.54-7.13l-8.49,8.26A109.09,109.09,0,0,0,264,272.43Z" transform="translate(0 1)"/><path class="cls-38" d="M212,210.05c6.22-3.57,13.77-1,19.42,11.19s13.67,25.51,29.49,34.07c-1.39,6.84-11.31,12.11-11.31,12.11S225.86,257.35,217.84,244C207.37,226.48,205.74,213.61,212,210.05Z" transform="translate(0 1)"/><path class="cls-39" d="M183.85,310.89c.17,10.41,6,21.24,39.24,23,31.65,1.64,51.28,2.09,64.15.84,9.25-.9,12.31-24.19-.42-25.12-14.56-1.07-55.73-3.89-55.73-3.89Z" transform="translate(0 1)"/><path class="cls-39" d="M268.25,328.87l-24.5,87.85,21.07,3s26.93-84.37,29.7-93.31C285.8,324.74,268.25,328.87,268.25,328.87Z" transform="translate(0 1)"/><path class="cls-29" d="M183.85,310.89c0-11.1,6.37-57.92,12.63-76.86,6.35-19.19,17.55-35.85,29.89-32.21,20.21,6,13.37,29.45,12.27,46.72s-7.55,57.14-7.55,57.14A252.39,252.39,0,0,1,183.85,310.89Z" transform="translate(0 1)"/><path class="cls-40" d="M271.54,277.83c4.24,1.92,8.4,9.84,44.2,6.92,5.34.41,12.8-1.35,12.8-1.35s-.46-8.87-8.08-8.38c-4.89.31-12.42,1.72-20.52.71a69.86,69.86,0,0,1-22.71-6.85c-4.1-2-11.18-8-11.18-8l-8,9.72A96.2,96.2,0,0,0,271.54,277.83Z" transform="translate(0 1)"/><rect class="cls-41" x="228.74" y="186.19" width="17.51" height="28.28" transform="translate(188.8 -105.54) rotate(40.83)"/><path class="cls-42" d="M220.56,207c5.89-4.26,13.17-1.48,18.81,12.49s13.56,29.14,28.87,38.67c-1.21,7.93-10.61,14.24-10.61,14.24s-22.87-11.1-30.8-26.37C216.48,226,214.68,211.21,220.56,207Z" transform="translate(0 1)"/><path class="cls-40" d="M228.26,194.61s26.1,18.56,33.9,12.4c1.18-.93,4.43-9.36,6.44-15.52,3-9.09,5.26-21.1,3.63-29.32-2.71-13.58-16.82-33.17-29.94-29.57S199.21,151.89,228.26,194.61Z" transform="translate(0 1)"/><path class="cls-40" d="M266.23,173l-.06,0,.79-1.64c3.21,4.19,7.15,7.29,10.72,10.54-8.34,7-15.8-.37-13.32-9.46a5.13,5.13,0,0,1,1.87.6C266.66,173.29,266.6,173.2,266.23,173Z" transform="translate(0 1)"/><path class="cls-43" d="M273.7,156.13s11.17-8.86.48-16.44c3,8-1.36,11.89-1.36,11.89a6.7,6.7,0,0,0-1.43-5c-.16,4.18-2.64,3.67-6.33-1.21s-5-7.81-9.71-10.62c-5.12-3.05-10.27-5.13-18.75-3.75s-15.62,4.26-23,13.4-6.06,22.54-2.81,30.07c3.33,7.74,10.06,16.58,15.84,22.58,4.83-1.86,7.3-14.8,8.91-21.12,3.2-5.34,8.73-2.13,10.89-6.37.86-1.66,1.11-4.44,1.2-7.55,9.18,4.38,29.44,3.16,33.37-11.68C279.05,153.81,273.7,156.13,273.7,156.13Z" transform="translate(0 1)"/><path class="cls-40" d="M233.91,172.86c1.07,4.36,5.39,9.19,8.26,8.49s4.32-4.8,3.26-9.16-3.89-9.94-7.64-8.8C235,164.25,232.85,168.5,233.91,172.86Z" transform="translate(0 1)"/><path class="cls-44" d="M269.37,164.46c.18,1.95.66,9-4.82,9.21s-3.53-8.19-3.53-8.19S266.87,164.61,269.37,164.46Z" transform="translate(0 1)"/><path class="cls-45" d="M268.13,164c-5.89-.41-10.25,2.31-4.82,2.35S271.2,164.17,268.13,164Z" transform="translate(0 1)"/><path class="cls-46" d="M262.84,173c1.72-3,5.08-1.69,4.85,1" transform="translate(0 1)"/><rect class="cls-47" x="241.48" y="411.49" width="27.33" height="7.9" rx="1.31" transform="translate(57.04 -29.03) rotate(7.58)"/><path class="cls-29" d="M367.54,372.06c50.38-17.54,66.14,30.44,66.14,30.44s-26.68-6.13-47.06,8c-23.39,16.16-35.3,29.17-52.87,24C330.37,427.11,336.69,382.8,367.54,372.06Z" transform="translate(0 1)"/><circle class="cls-48" cx="322.14" cy="286.62" r="6.92"/><circle class="cls-49" cx="322.14" cy="286.62" r="3.35"/><line class="cls-50" x1="254.39" y1="181.47" x2="242.27" y2="170.13"/><line class="cls-50" x1="248.07" y1="200.83" x2="222" y2="190.93"/><path class="cls-29" d="M211.77,185.42s-17.72-38.12,12.31-53,46.07,16.62,46.07,16.62l-25.09,13.52s.47,4,.8,10c.3,5.59-.67,15.62-9.91,18.77C225.81,194.84,215.84,191.62,211.77,185.42Z" transform="translate(0 1)"/><path class="cls-51" d="M206.88,156.52c-1.79,14.53,4.89,28.9,4.89,28.9,4.07,6.2,14,9.42,24.18,6,9.24-3.15,10.21-13.18,9.91-18.77,0-.3,0-.58-.05-.87A42.73,42.73,0,0,1,206.88,156.52Z" transform="translate(0 1)"/><path class="cls-52" d="M211.77,185.42s5.73,9.61,20.65,6.81c10-1.89,13.38-9.6,13.38-16.88a106.38,106.38,0,0,0-.74-12.78l25.09-13.52" transform="translate(0 1)"/><path class="cls-12" d="M272.56,172.89c-.55,1.13-3.6,3.86-7.52,5.64s-9.45.93-11.6.46c-4.4,5.23-7.61,18.21-6,21.7a33.66,33.66,0,0,0,14.74,5.65,3,3,0,0,0,2.32-.75c6.73-6,13.75-21.65,13.48-23.79S273,175.78,272.56,172.89Z" transform="translate(0 1)"/><path class="cls-39" d="M254.67,180.87c5.75.72,10.67.14,15-3.22a20.32,20.32,0,0,0,3.37-3.38,4.43,4.43,0,0,1-.47-1.38c-.55,1.13-3.6,3.86-7.52,5.64s-9.46.93-11.6.46c-4.4,5.23-7.61,18.21-6,21.7a33.66,33.66,0,0,0,14.74,5.65,3,3,0,0,0,2.3-.73c-3-.67-12.34-3-15.19-5.55C248,195.73,251.46,184.22,254.67,180.87Z" transform="translate(0 1)"/><path class="cls-53" d="M199.69,393.44a57.53,57.53,0,0,0-19.21-24.75C189.74,404,136.8,452.13,73,417.55a58.18,58.18,0,0,0-1,6.31c14.26,11.15,108.33,19,127.84,15.08C201.8,434.19,207.5,412.8,199.69,393.44Z" transform="translate(0 1)"/><path class="cls-54" d="M138.68,356.67a68.21,68.21,0,0,1,15.31.52,63.55,63.55,0,0,1,14.79,4.2c1.17.53,2.39,1,3.51,1.6l3.41,1.82,3.27,2.07.81.53.77.58,1.55,1.16A59.22,59.22,0,0,1,193,380.07a60,60,0,0,1,7.65,13.48,56.67,56.67,0,0,1,3.6,15.1,74.94,74.94,0,0,1-.11,15.49,73.59,73.59,0,0,1-1.24,7.66,49.75,49.75,0,0,1-2.14,7.54l-.2.51L200,440a56.18,56.18,0,0,1-8.21.85c-2.73.13-5.44.18-8.16.17-5.43,0-10.85-.19-16.26-.44s-10.82-.61-16.22-1S140.4,438.61,135,438c-10.76-1.2-21.5-2.65-32.16-4.57-5.32-1-10.63-2.11-15.87-3.51-2.61-.72-5.22-1.46-7.76-2.4A27.46,27.46,0,0,1,72,423.86a27.07,27.07,0,0,0,7.34,3.34c2.55.86,5.18,1.52,7.79,2.16,5.26,1.23,10.58,2.18,15.91,3,10.66,1.72,21.4,3,32.15,4s21.52,1.83,32.31,2.26c5.39.22,10.78.37,16.17.34a103.9,103.9,0,0,0,16-1l-.75.62a49.36,49.36,0,0,0,2.07-7.17,74.08,74.08,0,0,0,1.45-22.53A54.74,54.74,0,0,0,199,394.21,62.48,62.48,0,0,0,191.77,381a57.49,57.49,0,0,0-10.47-10.84L179.8,369l-.74-.59-.79-.52-3.16-2.09L171.79,364a14.83,14.83,0,0,0-1.69-.85l-1.72-.8a62.58,62.58,0,0,0-14.48-4.58A72.42,72.42,0,0,0,138.68,356.67Z" transform="translate(0 1)"/><path class="cls-53" d="M369.63,371.37l-2.09.69c-30.85,10.74-37.17,55.05-33.79,62.44,13.46,3.93,23.6-2.79,38.12-13.41C359.71,416.06,351.21,396.09,369.63,371.37Z" transform="translate(0 1)"/></g><g id="Layer_3" data-name="Layer 3"><path class="cls-42" d="M526.94,173.17c-1.88,0-4.66-.16-6.87-.25l-3.18,18.39a2.17,2.17,0,0,1-2,1.63H501.85c-.9,0-1.47-.49-1.47-1.22v-.25l9.48-53.6c.73-3.93,2-4.83,5.64-5.4A137.22,137.22,0,0,1,533,131.41c11.37,0,22.56,4.66,22.56,16.18C555.54,164.91,543.61,173.17,526.94,173.17Zm3.84-27.87h-1.15c-1.06,0-2.45.08-3.67.08h-1l-2.46,13.9c.25,0,1.56.08,2.86.08h2.87c6.53,0,10.37-3.27,10.37-9.48C538.62,146.28,535.6,145.3,530.78,145.3Z" transform="translate(0 1)"/><path class="cls-42" d="M605.4,191.31a1.56,1.56,0,0,1-1.55,1.63H590a1.38,1.38,0,0,1-1.39-1.55L588.32,180H573.77l-4.33,11.36a2.07,2.07,0,0,1-1.88,1.55H553.1c-.74,0-1.15-.32-1.15-1.06,0-.08.09-.32.17-.65l19.77-50c3.27-8.18,9.56-9.73,17.41-9.73,7.68,0,13.73,1.55,14,9.73l2.13,50ZM587.91,146.2c0-.73,0-1.14-.73-1.14s-.82.41-1.07,1.14L578.43,167h9.81Z" transform="translate(0 1)"/><path class="cls-42" d="M659.26,134.76l-1.88,10.46a1.58,1.58,0,0,1-1.71,1.55h-.25a105,105,0,0,0-11.36-.73c-4.41,0-8.58,1.55-10.54,12.34L632,166.79a30.63,30.63,0,0,0-.49,5c0,6.13,3.18,7.35,6.78,7.35a107.08,107.08,0,0,0,11.52-.73H650c.81,0,1.22.41,1.22,1.14V180l-1.88,10.46c-.24,1.06-.65,1.39-2,1.8a40.6,40.6,0,0,1-11.61,1.47c-12.17,0-21.24-6.78-21.24-20.27a42.73,42.73,0,0,1,.65-6.62l1.55-8.41c3.68-20.6,14.39-27,29.75-27A36.47,36.47,0,0,1,657.71,133c.9.33,1.55.49,1.55,1.39Z" transform="translate(0 1)"/><path class="cls-42" d="M718.43,134l-23,28.43L708,191.23a1.84,1.84,0,0,1,.17.57c0,.74-.41,1.14-1.31,1.14h-16c-1,0-1.22-.65-1.47-1.38L679,164.83l-4.57,26.48a2.17,2.17,0,0,1-2,1.63H659.11a1.25,1.25,0,0,1-1.39-1.38v-.25l10.13-57.53a2.08,2.08,0,0,1,2-1.55h13.32c.9,0,1.39.41,1.39,1.3v.25L680,159.28l19.77-25.75a2.62,2.62,0,0,1,2-1.3h16.1c.66,0,1,.24,1,.73A2,2,0,0,1,718.43,134Z" transform="translate(0 1)"/><path class="cls-42" d="M765.59,191.31a1.56,1.56,0,0,1-1.55,1.63H750.15a1.37,1.37,0,0,1-1.39-1.55L748.52,180H734l-4.33,11.36a2.07,2.07,0,0,1-1.88,1.55H713.29c-.73,0-1.14-.32-1.14-1.06,0-.08.08-.32.16-.65l19.78-50c3.27-8.18,9.56-9.73,17.41-9.73,7.68,0,13.73,1.55,14,9.73l2.12,50ZM748.11,146.2c0-.73,0-1.14-.74-1.14s-.82.41-1.06,1.14L738.63,167h9.8Z" transform="translate(0 1)"/><path class="cls-42" d="M826.08,135.17l-1.88,10.3c-.17.89-.58,1.3-1.31,1.3h-.25c-3.18-.24-9.56-.73-15.69-.73-8.17,0-11.68,2.45-13.4,12.26L792,167a33.15,33.15,0,0,0-.49,5.15c0,6.29,3.1,7.35,6.13,7.35a39.34,39.34,0,0,0,4.57-.24l2.95-16.76a2,2,0,0,1,1.79-1.63h12.92a1.25,1.25,0,0,1,1.39,1.39v.24l-4.83,27.38c-.24,1.23-.65,1.63-2,1.88a96.81,96.81,0,0,1-19.29,2c-9.15,0-20.51-5.31-20.51-20.35a37.75,37.75,0,0,1,.57-6.45l1.56-8.58c4.33-23.78,18.47-26.89,30.56-26.89a63.59,63.59,0,0,1,17.49,2.21c.9.24,1.39.41,1.39,1.14A1.63,1.63,0,0,0,826.08,135.17Z" transform="translate(0 1)"/><path class="cls-42" d="M874.46,134l-1.71,10a2.17,2.17,0,0,1-2,1.64H854.28c-2.94,0-4.09.9-4.66,4.09l-1.06,6h20.1a1.25,1.25,0,0,1,1.39,1.39v.25L868.34,167a2.08,2.08,0,0,1-1.88,1.63H846.35l-1.22,6.78A12.88,12.88,0,0,0,845,177c0,1.88,1,2.45,3.35,2.45h16.51a1.25,1.25,0,0,1,1.39,1.39v.25l-1.8,10a2,2,0,0,1-1.88,1.63,118.44,118.44,0,0,1-16.1,1c-9.56,0-18.3-3.43-18.3-14.14a26.18,26.18,0,0,1,.41-4.17L833,149.72c2.86-16.59,12.67-18.31,24.19-18.31a113.65,113.65,0,0,1,15.94,1c.89.08,1.3.49,1.3,1.31Z" transform="translate(0 1)"/><path class="cls-42" d="M923.34,135l-1.8,10.21a1.58,1.58,0,0,1-1.71,1.55h-.17c-3.26-.24-12.5-1.06-18.38-1.06-2.29,0-4.66.74-4.66,3.43,0,1.23.73,1.88,3.6,3.52l10,5.88c5.89,3.51,8.18,7.85,8.18,13.65,0,15.28-12.75,21.49-26.73,21.49a56.16,56.16,0,0,1-16.09-2.12c-.74-.25-1.39-.66-1.39-1.39v-.25l1.71-10a2,2,0,0,1,1.88-1.63h.17c3.35.24,12,1.22,16.34,1.22,3.27,0,6-1.14,6-4.82,0-1.23-.82-2.13-3.19-3.68L886.49,164a15.83,15.83,0,0,1-7-13.49c0-14.79,11.52-19.12,24.51-19.12,6.38,0,15,1,18.15,2,.65.25,1.22.58,1.22,1.31Z" transform="translate(0 1)"/><path class="cls-42" d="M531.45,221.29l-.9,5.2c-1.89,10.83-7.76,15.42-18.11,15.42a63.69,63.69,0,0,1-10.69-.81c-.8-.14-1.23-.47-1.23-1.27a1.85,1.85,0,0,1,.05-.57L506,208.52a1.89,1.89,0,0,1,1.84-1.84,68.57,68.57,0,0,1,11-.81c7.95,0,13,4.07,13,11.82A18.2,18.2,0,0,1,531.45,221.29Zm-14.09-7.19h-.67c-.52,0-1.13.05-1.56.05h-.47l-3.45,19.53c.19,0,.66,0,1.23,0h1.46c3.83,0,5.92-1.52,7-7.24l.9-5.2a18.45,18.45,0,0,0,.29-2.93C522,215,520.38,214.1,517.36,214.1Z" transform="translate(0 1)"/><path class="cls-42" d="M561.25,207.39l-1,5.76a1.25,1.25,0,0,1-1.13.95h-9.55c-1.71,0-2.37.52-2.7,2.37l-.61,3.45h11.63a.72.72,0,0,1,.8.8v.14l-1,5.58a1.21,1.21,0,0,1-1.09.95H545l-.71,3.92a6.73,6.73,0,0,0-.09.95c0,1.09.56,1.42,1.93,1.42h9.56a.72.72,0,0,1,.8.8v.14l-1,5.77a1.16,1.16,0,0,1-1.09,1,67.93,67.93,0,0,1-9.31.57c-5.54,0-10.6-2-10.6-8.18a15.7,15.7,0,0,1,.24-2.42l2.6-14.84c1.66-9.6,7.33-10.6,14-10.6a65.07,65.07,0,0,1,9.22.57c.52.05.76.28.76.76Z" transform="translate(0 1)"/><path class="cls-42" d="M582.63,234.62l-1,5.77a1.18,1.18,0,0,1-1.09,1,49.2,49.2,0,0,1-7.47.57c-5.35,0-10.6-1.75-10.6-8.14a16.3,16.3,0,0,1,.24-2.46l4.21-24a1.31,1.31,0,0,1,1.18-.95h7.71a.66.66,0,0,1,.76.76v.19l-4.21,24a5.63,5.63,0,0,0-.1.9c0,1.09.57,1.47,1.94,1.47h7.66a.73.73,0,0,1,.81.8Z" transform="translate(0 1)"/><path class="cls-42" d="M601.26,207.24l-5.86,33.3a1.24,1.24,0,0,1-1.13.94h-7.76c-.52,0-.76-.23-.76-.75v-.19l5.87-33.3a1.15,1.15,0,0,1,1.09-.9h7.75c.52,0,.8.24.8.76Z" transform="translate(0 1)"/><path class="cls-42" d="M636.64,207.29l-11.4,28.94c-1.89,4.68-5.53,5.68-10.12,5.68s-7.8-1-8-5.68l-1.27-28.94v0a.91.91,0,0,1,.94-.9h8a.83.83,0,0,1,.85.9l.33,26.16c0,.42,0,.66.42.66s.52-.24.67-.66l9.6-26.16a1.19,1.19,0,0,1,1.08-.9h8.42c.43,0,.62.19.62.53A2.36,2.36,0,0,1,636.64,207.29Z" transform="translate(0 1)"/><path class="cls-42" d="M663.32,207.39l-1,5.76a1.27,1.27,0,0,1-1.14.95h-9.55c-1.7,0-2.37.52-2.7,2.37l-.61,3.45H660a.73.73,0,0,1,.81.8v.14l-1,5.58a1.21,1.21,0,0,1-1.09.95H647.05l-.71,3.92a6.73,6.73,0,0,0-.09.95c0,1.09.56,1.42,1.94,1.42h9.55a.72.72,0,0,1,.8.8v.14l-1,5.77a1.16,1.16,0,0,1-1.09,1,67.8,67.8,0,0,1-9.31.57c-5.53,0-10.59-2-10.59-8.18a15.61,15.61,0,0,1,.23-2.42l2.6-14.84c1.66-9.6,7.33-10.6,14-10.6a65.07,65.07,0,0,1,9.22.57c.52.05.76.28.76.76Z" transform="translate(0 1)"/><path class="cls-42" d="M687.21,227.39l4.58,12.86c.05.05.05.19.05.33,0,.62-.33.9-1,.9h-8.32c-.52,0-.61-.42-.76-.94l-4-11.54h-1.56c-.47,0-1-.05-1.51-.1l-2,11.64a1.24,1.24,0,0,1-1.13.94h-7.66a.72.72,0,0,1-.8-.8v-.14l5.43-30.93c.38-2.27,1.19-2.79,3.27-3.12a68.17,68.17,0,0,1,9.93-.62c7.56,0,13.19,2.65,13.19,9.22C695,220.58,692.5,225.26,687.21,227.39ZM681.06,214c-1.28,0-2.89,0-3.69.09l-1.32,7.52a4,4,0,0,0,.8.05h2.65c3.78,0,5.77-1.37,5.77-5.15C685.27,214.72,684.09,214,681.06,214Z" transform="translate(0 1)"/><path class="cls-42" d="M724.52,207.39l-1,5.76a1.25,1.25,0,0,1-1.13.95h-9.56c-1.7,0-2.36.52-2.69,2.37l-.62,3.45h11.64a.72.72,0,0,1,.8.8v.14l-1,5.58a1.21,1.21,0,0,1-1.09.95H708.26l-.71,3.92a6.83,6.83,0,0,0-.1.95c0,1.09.57,1.42,1.94,1.42h9.55a.73.73,0,0,1,.81.8v.14l-1,5.77a1.18,1.18,0,0,1-1.09,1,68,68,0,0,1-9.32.57c-5.53,0-10.59-2-10.59-8.18a14.55,14.55,0,0,1,.24-2.42l2.6-14.84c1.65-9.6,7.33-10.6,14-10.6a65.19,65.19,0,0,1,9.22.57c.52.05.75.28.75.76Z" transform="translate(0 1)"/><path class="cls-42" d="M755.41,221.29l-.9,5.2c-1.89,10.83-7.75,15.42-18.11,15.42a63.69,63.69,0,0,1-10.69-.81c-.8-.14-1.23-.47-1.23-1.27a1.85,1.85,0,0,1,0-.57L730,208.52a1.89,1.89,0,0,1,1.84-1.84,68.57,68.57,0,0,1,11-.81c8,0,13,4.07,13,11.82A18.2,18.2,0,0,1,755.41,221.29Zm-14.09-7.19h-.66c-.53,0-1.14.05-1.57.05h-.47l-3.45,19.53c.19,0,.66,0,1.23,0h1.46c3.84,0,5.92-1.52,7-7.24l.9-5.2a19.53,19.53,0,0,0,.28-2.93C746,215,744.34,214.1,741.32,214.1Z" transform="translate(0 1)"/><path class="cls-29" d="M797.23,227.39l4.59,12.86a.71.71,0,0,1,0,.33c0,.62-.33.9-.94.9h-8.33c-.52,0-.61-.42-.75-.94l-4-11.54H786.3c-.47,0-1-.05-1.51-.1l-2,11.64a1.25,1.25,0,0,1-1.14.94H774a.72.72,0,0,1-.8-.8v-.14l5.44-30.93c.37-2.27,1.18-2.79,3.26-3.12a68.17,68.17,0,0,1,9.93-.62c7.57,0,13.19,2.65,13.19,9.22C805,220.58,802.53,225.26,797.23,227.39ZM791.08,214c-1.28,0-2.88,0-3.69.09l-1.32,7.52a4,4,0,0,0,.8.05h2.65c3.78,0,5.77-1.37,5.77-5.15C795.29,214.72,794.11,214,791.08,214Z" transform="translate(0 1)"/><path class="cls-29" d="M822.16,207.24l-5.87,33.3a1.24,1.24,0,0,1-1.13.94H807.4c-.52,0-.76-.23-.76-.75v-.19l5.87-33.3a1.16,1.16,0,0,1,1.09-.9h7.75c.52,0,.81.24.81.76Z" transform="translate(0 1)"/><path class="cls-29" d="M853.42,208.05l-1.09,6c-.09.52-.33.75-.76.75h-.14c-1.84-.14-5.53-.42-9.08-.42-4.73,0-6.76,1.42-7.75,7.09l-.9,5a19.57,19.57,0,0,0-.29,3c0,3.64,1.8,4.26,3.55,4.26a23.45,23.45,0,0,0,2.65-.14l1.7-9.7a1.14,1.14,0,0,1,1-.94h7.47a.73.73,0,0,1,.81.8v.14l-2.79,15.85c-.14.7-.38.94-1.18,1.08a55.83,55.83,0,0,1-11.16,1.14c-5.3,0-11.87-3.08-11.87-11.78a21,21,0,0,1,.33-3.73l.89-5c2.51-13.76,10.69-15.56,17.69-15.56a36.76,36.76,0,0,1,10.12,1.28c.52.14.81.24.81.66A1,1,0,0,0,853.42,208.05Z" transform="translate(0 1)"/><path class="cls-29" d="M888.51,207.24l-5.86,33.3a1.25,1.25,0,0,1-1.14.94h-7.7c-.52,0-.76-.23-.76-.75v-.19l2.22-12.87h-9.88l-2.22,12.87a1.26,1.26,0,0,1-1.14.94h-7.71a.72.72,0,0,1-.8-.8v-.14l5.86-33.3a1.21,1.21,0,0,1,1.14-.9h7.71c.52,0,.8.24.8.76v.14l-2.13,12.11h9.89l2.12-12.11a1.17,1.17,0,0,1,1.09-.9h7.71c.52,0,.8.24.8.76Z" transform="translate(0 1)"/><path class="cls-29" d="M918.55,207.24l-1.09,6.06a1.19,1.19,0,0,1-1.13.89h-7.05l-4.63,26.35a1.26,1.26,0,0,1-1.14.94H895.8c-.52,0-.75-.23-.75-.75v-.19l4.63-26.35h-7.19c-.52,0-.8-.23-.8-.75v-.14l1.09-6.06a1.15,1.15,0,0,1,1.08-.9H917.7a.78.78,0,0,1,.85.76Z" transform="translate(0 1)"/><path class="cls-29" d="M523.09,256.88l-.81,4.47a.88.88,0,0,1-.83.67h-5.21l-3.42,19.46a.93.93,0,0,1-.84.69h-5.7c-.38,0-.55-.17-.55-.56v-.13L509.15,262h-5.31c-.38,0-.59-.18-.59-.56v-.11l.8-4.47a.85.85,0,0,1,.8-.66h17.61a.57.57,0,0,1,.63.56Z" transform="translate(0 1)"/><path class="cls-29" d="M545.17,267.75l-.67,3.59c-1.6,8.53-6.21,11.5-12.75,11.5-4.89,0-9-2.76-9-8.67a17.82,17.82,0,0,1,.28-2.83l.66-3.59c1.68-8.84,6.67-11.53,12.75-11.53,4.86,0,9,2.55,9,8.59A12.91,12.91,0,0,1,545.17,267.75Zm-9.82-5.28c-2.48,0-3.74,1.5-4.43,5.28l-.67,3.59a13.27,13.27,0,0,0-.24,2.17c0,2.2.94,3.07,2.86,3.07,2.48,0,3.74-1.46,4.44-5.24l.66-3.59a13.39,13.39,0,0,0,.25-2.17C538.22,263.38,537.27,262.47,535.35,262.47Z" transform="translate(0 1)"/><path class="cls-29" d="M576.16,281.79a.68.68,0,0,1-.67.7h-5.93a.59.59,0,0,1-.6-.67l-.1-4.85h-6.22l-1.85,4.85a.89.89,0,0,1-.81.67H553.8c-.31,0-.49-.14-.49-.46,0,0,0-.14.07-.28l8.46-21.37c1.39-3.5,4.08-4.16,7.44-4.16s5.87.66,6,4.16l.91,21.37Zm-7.48-19.28c0-.32,0-.49-.31-.49s-.35.17-.46.49l-3.28,8.87h4.19Z" transform="translate(0 1)"/><path class="cls-29" d="M605,256.92l-4.2,24a1.66,1.66,0,0,1-1.53,1.29h-4.33a1.33,1.33,0,0,1-1.3-.94l-5.17-11.7c-.1-.25-.21-.28-.31-.28s-.18.1-.21.31l-2.1,11.92a.91.91,0,0,1-.84.69h-5.24a.53.53,0,0,1-.59-.59v-.1l4.19-24a1.67,1.67,0,0,1,1.54-1.29h4.26c.67,0,.94.42,1.22,1l5.31,12c.11.21.18.32.25.32s.21,0,.24-.32l2.17-12.36a.91.91,0,0,1,.84-.7h5.24c.38,0,.56.17.56.56Z" transform="translate(0 1)"/><path class="cls-29" d="M630.28,257,623,269c-1.08,1.72-2,2.62-3,3l-1.65,9.47a.91.91,0,0,1-.83.69h-5.7c-.35,0-.52-.17-.52-.56v-.13L613,272c-.87-.39-1.54-1.29-2-3L608,257c0-.1,0-.07,0-.17a.56.56,0,0,1,.6-.56h6.18c.39,0,.49.28.6.66l1.71,9.26c.07.24.17.35.28.35s.31-.11.42-.35l5-9.26c.18-.38.42-.66.8-.66H630c.24,0,.38.1.38.35A.9.9,0,0,1,630.28,257Z" transform="translate(0 1)"/><path class="cls-55" d="M660.68,291.29l-1.29,7.15a1.44,1.44,0,0,1-1.35,1.17,61,61,0,0,1-9.27.71c-6.62,0-13.13-2.17-13.13-10.09a20.54,20.54,0,0,1,.29-3.05l5.22-29.79a1.63,1.63,0,0,1,1.47-1.17h9.56c.64,0,.93.29.93.94v.23l-5.21,29.79a7.1,7.1,0,0,0-.12,1.12c0,1.34.7,1.81,2.4,1.81h9.5a.9.9,0,0,1,1,1Z" transform="translate(0 1)"/><path class="cls-55" d="M703.67,275.57l-1.12,6c-2.69,14.31-10.43,19.29-21.4,19.29-8.21,0-15.07-4.63-15.07-14.54a30,30,0,0,1,.47-4.75l1.11-6c2.82-14.84,11.2-19.35,21.41-19.35,8.15,0,15.07,4.28,15.07,14.42A21.2,21.2,0,0,1,703.67,275.57Zm-16.48-8.85c-4.16,0-6.27,2.52-7.45,8.85l-1.11,6a21.66,21.66,0,0,0-.41,3.64c0,3.69,1.58,5.16,4.81,5.16,4.16,0,6.27-2.47,7.44-8.8l1.12-6a22.75,22.75,0,0,0,.41-3.64C692,268.24,690.41,266.72,687.19,266.72Z" transform="translate(0 1)"/><path class="cls-55" d="M739.68,258.62l-1.35,7.51a1.14,1.14,0,0,1-1.23,1.11h-.18a75.08,75.08,0,0,0-8.15-.52c-3.16,0-6.16,1.11-7.56,8.85l-1.12,6a22.67,22.67,0,0,0-.35,3.58c0,4.4,2.29,5.28,4.87,5.28a78.72,78.72,0,0,0,8.27-.53h.17c.59,0,.88.29.88.82v.29l-1.34,7.51c-.18.76-.47,1-1.47,1.29a28.94,28.94,0,0,1-8.33,1c-8.74,0-15.25-4.86-15.25-14.54a31.2,31.2,0,0,1,.47-4.75l1.12-6c2.64-14.78,10.32-19.35,21.34-19.35a26.36,26.36,0,0,1,8.1,1.11c.64.24,1.11.35,1.11,1Z" transform="translate(0 1)"/><path class="cls-55" d="M774.17,299.15a1.13,1.13,0,0,1-1.12,1.17h-10a1,1,0,0,1-1-1.12l-.18-8.15H751.47l-3.11,8.15a1.48,1.48,0,0,1-1.34,1.12H736.64c-.53,0-.82-.24-.82-.76a3.64,3.64,0,0,1,.11-.47l14.19-35.89c2.35-5.87,6.87-7,12.5-7s9.85,1.11,10,7l1.53,35.89Zm-12.55-32.38c0-.52,0-.82-.53-.82s-.59.3-.76.82l-5.51,14.9h7Z" transform="translate(0 1)"/><path class="cls-55" d="M816,257.33l-1.35,7.51a1.49,1.49,0,0,1-1.4,1.11h-8.74l-5.75,32.67a1.55,1.55,0,0,1-1.4,1.17h-9.56c-.65,0-.94-.29-.94-.94v-.23L792.65,266h-8.92c-.64,0-1-.29-1-.93v-.18l1.34-7.51a1.44,1.44,0,0,1,1.35-1.11H815a1,1,0,0,1,1,.94Z" transform="translate(0 1)"/><path class="cls-55" d="M833.23,257.33,826,298.62a1.56,1.56,0,0,1-1.41,1.17h-9.61c-.65,0-.94-.29-.94-.94v-.23l7.27-41.29a1.42,1.42,0,0,1,1.35-1.11h9.61c.65,0,1,.29,1,.94Z" transform="translate(0 1)"/><path class="cls-55" d="M872.7,275.57l-1.11,6c-2.7,14.31-10.44,19.29-21.41,19.29-8.21,0-15.07-4.63-15.07-14.54a31.2,31.2,0,0,1,.47-4.75l1.11-6c2.82-14.84,11.21-19.35,21.41-19.35,8.15,0,15.07,4.28,15.07,14.42A21.2,21.2,0,0,1,872.7,275.57Zm-16.48-8.85c-4.16,0-6.27,2.52-7.44,8.85l-1.12,6a22.75,22.75,0,0,0-.41,3.64c0,3.69,1.58,5.16,4.81,5.16,4.16,0,6.27-2.47,7.45-8.8l1.11-6a21.66,21.66,0,0,0,.41-3.64C861,268.24,859.45,266.72,856.22,266.72Z" transform="translate(0 1)"/><path class="cls-55" d="M918.39,257.39l-7,40.23a2.8,2.8,0,0,1-2.58,2.17H901.5a2.23,2.23,0,0,1-2.17-1.58l-8.68-19.65c-.17-.41-.35-.47-.53-.47s-.29.18-.35.53l-3.52,20a1.55,1.55,0,0,1-1.4,1.17h-8.8a.9.9,0,0,1-1-1v-.17l7-40.23a2.81,2.81,0,0,1,2.58-2.17h7.15c1.12,0,1.59.7,2.06,1.7l8.91,20.23c.18.35.29.53.41.53s.35-.06.41-.53l3.64-20.76a1.55,1.55,0,0,1,1.4-1.17h8.8c.65,0,.94.29.94.94Z" transform="translate(0 1)"/></g></g></svg>