<svg height="512pt" viewBox="0 -57 512 511" width="512pt" xmlns="http://www.w3.org/2000/svg"><path d="m385.398438 46.589844c.539062.304687.734374.984375.429687 1.527344l-19.171875 34.089843 24.960938 14.039063 19.171874-34.089844c.308594-.546875.992188-.730469 1.527344-.425781.003906 0 .007813.003906.011719.003906 10.132813 5.699219 23.128906 1.644531 28.339844-9.113281 4.523437-9.335938 1.285156-20.761719-7.410157-26.1875-5.21875-3.257813-11.292968-3.816406-16.707031-2.125-.597656.1875-1.222656-.167969-1.375-.773438-1.367187-5.503906-5-10.40625-10.492187-13.171875-9.152344-4.609375-20.597656-1.441406-26.230469 7.273438-6.480469 10.039062-3.195313 23.25 6.9375 28.949219 0 0 .003906.003906.007813.003906zm0 0" fill="#ffd782"/><path d="m366.65625 82.207031 18.023438 10.136719 18.941406-33.683594c.308594-.546875.109375-1.222656-.429688-1.527344 0-.003906-.003906-.003906-.007812-.003906-18.078125-10.164062-10.757813-38.101562 10.136718-38.328125-1.882812-3.503906-4.792968-6.5-8.640624-8.4375-9.152344-4.609375-20.597657-1.441406-26.226563 7.273438-6.484375 10.039062-3.199219 23.25 6.933594 28.949219.003906.003906.007812.003906.011719.007812.535156.300781.734374.980469.429687 1.523438zm0 0" fill="#fdbd40"/><path d="m385.328125 135.167969-47.234375-28.582031c-18.777344-7.378907-39.199219-11.355469-60.507812-11.15625-56.84375.527343-106.761719 30.292968-135.691407 75.117187-4.070312 6.304687-11.03125 9.976563-18.488281 9.960937-.042969 0-.082031 0-.125 0-33.253906 0-60.460938 27.453126-60.460938 61.003907v15.75c0 17.226562 7.179688 32.832031 18.660157 43.953125h356.273437c3.332032-13.265625 5.078125-27.167969 5.011719-41.492188-.238281-49.75-22.539063-94.398437-57.4375-124.554687zm0 0" fill="#d3843d"/><path d="m97.957031 241.511719c0-33.554688 27.210938-61.003907 60.464844-61.003907h.121094c7.457031.015626 14.417969-3.65625 18.488281-9.960937 26.164062-40.535156 69.492188-68.75 119.582031-74.171875-6.25-.679688-12.597656-1.003906-19.027343-.945312-56.84375.527343-106.761719 30.296874-135.691407 75.117187-4.070312 6.304687-11.03125 9.976563-18.488281 9.960937-.042969 0-.082031 0-.125 0-33.253906 0-60.460938 27.453126-60.460938 61.003907v15.75c0 17.226562 7.179688 32.832031 18.660157 43.953125h35.140625c-11.480469-11.121094-18.664063-26.726563-18.664063-43.953125zm0 0" fill="#c16a33"/><path d="m387.078125 158.269531c-3.90625-10.226562-3.691406-21.566406 1.019531-31.449219l9.734375-20.4375c1.648438-3.457031.335938-7.59375-3-9.46875l-30.414062-17.105468c-3.335938-1.875-7.554688-.84375-9.652344 2.355468l-12.40625 18.941407c-5.960937 9.101562-15.449219 15.238281-26.15625 17.167969-57.351563 10.347656-71.699219 86.171874-22.570313 116.855468 31.078126 19.410156 71.710938 8.785156 89.46875-22.796875 9.671876-17.199219 10.507813-36.964843 3.976563-54.0625zm0 0" fill="#c16a33"/><path d="m329.15625 235.128906c-49.074219-30.648437-34.824219-106.503906 22.570312-116.855468 10.707032-1.929688 20.195313-8.066407 26.15625-17.167969l6.570313-10.027344-20.035156-11.265625c-3.335938-1.875-7.554688-.847656-9.652344 2.351562l-12.40625 18.941407c-5.960937 9.101562-15.449219 15.238281-26.15625 17.167969-57.351563 10.347656-71.699219 86.175781-22.570313 116.855468 16.136719 10.082032 34.847657 12.042969 51.597657 7.195313-5.523438-1.609375-10.929688-3.980469-16.074219-7.195313zm0 0" fill="#af5028"/><path d="m45.550781 351.433594v3.085937c0 19.269531 14.53125 35.039063 32.292969 35.039063h357.226562c17.761719 0 32.292969-15.769532 32.292969-35.039063v-3.085937zm0 0" fill="#d7f7ff"/><path d="m80.6875 354.519531v-3.085937h-35.136719v3.085937c0 19.269531 14.53125 35.039063 32.292969 35.039063h35.136719c-17.757813 0-32.292969-15.769532-32.292969-35.039063zm0 0" fill="#b7e9f9"/><path d="m484.917969 299.390625h-456.921875c-11.003906 0-20.007813 9.003906-20.007813 20.011719v15.007812c0 11.007813 9.003907 20.011719 20.007813 20.011719h456.921875c11.003906 0 20.007812-9.003906 20.007812-20.011719v-15.007812c.003907-11.003906-9.003906-20.011719-20.007812-20.011719zm0 0" fill="#b7e9f9"/><path d="m484.917969 320.664062h-456.917969c-7.625 0-14.28125-4.324218-17.65625-10.636718-1.5 2.800781-2.355469 5.992187-2.355469 9.375v15.007812c0 11.007813 9.003907 20.011719 20.011719 20.011719h456.917969c11.003906 0 20.011719-9.003906 20.011719-20.011719v-15.007812c0-3.382813-.859376-6.574219-2.355469-9.375-3.378907 6.3125-10.035157 10.636718-17.65625 10.636718zm0 0" fill="#87cee9"/><path d="m180.371094 57.605469v-26.789063c0-4.160156-3.367188-7.53125-7.527344-7.53125s-7.53125 3.371094-7.53125 7.53125v26.789063c0 4.160156 3.371094 7.53125 7.53125 7.53125s7.527344-3.371094 7.527344-7.53125zm0 0"/><path d="m223.882812 57.605469v-26.789063c0-4.160156-3.367187-7.53125-7.527343-7.53125-4.160157 0-7.53125 3.371094-7.53125 7.53125v26.789063c0 4.160156 3.371093 7.53125 7.53125 7.53125 4.160156 0 7.527343-3.371094 7.527343-7.53125zm0 0"/><path d="m267.398438 57.605469v-26.789063c0-4.160156-3.371094-7.53125-7.53125-7.53125-4.160157 0-7.527344 3.371094-7.527344 7.53125v26.789063c0 4.160156 3.367187 7.53125 7.527344 7.53125 4.160156 0 7.53125-3.371094 7.53125-7.53125zm0 0"/><path d="m310.910156 57.605469v-26.789063c0-4.160156-3.371094-7.53125-7.53125-7.53125s-7.527344 3.371094-7.527344 7.53125v26.789063c0 4.160156 3.367188 7.53125 7.527344 7.53125s7.53125-3.371094 7.53125-7.53125zm0 0"/><path d="m434.613281 381.773438h-161.042969c-4.160156 0-7.53125 3.371093-7.53125 7.53125 0 4.160156 3.371094 7.527343 7.53125 7.527343h161.042969c20.371094 0 37.210938-15.378906 39.539063-35.132812h10.304687c15.1875 0 27.542969-12.355469 27.542969-27.542969v-15.007812c0-15.1875-12.355469-27.539063-27.542969-27.539063h-37.78125c2.121094-10.933594 3.191407-22.097656 3.15625-33.308594-.011719-4.152343-3.378906-7.507812-7.527343-7.507812 0 0-.015626 0-.023438 0-4.160156.011719-7.519531 3.390625-7.507812 7.550781.03125 11.21875-1.125 22.378906-3.449219 33.261719h-347.15625c-9.230469-9.855469-14.277344-22.539063-14.277344-36.03125v-15.613281c0-29.1875 23.746094-52.933594 52.933594-52.933594h.105469.066406c10.078125 0 19.324218-4.964844 24.75-13.292969 28.648437-43.996094 77.042968-70.550781 129.449218-71.03125 14.996094-.164063 29.710938 1.847656 43.953126 5.910156-2.136719.890625-4.339844 1.5625-6.742188 1.996094-64.140625 11.574219-80.148438 96.347656-25.222656 130.652344 57.449218 35.875 129.054687-21.5625 104.472656-85.9375-.386719-1.007813-.648438-1.832031-.925781-2.792969 18.882812 20.292969 32.269531 45.425781 38.289062 72.296875.910157 4.058594 4.933594 6.613281 8.996094 5.703125 4.058594-.910156 6.609375-4.9375 5.699219-8.996094-7.648438-34.140625-26.136719-65.707031-52.253906-89.421875.296874-.78125.613281-1.554687.972656-2.308593l9.738281-20.4375c2.679687-5.625 1.46875-12.183594-2.605469-16.519532l12.800782-22.761718c12.667968 3.628906 26.632812-2.03125 32.734374-14.644532 9.007813-18.632812-5.34375-41.476562-27.191406-39.789062-9.898437-19.523438-36.867187-19.96875-48.125-2.566406-7.601562 11.753906-5.199218 26.628906 4.492188 35.582031l-12.796875 22.761719c-5.828125-1.230469-12.058594 1.144531-15.472657 6.351562l-12.40625 18.945312c-.128906.195313-.269531.386719-.402343.578126-18.671875-6.589844-38.207031-9.84375-58.140625-9.660157-57.460938.527344-110.523438 29.636719-141.933594 77.871094-2.632812 4.042969-7.167969 6.453125-12.148438 6.453125-.011718 0-.019531 0-.03125 0h-.125c-37.488281 0-67.992187 30.5-67.992187 67.992188v15.613281c0 12.960937 3.625 25.328125 10.386719 36.03125h-37.675782c-15.183593.003906-27.539062 12.355469-27.539062 27.542969v15.007812c0 15.1875 12.355469 27.542969 27.539062 27.542969h10.308594c2.328125 19.753906 19.167969 35.132812 39.539063 35.132812h161.042969c4.160156 0 7.53125-3.367187 7.53125-7.527343 0-4.160157-3.371094-7.53125-7.53125-7.53125h-161.042969c-12.054688 0-22.121094-8.65625-24.320313-20.074219h405.867188c-2.195313 11.417969-12.265625 20.074219-24.320313 20.074219zm-50.179687-360.503907c5.902344-9.125 20.253906-7.058593 23.027344 3.808594 1.21875 4.761719 6.179687 7.542969 10.871093 6.109375 10.683594-3.269531 19.953125 7.894531 15.210938 17.699219-3.253907 6.734375-11.363281 9.144531-17.695313 5.617187-.019531-.011718-.039062-.023437-.058594-.03125-4.164062-2.335937-9.441406-.855468-11.769531 3.289063l-15.246093 27.109375c-4.28125-2.40625-7.550782-4.246094-11.835938-6.65625l15.246094-27.105469c2.328125-4.132813.886718-9.363281-3.234375-11.730469-.027344-.015625-.054688-.03125-.082031-.046875-6.386719-3.59375-8.476563-11.816406-4.433594-18.0625zm-36.234375 83.707031 12.277343-18.738281 30 16.867188-9.636718 20.222656c-5.53125 11.609375-5.933594 25.140625-1.253906 37.375h.003906c19.367187 50.699219-36.988282 96.164063-82.425782 67.789063-42.875-26.777344-31.023437-93.871094 19.917969-103.058594 12.429688-2.246094 23.910157-9.453125 31.117188-20.457032zm-320.660157 241.660157c-6.878906 0-12.480468-5.597657-12.480468-12.480469v-15.007812c0-6.882813 5.601562-12.480469 12.480468-12.480469h456.921876c6.878906 0 12.480468 5.597656 12.480468 12.480469v15.007812c0 6.882812-5.597656 12.480469-12.480468 12.480469-12.027344 0-436.433594 0-456.921876 0zm0 0"/></svg>