<svg xmlns="http://www.w3.org/2000/svg" viewBox="0 0 233.06 233.73"><defs><style>.cls-1{fill:#e8e8e8;}.cls-2{fill:#2f2b2b;}.cls-3{fill:#aaa;stroke:#2f2b2b;stroke-miterlimit:10;stroke-width:4px;}.cls-4{fill:#d30013;}.cls-5{fill:#a12d2d;}.cls-6{fill:#790013;}.cls-7{fill:#ca2d2d;}</style></defs><title>Food</title><g id="Layer_2" data-name="Layer 2"><g id="Groceries"><circle class="cls-1" cx="116.17" cy="116.17" r="115.5"/><path class="cls-2" d="M176.84,160.32a80.79,80.79,0,0,1-9,10.41,74.14,74.14,0,0,1-10.8,8.6c-1,.61-1.92,1.29-2.93,1.85l-3,1.71c-2.06,1-4.11,2.1-6.26,2.95A70.86,70.86,0,0,1,131.6,190a72.55,72.55,0,0,1-13.76,1.66,75.86,75.86,0,0,1-13.85-.84,74.75,74.75,0,0,1-26.12-9.2,76.26,76.26,0,1,1,105-102.32,75.64,75.64,0,0,1,8.31,26.52,74.17,74.17,0,0,1-2,27.51l-.39-.09a76,76,0,0,0,.54-27.17,73.65,73.65,0,0,0-8.94-25.42,74.88,74.88,0,0,0-17.3-20.48,73,73,0,0,0-23.36-12.9,72.25,72.25,0,0,0-26.35-3.79,73.42,73.42,0,0,0-9.19,145.75,74.37,74.37,0,0,0,13.57,1,71.25,71.25,0,0,0,13.54-1.44,69.76,69.76,0,0,0,13.07-3.91c2.13-.8,4.17-1.83,6.22-2.82l3-1.64c1-.54,1.94-1.19,2.92-1.78a73.44,73.44,0,0,0,10.82-8.37,80.29,80.29,0,0,0,9.13-10.21Z"/><path class="cls-2" d="M22.61,48.09a124.56,124.56,0,0,1,14-16l3.92-3.61,4.11-3.38c1.34-1.16,2.83-2.14,4.25-3.2L51,20.32c.73-.5,1.49-1,2.23-1.45,1.51-.94,3-2,4.51-2.83l4.64-2.62c3.18-1.58,6.34-3.22,9.66-4.52,1.64-.69,3.27-1.4,5-1.94s3.35-1.21,5-1.73l5.13-1.46c1.71-.5,3.47-.8,5.2-1.21A111.63,111.63,0,0,1,113.59,0a116.68,116.68,0,0,1,21.3,1.34A114.88,114.88,0,0,1,175,15.64a116.48,116.48,0,0,1,57.86,107.79A115.57,115.57,0,0,1,222.61,165,116.74,116.74,0,0,1,78.06,227.32,116,116,0,0,1,.86,132.08,115,115,0,0,1,3.51,89.71l.39.09a119.83,119.83,0,0,0-2.53,21,115.54,115.54,0,0,0,1.3,21A114.23,114.23,0,0,0,16.3,171.36a118.73,118.73,0,0,0,11.93,17.21,114.22,114.22,0,0,0,51.13,35,112.62,112.62,0,0,0,41.06,6,114,114,0,0,0,99.28-65.85A112.52,112.52,0,0,0,230,123.25a115.56,115.56,0,0,0-4.88-41.46,113.76,113.76,0,0,0-19.56-36.93A115.22,115.22,0,0,0,174,17.36,113.08,113.08,0,0,0,134.64,3a115.19,115.19,0,0,0-21-1.52,110.33,110.33,0,0,0-21,2.28c-1.72.39-3.46.67-5.16,1.15l-5.1,1.4c-1.69.51-3.34,1.12-5,1.67s-3.31,1.21-4.94,1.88c-3.3,1.25-6.44,2.85-9.62,4.39l-4.63,2.55c-1.55.84-3,1.85-4.51,2.77-.74.47-1.5.93-2.23,1.42L49.31,22.5c-1.42,1-2.91,2-4.26,3.14L40.94,29,37,32.52A124.06,124.06,0,0,0,22.93,48.33Z"/><path class="cls-2" d="M6.11,82.15c.55-2.36,1.22-4.68,1.94-7s1.58-4.59,2.48-6.84a46,46,0,0,1,3-6.64,31.52,31.52,0,0,1,4.36-5.88l.17.1a67.37,67.37,0,0,1-2.75,6.71C14.32,64.78,13,66.81,12,69S9.92,73.29,9,75.5,7.15,80,6.3,82.21Z"/><path class="cls-3" d="M139.25,214.39a29.94,29.94,0,0,1-5.13-1.43c-5.81-2.77-8.56-7.56-8.57-13.93,0-10.7,0-21.4,0-32.1,0-5.86-.09-11.73.1-17.59.12-3.88,2.33-6.62,5.88-8.07a1.92,1.92,0,0,0,1.42-2.21c-.07-6.64,0-13.27,0-19.91,0-2.81-.75-3.61-3.58-3.87a7.14,7.14,0,0,1-6.18-6.11,19.34,19.34,0,0,1-.11-2q0-23.7,0-47.39c0-1.48.21-2.76,1.68-3.48H126c1.46.69,1.79,1.92,1.79,3.41q0,17.26,0,34.53a13.29,13.29,0,0,0,.07,1.85,2.33,2.33,0,0,0,2.34,2.2,2.29,2.29,0,0,0,2.61-1.87A10.43,10.43,0,0,0,133,94q0-17.33,0-34.67a3,3,0,0,1,1.64-3h1.24a3.13,3.13,0,0,1,1.83,3.23q0,9.16,0,18.33c0,5.9,0,11.81,0,17.71a2.43,2.43,0,0,0,2.61,2.72c1.69,0,2.58-1.19,2.58-3.48q0-17.5,0-35c0-1.48.18-2.76,1.63-3.5h1.24a3.07,3.07,0,0,1,1.83,3.22c0,3.29,0,6.58,0,9.87q0,13,0,26.06c0,1.75.86,2.74,2.34,2.86s2.61-.84,2.85-2.57a8.8,8.8,0,0,0,0-1.23c0-11.66,0-23.33,0-35a3.22,3.22,0,0,1,1.61-3.2h1.24a3,3,0,0,1,1.86,3.2q0,24,0,48c0,4.4-3.08,7.77-7,7.88-1.78,0-2.89,1-2.9,2.39,0,7.66,0,15.32,0,22.94,5.47,2.27,7.39,5.2,7.39,11.15q0,23.21,0,46.42c0,5.43-1.69,10-6.22,13.37a17.17,17.17,0,0,1-7.35,2.78Z"/><path class="cls-2" d="M130.22,175.33h.08c0,8.44-.09,16.87,0,25.31.07,4.85,4.57,8.92,9.71,9.13,4.8.19,9.57-3.71,10-8.45.3-3.47.28-7,.29-10.47q.06-20,0-40c0-3.69-2-5.7-5.74-5.73-2.83,0-5.66,0-8.49,0-4.05,0-5.9,1.86-5.9,5.95Q130.21,163.21,130.22,175.33Z"/><path class="cls-3" d="M92.32,56.3a18.5,18.5,0,0,1,11.09,5.76,31.86,31.86,0,0,1,7.12,13.28,55.25,55.25,0,0,1,2.11,20.38,20.63,20.63,0,0,1-10.05,16.11,9.23,9.23,0,0,0-4.64,8.7c.09,6.07,0,12.13,0,18.2a2.29,2.29,0,0,0,1.62,2.6c4.15,1.8,5.89,5.24,5.87,9.73,0,13.43,0,26.86,0,40.28,0,3.14,0,6.27-.12,9.41a14.37,14.37,0,0,1-12.41,13.37,4.82,4.82,0,0,0-.86.26H89.54a16.71,16.71,0,0,1-7.24-2.71A14.83,14.83,0,0,1,76,199.13q-.08-24.23,0-48.45c0-4.93,2.49-8.21,7.4-9.95v-5.79c0-5-.08-10,0-15a8.21,8.21,0,0,0-4.16-7.83,22,22,0,0,1-10-13.49c-1.1-4.1-.77-8.27-.38-12.41a48.6,48.6,0,0,1,4.28-16.87c2.67-5.51,6.29-10.09,12.34-12.17,1.1-.38,2.26-.61,3.39-.91Z"/><path class="cls-2" d="M100.66,175.57h.07q0-12.35,0-24.7c0-3.82-1.86-5.69-5.65-5.71-2.83,0-5.66,0-8.49,0-4,0-5.95,1.93-5.95,6,0,15.95,0,31.89,0,47.84a13.62,13.62,0,0,0,.82,4.49,9.81,9.81,0,0,0,10.56,6.19c4.86-.77,8.51-4.54,8.57-9.21C100.74,192.14,100.66,183.85,100.66,175.57Z"/><path class="cls-4" d="M127.53,175.27q0-13.08,0-26.16c0-4.41,2.34-6.41,7.47-6.42,3.59,0,7.17,0,10.76,0,4.67,0,7.26,2.2,7.27,6.18q0,21.57,0,43.15c0,3.77,0,7.55-.37,11.3-.52,5.11-6.57,9.33-12.65,9.12-6.51-.23-12.21-4.62-12.3-9.85-.16-9.1,0-18.21,0-27.32Zm13,3.52c0,3.88,0,7.76,0,11.64a2.76,2.76,0,0,0,2.81,3,3,3,0,0,0,3-2.9q.08-11.64,0-23.29c0-1.84-1.22-2.82-3-2.8s-2.79.93-2.8,2.89C140.48,171.13,140.49,175,140.49,178.78Zm6-25.42A23.12,23.12,0,0,0,146,150c-.35-1.26-1.51-1.75-3-1.6s-2.44.82-2.5,2.11c-.09,1.94-.07,3.88,0,5.82,0,1.41,1.12,2.14,2.59,2.27a2.56,2.56,0,0,0,3-1.84A29.34,29.34,0,0,0,146.48,153.37Z"/><path class="cls-5" d="M103.49,175.22c0,9,.1,18.05,0,27.08-.08,5.09-4.77,9.2-11,10-5.64.76-11.57-2.11-13.55-6.74a12.88,12.88,0,0,1-1.06-4.9c-.07-17.37-.05-34.75,0-52.12,0-4.39,2.46-6.47,7.63-6.49q5.45,0,10.89,0c4.85,0,7.24,2.06,7.25,6.23q0,13.46,0,26.91Zm-6.65,3.39h0c0-4,.11-8.06-.09-12.08a3.25,3.25,0,0,0-1.91-2.35,4.43,4.43,0,0,0-3.12.74,2.75,2.75,0,0,0-.76,2.16q-.08,11.59,0,23.17a2.91,2.91,0,0,0,2.94,3,2.85,2.85,0,0,0,3-3.09C96.86,186.33,96.84,182.48,96.84,178.62Zm0-25.76h0c0-.89,0-1.79,0-2.68-.06-1.46-1-2.26-2.71-2.33s-2.9.69-3,2.08a41.66,41.66,0,0,0,.05,6.17c.09,1.41,1.4,2.06,2.85,2s2.74-.79,2.84-2.28C96.86,154.87,96.8,153.86,96.8,152.86Z"/><path class="cls-6" d="M140.49,178.78c0-3.83,0-7.65,0-11.48,0-2,.93-2.87,2.8-2.89s3,1,3,2.8q.08,11.64,0,23.29a3,3,0,0,1-3,2.9,2.76,2.76,0,0,1-2.81-3C140.48,186.55,140.49,182.67,140.49,178.78Z"/><path class="cls-6" d="M146.48,153.37a29.34,29.34,0,0,1-.38,3.4,2.56,2.56,0,0,1-3,1.84c-1.46-.12-2.56-.85-2.59-2.27,0-1.94-.06-3.88,0-5.82.06-1.28,1.05-2,2.5-2.11s2.64.34,3,1.6A23.12,23.12,0,0,1,146.48,153.37Z"/><path class="cls-7" d="M96.84,178.62c0,3.86,0,7.72,0,11.58a2.85,2.85,0,0,1-3,3.09,2.91,2.91,0,0,1-2.94-3q-.06-11.59,0-23.17a2.75,2.75,0,0,1,.76-2.16,4.43,4.43,0,0,1,3.12-.74,3.25,3.25,0,0,1,1.91,2.35c.2,4,.09,8.05.09,12.08Z"/><path class="cls-7" d="M96.8,152.86c0,1,.05,2,0,3-.1,1.49-1.27,2.26-2.84,2.28s-2.75-.63-2.85-2a41.66,41.66,0,0,1-.05-6.17c.12-1.4,1.31-2.16,3-2.08s2.64.87,2.71,2.33c0,.89,0,1.79,0,2.68Z"/></g></g></svg>