<svg xmlns="http://www.w3.org/2000/svg" viewBox="0 0 198.83 130.86"><defs><style>.cls-1{fill:#d4d4d4;}.cls-1,.cls-2,.cls-3,.cls-4{stroke:#2f2b2b;stroke-linecap:round;stroke-miterlimit:10;stroke-width:4px;}.cls-2{fill:#f0f0f0;}.cls-3{fill:#a12d2d;}.cls-4,.cls-6{fill:#fff;}.cls-5{fill:#d17262;}.cls-7{fill:#787878;}</style></defs><title>Medicines</title><g id="Layer_2" data-name="Layer 2"><g id="Medicines"><path class="cls-1" d="M196.83,18.95V44.3c0,9.35-20.68,16.95-46.17,16.95s-46.19-7.6-46.19-16.95V18.95c0,5.05,6,9.58,15.51,12.69,8.16,2.65,18.91,4.28,30.68,4.28s22.52-1.63,30.66-4.28C190.84,28.53,196.83,24,196.83,18.95Z"/><path class="cls-2" d="M196.83,18.95c0,5.05-6,9.58-15.51,12.69-8.14,2.65-18.91,4.28-30.66,4.28S128.14,34.29,120,31.64c-9.52-3.11-15.51-7.64-15.51-12.69C104.47,9.6,125.16,2,150.66,2S196.83,9.6,196.83,18.95Z"/><path class="cls-3" d="M52.59,81.59,18.23,66.37A27.3,27.3,0,0,1,29.38,14.12a27,27,0,0,1,11,2.32L74.6,31.63S45.45,45.8,52.59,81.59Z"/><path class="cls-4" d="M123.25,83.05a27.37,27.37,0,0,1-25,16.24,27,27,0,0,1-11-2.34L52.59,81.59c-7.14-35.79,22-50,22-50L109.35,47A27.37,27.37,0,0,1,123.25,83.05Z"/><path class="cls-3" d="M125.59,128.86H87.86a27.31,27.31,0,0,1,0-54.62h37.73S102.07,105.34,125.59,128.86Z"/><path class="cls-4" d="M190.64,101.56a27.4,27.4,0,0,1-27.32,27.3H125.59c-23.52-23.52,0-54.62,0-54.62h37.73A27.4,27.4,0,0,1,190.64,101.56Z"/><path class="cls-5" d="M72.58,93.73a16,16,0,0,1,4.67-6.09A19,19,0,0,1,84.19,84a14.21,14.21,0,0,1,1.93-.45,12.42,12.42,0,0,1,2-.26c.66,0,1.31-.07,2-.08s1.31.1,2,.17a20.63,20.63,0,0,1,3.78.82,24.36,24.36,0,0,1,3.5,1.56c-1.3,0-2.52-.11-3.75-.11H93.71c-.3,0-.6,0-.9,0l-.89.08-1.77.12c-.58.1-1.16.18-1.74.26a12.24,12.24,0,0,0-1.71.34,12.69,12.69,0,0,0-1.68.42,28.84,28.84,0,0,0-6.43,2.71A39.8,39.8,0,0,0,72.58,93.73Z"/><path class="cls-5" d="M23.84,26.18A10.73,10.73,0,0,1,29.32,24a16.46,16.46,0,0,1,5.95.41,18.35,18.35,0,0,1,5.39,2.41A20,20,0,0,1,43,28.67a19,19,0,0,1,1.92,2.21c-1-.26-1.83-.64-2.71-1s-1.72-.67-2.59-1c-1.7-.62-3.38-1.15-5.07-1.61a40.46,40.46,0,0,0-5.17-1A33.89,33.89,0,0,0,23.84,26.18Z"/><path class="cls-6" d="M190,34.34a10.7,10.7,0,0,1,1,5,12.83,12.83,0,0,1-1.18,5,10.5,10.5,0,0,1-3.32,4.08,8.61,8.61,0,0,1-4.81,1.72,32.45,32.45,0,0,0,3.19-3.43A18.61,18.61,0,0,0,187,43a33.64,33.64,0,0,0,1.57-4.11C189.07,37.48,189.49,36,190,34.34Z"/><path class="cls-7" d="M121,19c5.23-.62,10.47-.95,15.7-1.17,2.62-.14,5.23-.17,7.85-.25l7.85-.08,7.85.08c2.62.08,5.23.11,7.85.25,5.23.22,10.47.55,15.7,1.17-5.23.62-10.47,1-15.7,1.17-2.62.14-5.23.17-7.85.25l-7.85.08-7.85-.08c-2.62-.08-5.23-.11-7.85-.25C131.44,19.9,126.21,19.58,121,19Z"/></g></g></svg>